<?xml version="1.0" encoding="UTF-8" standalone="no"?>
<svg
   version="1.1"
   width="463.45001pt"
   height="600pt"
   id="svg791"
   viewBox="0 0 463.45001 600"
   sodipodi:docname="Logo AD MeÌrida.svg"
   inkscape:version="1.2 (dc2aeda, 2022-05-15)"
   xmlns:inkscape="http://www.inkscape.org/namespaces/inkscape"
   xmlns:sodipodi="http://sodipodi.sourceforge.net/DTD/sodipodi-0.dtd"
   xmlns="http://www.w3.org/2000/svg"
   xmlns:svg="http://www.w3.org/2000/svg">
  <defs
     id="defs795" />
  <sodipodi:namedview
     id="namedview793"
     pagecolor="#ffffff"
     bordercolor="#000000"
     borderopacity="0.25"
     inkscape:showpageshadow="2"
     inkscape:pageopacity="0.0"
     inkscape:pagecheckerboard="0"
     inkscape:deskcolor="#d1d1d1"
     showgrid="false"
     inkscape:zoom="0.46551692"
     inkscape:cx="360.88914"
     inkscape:cy="425.33363"
     inkscape:window-width="1920"
     inkscape:window-height="1080"
     inkscape:window-x="0"
     inkscape:window-y="0"
     inkscape:window-maximized="0"
     inkscape:current-layer="svg791"
     inkscape:document-units="pt" />
  <g
     id="g4154">
    <path
       style="fill:#000000;fill-rule:evenodd;stroke-width:1"
       d="M 2.38925e-4,5.9026e-8 H 463.45002 V 458.61506 l -2.18717,2.30434 c -32.02411,33.7414 -67.90433,63.2012 -107.82969,87.13624 -37.36661,22.40087 -77.3353,39.39257 -119.19867,51.34205 l -2.11038,0.60233 -2.15539,-0.59922 C 186.95709,587.44231 146.02628,570.04216 107.85494,546.89464 68.7555,523.18429 33.598673,494.10197 2.1856525,460.9178 L -3.1179e-8,458.60893 Z"
       id="path182" />
    <path
       style="fill:#f9d510;fill-rule:evenodd;stroke-width:1"
       d="M 7.9025199,1.6934029 H 455.5475 h 6.20912 v 6.2091171 447.58245 2.45432 l -1.72208,1.8144 c -33.78761,35.59826 -69.67875,64.19279 -107.47206,86.8495 -37.82039,22.67312 -77.48162,39.3713 -118.79284,51.16609 l -1.65167,0.47146 -1.69563,-0.47146 C 187.02256,585.70152 146.5304,568.36748 108.73303,545.44672 70.940435,522.52883 35.904839,494.07082 3.4154803,459.75369 L 1.6934028,457.93451 V 455.48497 7.90252 l 2.389e-4,-6.2091171 z"
       id="path185" />
    <path
       style="fill:#000000;fill-rule:evenodd;stroke-width:1"
       d="M 449.33838,14.111637 H 14.111637 V 453.02643 c 31.289321,32.75468 64.898588,59.93786 101.024703,81.84536 36.29338,22.0089 75.19106,38.7387 116.88956,50.48922 39.75944,-11.49292 77.88418,-27.62079 114.1821,-49.38102 36.188,-21.69443 70.62478,-49.01692 103.13038,-82.95834 z"
       id="path4149" />
  </g>
  <g
     id="g4469">
    <path
       d="M 121.54658,536.7253 V 15.80504 H 47.07174 v 466.64574 c 21.410553,18.96117 44.372251,36.07322 68.94268,50.9731 1.83742,1.11425 3.68144,2.21472 5.53216,3.30142 z"
       style="fill:#000000;fill-rule:evenodd;stroke-width:1"
       id="path187" />
    <path
       d="M 194.2838,15.80504 V 571.2594 c 12.37554,4.61664 24.96105,8.727 37.7362,12.34026 12.42564,-3.60442 24.679,-7.66675 36.73864,-12.19871 V 15.80504 Z"
       style="fill:#000000;fill-rule:evenodd;stroke-width:1"
       id="path189" />
    <path
       d="m 341.94741,15.80504 v 520.73483 c 1.13258,-0.66558 2.26244,-1.3364 3.38999,-2.01241 25.36042,-15.20327 49.03788,-32.72234 71.08493,-52.20133 V 15.80504 Z"
       style="fill:#000000;fill-rule:evenodd;stroke-width:1"
       id="path191" />
    <path
       d="M 47.07174,482.45078 V 15.80504 H 15.80496 V 452.347 c 10.03146,10.47536 20.451224,20.52546 31.26678,30.10378 z"
       style="fill:#ffffff;fill-rule:evenodd;stroke-width:1"
       id="path193" />
    <path
       d="M 121.54658,15.80504 V 536.7253 c 23.26047,13.65794 47.56399,25.14344 72.73722,34.5341 V 15.80504 Z"
       style="fill:#ffffff;fill-rule:evenodd;stroke-width:1"
       id="path195" />
    <path
       d="m 268.75864,15.80504 v 555.59591 c 25.31374,-9.51325 49.77465,-21.09649 73.18877,-34.86108 V 15.80504 Z"
       style="fill:#ffffff;fill-rule:evenodd;stroke-width:1"
       id="path197" />
    <path
       d="m 416.42233,15.80504 v 466.52109 c 10.7966,-9.53898 21.2021,-19.54805 31.22273,-29.98518 V 15.80504 Z"
       style="fill:#ffffff;fill-rule:evenodd;stroke-width:1"
       id="path199" />
  </g>
  <g
     id="g4796">
    <g
       id="g4786">
      <path
         d="m 226.87528,506.99317 0.0544,0.005 c 2.5225,0.2529 4.03772,2.52027 4.02864,4.92306 l -0.0137,3.60011 -35.46078,-0.0138 -0.049,-3.56124 c -0.0347,-2.51549 1.39766,-4.6618 4.10392,-4.76885 2.06091,-0.0817 3.41659,-0.35063 5.16798,-1.27252 -0.042,-0.48699 -0.67194,-1.62227 -0.85235,-2.08489 l -3.62338,-9.28473 -18.12809,-0.0142 c -1.19127,2.96297 -2.27454,5.96092 -3.1633,9.03549 -0.2795,0.96657 -0.63531,2.17657 -0.1,3.10794 1.14181,0.54522 4.83472,0.503 5.96633,0.51113 2.72928,0.0202 4.30305,2.17187 4.30305,4.71851 v 3.61254 h -33.08978 l 0.0757,-3.68686 c 0.0495,-2.39673 1.49332,-4.83767 4.14023,-4.9542 1.2691,-0.0557 3.17748,-0.18328 4.36804,-0.68835 0.51296,-0.21769 0.75933,-0.48883 1.13839,-0.88756 0.11422,-0.11996 0.22805,-0.24031 0.34322,-0.35884 0.51073,-0.52586 0.93408,-1.23365 1.26344,-1.88369 0.59524,-1.17455 1.09777,-2.44436 1.60308,-3.66089 l 20.77589,-50.00628 0.0194,-0.0436 c 1.48703,-3.32786 6.63223,-3.34658 8.36108,-0.24517 l 0.10546,0.18942 19.82818,48.4357 c 0.53359,1.30342 1.14269,2.5773 1.71013,3.86631 0.38496,0.87474 0.75096,1.64011 1.32645,2.40557 0.29877,0.39754 1.20028,0.85188 1.60921,1.10318 0.82185,0.50571 3.24455,1.75139 4.18811,1.90154 z m -40.58878,-22.31818 9.72973,-0.0143 -4.82205,-11.69292 z"
         style="fill:#000000;fill-rule:evenodd;stroke-width:1"
         id="path201" />
      <path
         d="m 258.00856,504.9004 c 0.14385,-0.81038 0.0405,-3.13479 0.0405,-3.80092 v -36.49681 c 0,-0.75033 8e-4,-3.78826 -0.33987,-4.54168 -0.21268,-0.15851 -0.71616,-0.36736 -0.92588,-0.45657 -1.50694,-0.64008 -3.74675,-0.62925 -5.36608,-0.77804 l -3.28222,-0.30141 v -9.46784 l 27.82238,-0.017 c 21.74294,-0.0131 38.12435,9.69182 38.14442,33.27194 0.0165,19.12605 -13.28182,33.54156 -32.6912,33.57772 l -33.50134,0.0623 V 505.5138 l 3.65452,0.0424 c 1.50144,0.0174 5.04206,0.24477 6.44481,-0.65585 z m 15.95717,-45.1871 0.0512,44.40292 c 1.32923,-0.007 2.65886,-0.009 3.98579,-0.019 2.48658,-0.0186 5.12736,0.016 7.60199,-0.16257 3.26351,-0.23569 5.89433,-2.75843 7.56631,-5.3836 2.91988,-4.58525 3.85954,-10.56584 3.77471,-15.91201 -0.17229,-10.84965 -5.93973,-22.87026 -18.24303,-22.9527 -1.58077,-0.0106 -3.15852,0.0154 -4.73699,0.0269 z m -40.84589,54.037 c -1.62188,-1.42155 -2.48053,-3.33033 -2.48053,-5.48891 0,-2.20994 0.83316,-4.19686 2.51414,-5.65386 l 0.0531,-0.0452 c 1.46807,-1.22378 3.24885,-1.83471 5.14791,-1.93117 l 0.17563,-0.009 0.17596,0.008 c 1.95028,0.091 3.799,0.66876 5.31446,1.9318 l 0.10976,0.0914 0.10227,0.0998 c 1.47867,1.44481 2.21409,3.32763 2.28474,5.38409 l 0.004,0.12871 -0.005,0.12888 c -0.0745,2.01265 -0.83898,3.82664 -2.28426,5.23872 l -0.0454,0.0442 -0.0467,0.0427 c -1.52271,1.38682 -3.42703,2.03527 -5.46764,2.11157 l -0.14114,0.005 -0.14106,-0.006 c -1.97546,-0.0806 -3.79981,-0.7559 -5.27074,-2.08147 z m 84.15447,-0.13756 c -1.62203,-1.42155 -2.48068,-3.33057 -2.48068,-5.4893 0,-2.21019 0.83308,-4.19735 2.51453,-5.65434 l 0.0527,-0.0447 c 1.46799,-1.22377 3.24901,-1.8347 5.14808,-1.93116 l 0.17571,-0.009 0.17587,0.008 c 1.95028,0.091 3.79924,0.669 5.31454,1.93204 l 0.10905,0.091 0.10155,0.0992 c 1.47986,1.44505 2.21545,3.3285 2.28586,5.38568 l 0.004,0.128 -0.005,0.128 c -0.0741,2.01352 -0.83929,3.82863 -2.28561,5.2407 l -0.0448,0.0436 -0.046,0.042 c -1.52223,1.38682 -3.42671,2.03551 -5.46739,2.11182 l -0.14115,0.005 -0.14106,-0.006 c -1.97521,-0.0806 -3.79972,-0.7559 -5.27074,-2.08107 z"
         style="fill:#000000;fill-rule:evenodd;stroke-width:1"
         id="path206" />
    </g>
    <g
       id="g4782">
      <path
         d="m 180.8516,488.29541 7.49725,-17.88444 c 0.89839,-2.14311 4.70966,-2.39784 5.69273,-0.0144 l 7.36893,17.86882 z m -21.14476,23.59891 h 25.78967 c 0,-0.52793 -0.075,-1.10142 -0.71687,-1.10588 -2.54082,-0.0188 -7.33086,0.11238 -8.74062,-1.814 -1.51482,-2.06976 -1.18761,-4.28425 -0.56991,-6.42091 1.19151,-4.12192 2.65616,-7.93972 4.21495,-11.64689 l 23.0157,0.0183 4.52002,11.58189 c 0.26683,0.68389 1.06478,1.92774 1.10047,3.3434 0.0386,1.53848 -0.68915,2.57961 -1.71826,3.13797 -1.04153,0.56513 -2.8756,1.639 -6.92033,1.79902 -0.58791,0.0233 -0.64279,0.51981 -0.63466,1.10932 l 28.29878,0.0111 c 0.002,-0.65474 -0.27886,-1.26488 -0.77645,-1.31474 -1.53943,-0.11852 -4.73993,-1.78755 -5.77517,-2.42429 -1.08056,-0.66494 -1.88011,-1.04695 -2.60375,-2.00922 -0.75566,-1.00545 -1.20521,-1.89413 -1.74533,-3.12109 -0.55454,-1.25986 -1.20976,-2.64031 -1.74685,-3.95305 l -19.74607,-48.23498 c -0.30706,-0.55087 -1.65955,-0.5942 -1.90727,-0.0399 l -20.75732,49.96224 c -0.64503,1.55289 -1.19032,2.86883 -1.71682,3.90765 -0.56832,1.12174 -1.20394,2.05669 -1.89461,2.76791 -1.3184,1.35695 -2.24005,2.76114 -8.28222,3.02685 -0.47465,0.0208 -0.6772,0.93616 -0.68708,1.41932 z"
         style="fill:#ffffff;fill-rule:evenodd;stroke-width:1"
         id="path204" />
      <path
         d="m 270.34881,456.07767 c 3.03634,0.0822 5.51559,-0.023 8.37812,-0.004 13.0322,0.0874 21.59758,11.80946 21.83096,26.50789 0.2388,15.04635 -6.91348,24.39448 -14.69302,24.95603 -2.91184,0.2102 -12.24921,0.16575 -15.45608,0.23417 z m -18.82712,56.25514 29.88203,-0.0556 c 17.80033,-0.0331 29.09961,-13.23841 29.08551,-29.96192 -0.0187,-21.77703 -15.14823,-29.67358 -34.52965,-29.66258 l -24.21199,0.0147 v 2.56153 c 2.30895,0.21196 4.42539,0.19125 6.44815,1.05053 2.86381,1.21677 3.46582,2.14432 3.46582,8.32317 v 36.49681 c 0,3.67061 0.2666,5.35835 -1.34532,6.59224 -2.13054,1.63136 -4.99132,1.52112 -8.79455,1.47691 z"
         style="fill:#ffffff;fill-rule:evenodd;stroke-width:1"
         id="path209" />
      <path
         d="m 234.25185,508.26139 c 0,1.12286 0.41356,2.04834 1.2679,2.78854 0.79931,0.72802 1.8054,1.1227 3.01826,1.17224 1.32294,-0.0495 2.37029,-0.44422 3.16951,-1.17224 0.75813,-0.7402 1.15775,-1.66568 1.19917,-2.78854 -0.0414,-1.20911 -0.44104,-2.1839 -1.19917,-2.9241 -0.79922,-0.66629 -1.84657,-1.03651 -3.16951,-1.09825 -1.21286,0.0617 -2.21895,0.43196 -3.01826,1.09825 -0.85434,0.7402 -1.2679,1.71499 -1.2679,2.9241 z"
         style="fill:#ffffff;fill-rule:evenodd;stroke-width:1"
         id="path211" />
      <path
         d="m 318.40617,508.12344 c 0,1.12285 0.41347,2.04833 1.2679,2.78854 0.79923,0.72802 1.80539,1.12269 3.01817,1.17224 1.32295,-0.0495 2.37029,-0.44422 3.1696,-1.17224 0.75805,-0.74021 1.15766,-1.66569 1.19908,-2.78854 -0.0414,-1.20912 -0.44103,-2.1839 -1.19908,-2.92411 -0.79931,-0.66629 -1.84665,-1.03651 -3.1696,-1.09824 -1.21278,0.0617 -2.21894,0.43195 -3.01817,1.09824 -0.85443,0.74021 -1.2679,1.71499 -1.2679,2.92411 z"
         style="fill:#ffffff;fill-rule:evenodd;stroke-width:1"
         id="path213" />
    </g>
  </g>
  <g
     id="g3838">
    <path
       id="path3223"
       style="fill:#000000;fill-rule:evenodd;stroke-width:1"
       d="M 31.491602,27.150811 V 128.12556 H 431.95859 V 27.150811 Z" />
    <path
       id="path3124"
       style="fill:#ffffff;fill-rule:evenodd;stroke-width:1"
       d="M 36.684082 32.34375 L 36.684082 122.93262 L 426.76611 122.93262 L 426.76611 32.34375 L 36.684082 32.34375 z " />
    <g
       id="g3110"
       style="fill:#000000">
      <path
         d="m 144.02502,108.57412 c -0.002,3.68686 -2.3976,5.50739 -4.03262,5.76633 -0.6811,0.10769 -1.42091,0.0892 -2.4501,0.0817 l 0.008,2.22332 40.94689,0.0406 3.35861,-18.759337 -2.28124,0.0072 c -2.43671,7.311817 -4.17607,14.178857 -14.56453,14.213667 l -10.96323,0.037 c -1.28121,0.004 -2.17267,-0.64805 -2.1792,-2.72999 l -0.0944,-29.121353 11.31242,-0.01489 c 8.56332,-0.01131 8.99352,7.269366 8.97161,10.853948 l 1.60451,-0.01266 -3.2e-4,-26.245036 -1.60674,-2.39e-4 c -0.31765,3.120848 0.23434,10.76187 -9.01916,10.720053 l -11.19534,-0.05058 0.14171,-24.722088 c 0.0137,-2.408519 1.39693,-3.408232 3.82369,-3.41118 l 10.94778,-0.01314 c 4.57259,-0.0056 6.29084,2.522023 7.33285,4.630015 0.36919,0.747057 1.88305,5.593566 1.88305,6.853661 l 2.06721,0.0024 0.004,-16.123329 -40.4967,-0.0029 -0.0302,2.222612 c 6.05873,-0.13748 6.54222,3.493539 6.54142,5.577157 z"
         style="fill:#000000;fill-rule:evenodd;stroke-width:1"
         id="path764" />
      <path
         d="m 112.47476,44.221231 c -0.18041,-1.840122 -0.63443,-3.55973 -1.62402,-3.617796 -1.19877,-0.07041 -1.88807,1.752823 -2.22763,2.619119 L 86.990804,98.398174 63.570549,43.043098 c -0.444538,-1.051487 -0.785927,-1.241378 -1.22712,-1.45381 -1.983734,-0.95463 -3.812147,0.660157 -3.916731,2.625651 l -3.351041,62.871681 c -0.249949,4.69501 -2.847004,6.95825 -6.860273,6.97027 l -2.226753,0.006 -0.03951,2.20836 22.655595,0.0373 0.0058,-2.18582 -2.141127,-0.0499 c -3.410701,-0.0794 -7.185572,-2.55786 -7.030011,-5.51519 l 2.419909,-45.981698 21.374471,53.717988 1.812562,6.4e-4 21.9443,-54.354649 2.16462,45.162479 c 0.18496,3.85643 -1.46782,5.98219 -5.07654,6.80476 -0.79995,0.1824 -1.46034,0.0799 -3.28405,0.15603 l -0.009,2.23886 26.54221,-0.0456 -0.002,-2.16367 c -0.81803,0 -2.7155,0.22829 -4.71325,-0.81261 -1.64466,-0.85681 -3.95624,-6.0698 -4.29826,-9.55769 z"
         style="fill:#000000;fill-rule:evenodd;stroke-width:1"
         id="path766" />
      <path
         d="m 373.50612,88.012262 11.06144,-30.72196 v 0 l 11.26694,30.95988 z m -19.23239,28.672588 h 18.90095 v -2.17402 c -2.41473,0.11924 -4.09323,-0.39922 -4.90401,-1.20283 -1.65143,-1.63677 -2.1667,-3.08572 -1.34636,-5.54673 l 5.02326,-15.072795 25.32585,-0.05942 5.24572,15.384075 c 1.07108,3.14132 -0.16798,5.03457 -1.38993,5.68182 -1.46647,0.77661 -3.0118,0.75399 -5.19809,0.82719 v 2.13667 l 24.6876,0.0597 v -2.18892 c -4.36916,-0.0785 -5.02549,-1.90576 -6.55608,-4.78311 -0.71663,-1.34684 -0.86455,-1.63924 -1.44186,-3.18616 l -24.31802,-65.149332 -2.18127,-0.01489 -23.70708,64.684332 c -0.93544,2.55205 -2.37164,4.59672 -3.09552,5.54577 -1.44361,1.89245 -2.44548,2.62071 -5.04516,2.91447 z"
         style="fill:#000000;fill-rule:evenodd;stroke-width:1"
         id="path768" />
      <path
         d="m 303.99074,49.101752 c -0.008,-3.100377 5.77804,-2.10393 9.15433,-2.150924 15.87824,-0.220477 26.15343,13.336144 26.20879,33.061579 0.0476,16.966447 -7.44524,28.697283 -25.34465,31.935853 -3.38863,0.61293 -10.12314,0.71767 -10.13763,-4.40045 z m -18.34443,67.424598 27.45344,0.0195 c 22.02411,0.0159 36.83884,-13.40624 36.73369,-37.042908 -0.1178,-26.527322 -16.83159,-36.875479 -39.90098,-36.857159 l -24.28591,0.01944 v 2.077246 c 2.35204,0 3.07122,0.29997 4.36453,0.66637 1.22776,0.347681 2.21441,1.025599 2.72155,1.982619 0.90716,1.711723 1.1779,0.453539 1.1779,5.152532 l -8e-4,53.28461 c 0,4.68091 -0.69536,8.45012 -8.2631,8.44025 z"
         style="fill:#000000;fill-rule:evenodd;stroke-width:1"
         id="path770" />
      <path
         d="m 249.2849,116.70222 28.48151,0.045 0.007,-2.17347 c -2.27996,-0.0375 -3.83047,-0.16997 -5.13708,-0.66087 -2.4274,-0.91241 -4.46402,-3.16744 -4.45789,-6.52494 l 0.0917,-50.52975 c 0.005,-2.441415 0.10204,-4.008251 0.20662,-5.62463 0.0993,-1.538798 0.54498,-3.037213 1.25468,-3.828795 1.31768,-1.470218 3.46757,-2.19537 8.03793,-2.374508 l 0.004,-2.251923 -28.50357,4.78e-4 v 2.158571 c 2.41027,0 3.92071,-0.03568 5.14154,0.596514 1.14181,0.591576 1.72526,0.917273 2.49542,1.661622 2.19481,2.121533 1.58301,4.965908 1.58452,9.662671 l 0.0172,49.12501 c 0.002,4.93317 -1.14022,8.55176 -9.2437,8.57566 z"
         style="fill:#000000;fill-rule:evenodd;stroke-width:1"
         id="path772" />
      <path
         d="m 204.00287,79.14627 0.16305,-29.391052 c 0.026,-2.061953 2.45184,-2.254632 5.86366,-2.256782 8.21524,-0.0048 15.24023,3.350803 15.16998,15.686916 -0.0737,12.896305 -9.40373,14.734117 -18.7904,15.710731 z m -16.98859,37.83529 25.14799,2.4e-4 v -1.96263 c -3.09258,0 -5.8843,-0.21387 -7.47551,-3.32826 -0.32809,-0.642 -0.73575,-1.82451 -0.73009,-3.27028 l 0.0985,-25.491205 5.20972,-0.04476 21.35082,34.171455 14.56087,-0.007 -0.004,-2.19385 c -4.16469,-0.51377 -5.68246,-1.96645 -7.48459,-4.70441 L 219.0622,81.851016 c 8.54906,-1.995364 16.25014,-6.788029 16.29036,-18.806888 0.0495,-14.832249 -12.23073,-19.819344 -23.29695,-19.81791 l -25.04133,0.0034 v 1.962627 c 2.23376,0 3.08612,0.07384 4.31443,0.440157 4.25111,1.267503 3.59008,7.561689 3.59008,11.665442 0,7.571566 0.93997,50.622946 -1.00529,54.721436 -0.88645,1.86784 -2.63895,3.05451 -6.89922,2.99962 z"
         style="fill:#000000;fill-rule:evenodd;stroke-width:1"
         id="path774" />
    </g>
  </g>
  <g
     id="g12099">
    <g
       id="g4811"
       transform="translate(-0.693625)">
      <path
         id="path4800"
         style="fill:#000000;fill-rule:evenodd;stroke-width:1"
         d="m 232.41862,195.34863 c -32.88651,0 -62.66018,13.33041 -84.21189,34.88233 -21.55177,21.55182 -34.88209,51.32561 -34.88209,84.2124 0,32.88647 13.33032,62.66048 34.88209,84.2124 21.55172,21.55184 51.32561,34.88086 84.21189,34.88086 32.88635,0 62.66019,-13.32902 84.2119,-34.88086 21.55176,-21.55192 34.88211,-51.32593 34.88211,-84.2124 0,-32.88679 -13.33034,-62.66058 -34.88211,-84.2124 -21.55171,-21.55192 -51.32531,-34.88233 -84.2119,-34.88233 z" />
      <path
         id="path4805"
         style="fill:#ffffff;fill-rule:evenodd;stroke-width:1"
         d="m 232.41863,198.96094 c -31.88917,0 -60.75956,12.92551 -81.65714,33.82324 -20.89759,20.89781 -33.82448,49.76971 -33.82448,81.65918 0,31.88963 12.92689,60.75997 33.82448,81.65771 20.89758,20.89781 49.76773,33.82325 81.65714,33.82325 31.88949,0 60.7595,-12.92544 81.65716,-33.82325 20.8976,-20.89774 33.82447,-49.76808 33.82447,-81.65771 0,-31.88947 -12.92687,-60.76137 -33.82447,-81.65918 -20.89766,-20.89773 -49.76791,-33.82324 -81.65716,-33.82324 z" />
      <path
         d="m 232.41859,204.19211 c -60.88978,0 -110.25047,49.3607 -110.25047,110.25056 0,60.88978 49.36069,110.25048 110.25047,110.25048 60.88986,0 110.25056,-49.3607 110.25056,-110.25048 0,-60.88986 -49.3607,-110.25056 -110.25056,-110.25056 z"
         style="fill:#ff0000;fill-rule:evenodd;stroke-width:1"
         id="path221" />
    </g>
    <g
       id="g11549"
       transform="translate(-0.83432)">
      <path
         id="path8372"
         style="fill:#000000;fill-rule:evenodd;stroke-width:1"
         d="m 218.68213,221.35547 v 9.56836 h 7.94092 v 6.35742 c -6.27124,0.466 -12.19489,1.85523 -17.70118,4.02246 l -2.79638,-5.64404 7.61279,-3.67969 -4.16455,-8.61475 -23.16211,11.19727 4.16455,8.61475 7.06055,-3.41309 2.8081,5.66894 c -0.86916,0.51026 -1.73076,1.03394 -2.57226,1.58497 -4.44959,2.91352 -8.50263,6.38987 -12.11279,10.30957 l -5.04493,-3.9375 5.35987,-6.50245 -7.38428,-6.08642 -16.36377,19.8501 7.38281,6.08789 5.0874,-6.17139 5.14014,4.01514 c -2.3095,3.30791 -4.34988,6.82843 -6.09375,10.51904 h -4.0459 v 12.35742 h -4.91894 v -12.35742 h -7.29346 v 105.94482 h -5.34228 v 6.65772 h 160.6333 v -6.65772 h -5.53565 c 0,-35.31543 0,-70.63085 0,-105.94628 h -7.37842 v 12.35742 h -4.91748 v -12.35742 h -3.78808 c -1.81872,-3.76747 -3.86157,-7.28575 -6.12305,-10.54102 l 5.10938,-3.98877 5.17822,6.28125 7.38428,-6.08643 -16.36377,-19.85156 -7.38428,6.08643 5.26758,6.39111 -4.99805,3.90234 c -3.58096,-3.89343 -7.55491,-7.2702 -11.90479,-10.08544 -0.90404,-0.58512 -1.82975,-1.1378 -2.76562,-1.67432 l 2.8623,-5.77588 7.30664,3.53174 4.16602,-8.61475 -23.16357,-11.19726 -4.16455,8.61474 7.36669,3.56104 -2.89599,5.84179 c -5.4359,-2.07798 -11.29749,-3.44078 -17.55176,-4.04003 v -6.53174 h 8.03906 v -9.56836 z m -52.47949,77.41699 h 0.14648 c 0.65139,0 1.24313,0.26608 1.67285,0.6958 0.42964,0.42964 0.69727,1.02292 0.69727,1.67432 v 12.61377 h -4.66113 v -12.83936 c 0,-0.58926 0.2411,-1.12587 0.62988,-1.51465 0.38879,-0.38878 0.9253,-0.62988 1.51465,-0.62988 z m 14.22363,0 h 0.14648 c 0.6514,0 1.24468,0.26754 1.67432,0.69727 0.42973,0.42964 0.69727,1.02292 0.69727,1.67431 v 12.61377 h -4.6626 v -12.84082 c 0,-0.58926 0.2411,-1.12587 0.62988,-1.51465 0.38886,-0.38878 0.92539,-0.62988 1.51465,-0.62988 z m 103.63623,0 h 0.14648 c 0.65139,0 1.24313,0.26608 1.67286,0.6958 0.42962,0.42964 0.69726,1.02292 0.69726,1.67432 v 12.61377 h -4.66113 v -12.83936 c 0,-0.58926 0.2411,-1.12587 0.62988,-1.51465 0.38879,-0.38878 0.9253,-0.62988 1.51465,-0.62988 z m 14.22363,0 h 0.14649 c 0.6514,0 1.24467,0.26754 1.67431,0.69727 0.42973,0.42964 0.69727,1.02292 0.69727,1.67431 v 12.61377 h -4.6626 v -12.84082 c 0,-0.58926 0.24249,-1.12587 0.63135,-1.51465 0.38878,-0.38878 0.92392,-0.62988 1.51318,-0.62988 z m -83.64697,47.45801 h 0.22559 c 1.61348,0 3.08143,0.66143 4.1455,1.72558 1.06415,1.06407 1.72559,2.53054 1.72559,4.14405 v 28.94677 H 208.76807 V 352.1001 c 0,-1.61367 0.66119,-3.07998 1.72558,-4.14405 1.06416,-1.06415 2.53207,-1.72558 4.14551,-1.72558 z m 35.68799,0 h 0.22558 c 1.60483,0 3.06504,0.66143 4.12354,1.72558 1.05849,1.06407 1.71533,2.53054 1.71533,4.14405 v 28.94677 H 244.48828 V 352.1001 c 0,-1.61367 0.65684,-3.07998 1.71533,-4.14405 1.0585,-1.06415 2.51895,-1.72558 4.12354,-1.72558 z"
         sodipodi:nodetypes="cccccccccccccccccccccccccccccccccccccccccccccccscccccccccccccssssccssssscsccsssssssccssssscsccssssscsccscsssssccsss" />
      <g
         id="g11296">
        <path
           d="m 188.12569,276.45613 h -4.6688 v 4.74313 h 4.6688 z"
           style="fill:#ffdb10;fill-rule:evenodd;stroke-width:1"
           id="path283" />
        <path
           d="m 188.12569,282.10235 h -4.6688 v 5.81492 h 4.6688 z"
           style="fill:#ffdb10;fill-rule:evenodd;stroke-width:1"
           id="path285" />
        <path
           d="m 276.79931,276.45613 v 4.74313 h 4.58477 v -4.74313 z"
           style="fill:#ffdb10;fill-rule:evenodd;stroke-width:1"
           id="path287" />
        <path
           d="m 281.38408,282.10235 h -4.58477 v 5.81492 h 4.58477 z"
           style="fill:#ffdb10;fill-rule:evenodd;stroke-width:1"
           id="path289" />
        <path
           d="m 289.01156,276.45613 v 4.74313 h 4.67781 v -4.74313 z"
           style="fill:#ffdb10;fill-rule:evenodd;stroke-width:1"
           id="path291" />
        <path
           d="m 293.68937,282.10235 h -4.67781 v 5.81492 h 4.67781 z"
           style="fill:#ffdb10;fill-rule:evenodd;stroke-width:1"
           id="path293" />
        <path
           d="m 175.82941,281.19926 v -4.74313 h -4.67781 v 4.74313 z"
           style="fill:#ffdb10;fill-rule:evenodd;stroke-width:1"
           id="path295" />
        <path
           d="m 175.82941,282.10235 h -4.67781 v 5.81492 h 4.67781 z"
           style="fill:#ffdb10;fill-rule:evenodd;stroke-width:1"
           id="path297" />
        <path
           d="m 163.52412,281.19926 v -4.74313 h -4.58477 v 4.74313 z"
           style="fill:#ffdb10;fill-rule:evenodd;stroke-width:1"
           id="path301" />
        <path
           d="m 163.52412,282.10235 h -4.58477 v 5.81492 h 4.58477 z"
           style="fill:#ffdb10;fill-rule:evenodd;stroke-width:1"
           id="path303" />
        <path
           d="m 161.27873,288.82036 h -2.33938 v 3.10365 h 2.33938 z"
           style="fill:#ffdb10;fill-rule:evenodd;stroke-width:1"
           id="path305" />
        <path
           d="m 162.18182,288.82036 v 3.10365 h 11.04408 v -3.10365 z"
           style="fill:#ffdb10;fill-rule:evenodd;stroke-width:1"
           id="path307" />
        <path
           d="m 174.12907,288.82036 v 3.10365 h 10.97 v -3.10365 z"
           style="fill:#ffdb10;fill-rule:evenodd;stroke-width:1"
           id="path309" />
        <path
           d="m 186.00217,288.82036 v 3.10365 h 2.12352 v -3.10365 z"
           style="fill:#ffdb10;fill-rule:evenodd;stroke-width:1"
           id="path311" />
        <path
           d="m 188.12569,292.82718 h -7.72003 v 2.32759 l 0.0774,-6.3e-4 h 0.18384 c 1.23436,0 2.3741,0.42693 3.27768,1.14046 v -0.1014 h 4.18109 z"
           style="fill:#ffdb10;fill-rule:evenodd;stroke-width:1"
           id="path313" />
        <path
           d="m 179.50248,295.24582 v -2.41864 h -11.60666 v 2.53039 c 0.62742,0.17969 1.2084,0.47297 1.71842,0.85546 v -0.0198 h 7.68435 v 0.0303 c 0.63897,-0.4823 1.38929,-0.82392 2.20389,-0.97765 z"
           style="fill:#ffdb10;fill-rule:evenodd;stroke-width:1"
           id="path315" />
        <path
           d="m 166.99265,295.18281 v -2.35563 h -8.0533 v 3.36578 l 4.16413,-0.0117 v 0.0203 c 0.88326,-0.65729 1.97608,-1.04742 3.15517,-1.04742 h 0.18376 c 0.18583,0 0.36919,0.01 0.55024,0.0287 z"
           style="fill:#ffdb10;fill-rule:evenodd;stroke-width:1"
           id="path317" />
        <path
           d="m 160.95263,312.13181 v -11.67173 c 0,-1.27977 0.45951,-2.45766 1.22155,-3.37661 l -3.23483,0.009 v 15.03934 z"
           style="fill:#ffdb10;fill-rule:evenodd;stroke-width:1"
           id="path319" />
        <path
           d="m 163.10308,297.08076 z m -1.47309,3.37932 v 13.29719 h 1.75036 v -12.83975 c 0,-0.77645 0.31741,-1.48248 0.82862,-1.99369 0.51112,-0.51121 1.21716,-0.82862 1.99369,-0.82862 h 0.14608 c 0.83858,0 1.60101,0.34298 2.15308,0.89497 0.55206,0.55207 0.89497,1.31458 0.89497,2.15315 v 12.61394 h 1.6742 v -13.29719 c 0,-1.27228 -0.52108,-2.42971 -1.36014,-3.26868 -0.83873,-0.83882 -1.99616,-1.3599 -3.26844,-1.3599 h -0.18376 c -1.21588,0 -2.32671,0.47504 -3.15557,1.24926 l -0.11382,0.10992 c -0.83858,0.83929 -1.35927,1.99664 -1.35927,3.2694 z"
           style="fill:#ffdb10;fill-rule:evenodd;stroke-width:1"
           id="path321" />
        <path
           d="m 171.74835,300.46008 v 11.67173 h 3.42879 v -11.67173 c 0,-1.27364 0.45521,-2.44683 1.21063,-3.36379 h -5.84917 c 0.75502,0.9172 1.20975,2.08991 1.20975,3.36379 z"
           style="fill:#ffdb10;fill-rule:evenodd;stroke-width:1"
           id="path323" />
        <path
           d="m 175.8545,300.46008 v 13.29719 h 1.75027 v -12.83975 c 0,-0.77645 0.31749,-1.48248 0.82862,-1.99369 0.51121,-0.51121 1.21724,-0.82862 1.99369,-0.82862 h 0.14608 c 0.83858,0 1.60109,0.34298 2.15308,0.89497 0.55207,0.55207 0.89505,1.31458 0.89505,2.15315 v 12.61394 h 1.67421 v -13.29719 c 0,-1.27228 -0.52109,-2.42971 -1.36014,-3.26868 -0.83882,-0.83882 -1.99616,-1.3599 -3.26844,-1.3599 h -0.18384 c -1.27276,0 -2.43011,0.5206 -3.26932,1.35918 -0.83858,0.83929 -1.35926,1.99664 -1.35926,3.2694 z"
           style="fill:#ffdb10;fill-rule:evenodd;stroke-width:1"
           id="path325" />
        <path
           d="m 185.97286,300.46008 v 11.67173 h 2.15283 v -15.03552 h -3.36259 c 0.75502,0.9172 1.20976,2.08991 1.20976,3.36379 z"
           style="fill:#ffdb10;fill-rule:evenodd;stroke-width:1"
           id="path327" />
        <path
           d="m 166.99265,314.43464 h -5.70134 -0.33868 v -0.33869 -1.06096 h -2.01328 v 3.58187 h 8.0533 z"
           style="fill:#ffdb10;fill-rule:evenodd;stroke-width:1"
           id="path329" />
        <path
           d="m 167.89582,314.43464 v 2.18222 h 11.58364 l 0.0215,-2.18222 h -3.98515 -0.33868 v -0.33869 -1.06096 h -3.42879 v 1.06096 0.33869 h -0.33868 z"
           style="fill:#ffdb10;fill-rule:evenodd;stroke-width:1"
           id="path331" />
        <path
           d="m 180.40048,314.43464 -0.0214,2.18222 h 7.74664 v -3.58187 h -2.15283 v 1.06096 0.33869 h -0.33868 z"
           style="fill:#ffdb10;fill-rule:evenodd;stroke-width:1"
           id="path333" />
        <path
           d="m 185.05957,317.51996 h -10.9305 v 4.09483 h 10.9305 z"
           style="fill:#ffdb10;fill-rule:evenodd;stroke-width:1"
           id="path335" />
        <path
           d="m 185.96266,317.51996 v 4.09483 h 2.16303 v -4.09483 z"
           style="fill:#ffdb10;fill-rule:evenodd;stroke-width:1"
           id="path337" />
        <path
           d="m 173.2259,321.61479 v -4.09483 h -11.04408 v 4.09483 z"
           style="fill:#ffdb10;fill-rule:evenodd;stroke-width:1"
           id="path339" />
        <path
           d="m 161.27873,321.61479 v -4.09483 h -2.33938 v 4.09483 z"
           style="fill:#ffdb10;fill-rule:evenodd;stroke-width:1"
           id="path341" />
        <path
           d="m 166.99265,322.51797 h -8.0533 v 4.46967 h 8.0533 z"
           style="fill:#ffdb10;fill-rule:evenodd;stroke-width:1"
           id="path343" />
        <path
           d="m 167.89582,322.51797 v 4.46967 h 11.57711 v -4.46967 z"
           style="fill:#ffdb10;fill-rule:evenodd;stroke-width:1"
           id="path345" />
        <path
           d="m 180.37611,322.51797 v 4.46967 h 7.74958 v -4.46967 z"
           style="fill:#ffdb10;fill-rule:evenodd;stroke-width:1"
           id="path347" />
        <path
           d="m 185.96266,327.89074 v 4.56175 h 2.16303 v -4.56175 z"
           style="fill:#ffdb10;fill-rule:evenodd;stroke-width:1"
           id="path349" />
        <path
           d="m 185.05957,332.45249 v -4.56175 h -10.9305 v 4.56175 z"
           style="fill:#ffdb10;fill-rule:evenodd;stroke-width:1"
           id="path351" />
        <path
           d="m 173.2259,332.45249 v -4.56175 h -11.04408 v 4.56175 z"
           style="fill:#ffdb10;fill-rule:evenodd;stroke-width:1"
           id="path353" />
        <path
           d="m 161.27873,332.45249 v -4.56175 h -2.33938 v 4.56175 z"
           style="fill:#ffdb10;fill-rule:evenodd;stroke-width:1"
           id="path355" />
        <path
           d="m 166.99265,333.35566 h -8.0533 v 4.27342 h 8.0533 z"
           style="fill:#ffdb10;fill-rule:evenodd;stroke-width:1"
           id="path357" />
        <path
           d="m 167.89582,333.35566 v 4.27342 h 11.57711 v -4.27342 z"
           style="fill:#ffdb10;fill-rule:evenodd;stroke-width:1"
           id="path359" />
        <path
           d="m 180.37611,333.35566 v 4.27342 h 7.74958 v -4.27342 z"
           style="fill:#ffdb10;fill-rule:evenodd;stroke-width:1"
           id="path361" />
        <path
           d="m 185.96266,338.53225 v 4.75794 h 2.16303 v -4.75794 z"
           style="fill:#ffdb10;fill-rule:evenodd;stroke-width:1"
           id="path363" />
        <path
           d="m 185.05957,343.29019 v -4.75794 h -10.9305 v 4.75794 z"
           style="fill:#ffdb10;fill-rule:evenodd;stroke-width:1"
           id="path365" />
        <path
           d="m 173.2259,343.29019 v -4.75794 h -11.04408 v 4.75794 z"
           style="fill:#ffdb10;fill-rule:evenodd;stroke-width:1"
           id="path367" />
        <path
           d="m 161.27873,343.29019 v -4.75794 h -2.33938 v 4.75794 z"
           style="fill:#ffdb10;fill-rule:evenodd;stroke-width:1"
           id="path369" />
        <path
           d="m 166.99265,344.19336 h -8.0533 v 4.331 h 8.0533 z"
           style="fill:#ffdb10;fill-rule:evenodd;stroke-width:1"
           id="path371" />
        <path
           d="m 167.89582,344.19336 v 4.331 h 11.57711 v -4.331 z"
           style="fill:#ffdb10;fill-rule:evenodd;stroke-width:1"
           id="path373" />
        <path
           d="m 180.37611,344.19336 v 4.331 h 7.74958 v -4.331 z"
           style="fill:#ffdb10;fill-rule:evenodd;stroke-width:1"
           id="path375" />
        <path
           d="m 185.96266,349.42754 v 4.14382 h 2.16303 v -4.14382 z"
           style="fill:#ffdb10;fill-rule:evenodd;stroke-width:1"
           id="path377" />
        <path
           d="m 185.05957,353.57136 v -4.14382 h -10.9305 v 4.14382 z"
           style="fill:#ffdb10;fill-rule:evenodd;stroke-width:1"
           id="path379" />
        <path
           d="m 173.2259,353.57136 v -4.14382 h -11.04408 v 4.14382 z"
           style="fill:#ffdb10;fill-rule:evenodd;stroke-width:1"
           id="path381" />
        <path
           d="m 161.27873,353.57136 v -4.14382 h -2.33938 v 4.14382 z"
           style="fill:#ffdb10;fill-rule:evenodd;stroke-width:1"
           id="path383" />
        <path
           d="m 166.99265,354.47445 h -8.0533 v 4.69724 h 8.0533 z"
           style="fill:#ffdb10;fill-rule:evenodd;stroke-width:1"
           id="path385" />
        <path
           d="m 167.89582,354.47445 v 4.69724 h 11.57711 v -4.69724 z"
           style="fill:#ffdb10;fill-rule:evenodd;stroke-width:1"
           id="path387" />
        <path
           d="m 180.37611,354.47445 v 4.69724 h 7.74958 v -4.69724 z"
           style="fill:#ffdb10;fill-rule:evenodd;stroke-width:1"
           id="path389" />
        <path
           d="m 186.05434,360.07487 v 3.88264 h 2.07135 v -3.88264 z"
           style="fill:#ffdb10;fill-rule:evenodd;stroke-width:1"
           id="path391" />
        <path
           d="m 185.15125,363.95751 v -3.88264 h -11.02218 v 3.88264 z"
           style="fill:#ffdb10;fill-rule:evenodd;stroke-width:1"
           id="path393" />
        <path
           d="m 173.2259,363.95751 v -3.88264 h -11.04408 v 3.88264 z"
           style="fill:#ffdb10;fill-rule:evenodd;stroke-width:1"
           id="path395" />
        <path
           d="m 161.27873,363.95751 v -3.88264 h -2.33938 v 3.88264 z"
           style="fill:#ffdb10;fill-rule:evenodd;stroke-width:1"
           id="path397" />
        <path
           d="m 166.99265,364.8606 h -8.0533 v 4.69724 h 8.0533 z"
           style="fill:#ffdb10;fill-rule:evenodd;stroke-width:1"
           id="path399" />
        <path
           d="m 167.89582,364.8606 v 4.69724 h 11.57711 v -4.69724 z"
           style="fill:#ffdb10;fill-rule:evenodd;stroke-width:1"
           id="path401" />
        <path
           d="m 180.37611,364.8606 v 4.69724 h 7.74958 v -4.69724 z"
           style="fill:#ffdb10;fill-rule:evenodd;stroke-width:1"
           id="path403" />
        <path
           d="m 189.48042,364.90935 v 4.67605 h 3.0294 v -4.64801 z"
           style="fill:#ffdb10;fill-rule:evenodd;stroke-width:1"
           id="path405" />
        <path
           d="m 193.41292,364.94599 v 4.63941 h 2.82956 v -4.61328 z"
           style="fill:#ffdb10;fill-rule:evenodd;stroke-width:1"
           id="path407" />
        <path
           d="m 161.27873,375.92411 v -5.46309 h -2.33938 v 5.46309 z"
           style="fill:#ffdb10;fill-rule:evenodd;stroke-width:1"
           id="path409" />
        <path
           d="m 162.18182,370.46102 v 5.46309 h 11.04408 v -5.46309 z"
           style="fill:#ffdb10;fill-rule:evenodd;stroke-width:1"
           id="path411" />
        <path
           d="m 174.12907,370.46102 v 5.46309 h 10.9305 v -5.46309 z"
           style="fill:#ffdb10;fill-rule:evenodd;stroke-width:1"
           id="path413" />
        <path
           d="m 185.96266,370.46102 v 5.46309 h 2.16303 v -5.46309 z"
           style="fill:#ffdb10;fill-rule:evenodd;stroke-width:1"
           id="path415" />
        <path
           d="m 189.48042,370.48858 v 5.48245 h 6.76206 v -5.48245 z"
           style="fill:#ffdb10;fill-rule:evenodd;stroke-width:1"
           id="path417" />
        <path
           d="m 193.41881,376.8742 0.0447,4.1721 h 2.77898 v -4.1721 z"
           style="fill:#ffdb10;fill-rule:evenodd;stroke-width:1"
           id="path419" />
        <path
           d="m 192.56399,381.0463 -0.0449,-4.1721 h -3.03864 v 4.1721 z"
           style="fill:#ffdb10;fill-rule:evenodd;stroke-width:1"
           id="path421" />
        <path
           d="m 188.12569,381.0463 v -4.21909 h -7.74958 v 4.21909 z"
           style="fill:#ffdb10;fill-rule:evenodd;stroke-width:1"
           id="path423" />
        <path
           d="m 179.47293,381.0463 v -4.21909 h -11.57711 v 4.21909 z"
           style="fill:#ffdb10;fill-rule:evenodd;stroke-width:1"
           id="path425" />
        <path
           d="m 166.99265,381.0463 v -4.21909 h -8.0533 v 4.21909 z"
           style="fill:#ffdb10;fill-rule:evenodd;stroke-width:1"
           id="path427" />
        <path
           d="m 189.48042,376.8742 v 4.1721 h 3.08357 l -0.0449,-4.1721 z"
           style="fill:#ffdb10;fill-rule:evenodd;stroke-width:1"
           id="path429" />
        <path
           d="m 193.41881,376.8742 0.0447,4.1721 h 2.77898 v -4.1721 z"
           style="fill:#ffdb10;fill-rule:evenodd;stroke-width:1"
           id="path431" />
        <path
           d="m 189.48042,375.97103 h 6.76206 v -5.48245 h -6.76206 z"
           style="fill:#ffdb10;fill-rule:evenodd;stroke-width:1"
           id="path433" />
        <path
           d="m 189.48042,369.5854 h 3.0294 v -4.64801 l -3.0294,-0.028 z"
           style="fill:#ffdb10;fill-rule:evenodd;stroke-width:1"
           id="path435" />
        <path
           d="m 193.41292,364.94599 v 4.63941 h 2.82956 v -4.61328 z"
           style="fill:#ffdb10;fill-rule:evenodd;stroke-width:1"
           id="path437" />
        <path
           d="m 189.48042,364.00984 6.76206,0.0628 v -4.196 h -6.76206 z"
           style="fill:#ffdb10;fill-rule:evenodd;stroke-width:1"
           id="path439" />
        <path
           d="m 189.48042,358.97352 h 3.09081 v -4.67789 h -3.09081 z"
           style="fill:#ffdb10;fill-rule:evenodd;stroke-width:1"
           id="path441" />
        <path
           d="m 193.47433,354.29563 v 4.67789 h 2.76815 v -4.67789 z"
           style="fill:#ffdb10;fill-rule:evenodd;stroke-width:1"
           id="path443" />
        <path
           d="m 189.48042,353.39254 h 6.76206 v -2.60693 c 0,-0.49178 0.0196,-0.97925 0.0578,-1.46154 h -6.81988 z"
           style="fill:#ffdb10;fill-rule:evenodd;stroke-width:1"
           id="path445" />
        <path
           d="m 189.48042,348.42098 h 3.09081 v -4.28568 h -3.09081 z"
           style="fill:#ffdb10;fill-rule:evenodd;stroke-width:1"
           id="path447" />
        <path
           d="m 193.47433,344.1353 v 4.28568 h 2.91965 c 0.19212,-1.48998 0.56329,-2.92594 1.09051,-4.28568 z"
           style="fill:#ffdb10;fill-rule:evenodd;stroke-width:1"
           id="path449" />
        <path
           d="m 189.48042,343.2322 h 8.38226 c 0.24366,-0.54052 0.51232,-1.06734 0.80472,-1.57918 v -3.29011 h -9.18698 z"
           style="fill:#ffdb10;fill-rule:evenodd;stroke-width:1"
           id="path451" />
        <path
           d="m 199.57058,338.36291 v 1.86362 c 0.45609,-0.65299 0.95304,-1.27547 1.48718,-1.86362 z"
           style="fill:#ffdb10;fill-rule:evenodd;stroke-width:1"
           id="path453" />
        <path
           d="m 192.57123,337.45974 v -3.93633 h -3.09081 v 3.93633 z"
           style="fill:#ffdb10;fill-rule:evenodd;stroke-width:1"
           id="path455" />
        <path
           d="m 193.47433,333.52341 v 3.93633 h 8.46088 c 1.75481,-1.68911 3.83971,-3.03793 6.1454,-3.93633 z"
           style="fill:#ffdb10;fill-rule:evenodd;stroke-width:1"
           id="path457" />
        <path
           d="m 189.48042,332.62024 h 9.18698 v -4.89749 h -9.18698 z"
           style="fill:#ffdb10;fill-rule:evenodd;stroke-width:1"
           id="path459" />
        <path
           d="m 199.57058,327.72275 v 4.89749 h 11.61144 c 1.02775,-0.2032 2.08513,-0.32084 3.16457,-0.3445 v -4.55299 z"
           style="fill:#ffdb10;fill-rule:evenodd;stroke-width:1"
           id="path461" />
        <path
           d="m 275.44458,382.40094 h -85.96416 -0.67737 -30.54106 -0.67737 -3.98762 v 3.94724 h 157.92519 v -3.94724 h -4.18181 z"
           style="fill:#ffdb10;fill-rule:evenodd;stroke-width:1"
           id="path463" />
        <path
           d="m 207.41408,381.0463 v -4.23645 h -9.81688 v 4.23645 z"
           style="fill:#ffdb10;fill-rule:evenodd;stroke-width:1"
           id="path465" />
        <path
           d="m 197.5972,375.90675 h 9.81688 v -6.40554 l -9.81688,0.0178 z"
           style="fill:#ffdb10;fill-rule:evenodd;stroke-width:1"
           id="path467" />
        <path
           d="m 197.5972,368.61946 9.81688,-0.0178 v -6.46783 h -9.81688 z"
           style="fill:#ffdb10;fill-rule:evenodd;stroke-width:1"
           id="path469" />
        <path
           d="m 197.5972,361.2307 h 9.81688 v -6.38523 h -9.81688 z"
           style="fill:#ffdb10;fill-rule:evenodd;stroke-width:1"
           id="path471" />
        <path
           d="m 197.5972,353.9423 h 9.81688 v -1.84148 c 0,-0.71822 0.10617,-1.41319 0.30371,-2.06936 l -8.53424,-6.42967 c -1.0174,2.18852 -1.58635,4.62292 -1.58635,7.18382 z"
           style="fill:#ffdb10;fill-rule:evenodd;stroke-width:1"
           id="path473" />
        <path
           d="m 199.59248,342.78057 8.45491,6.36986 c 0.36353,-0.80624 0.87068,-1.53506 1.48862,-2.15284 0.5132,-0.5132 1.10278,-0.95009 1.74987,-1.29171 l -4.53984,-10.08133 c -1.5173,0.80767 -2.90141,1.8363 -4.10774,3.04247 -1.20792,1.20793 -2.23775,2.59379 -3.04582,4.11355 z"
           style="fill:#ffdb10;fill-rule:evenodd;stroke-width:1"
           id="path475" />
        <path
           d="m 207.55315,335.22175 4.55458,10.11406 c 0.78864,-0.29734 1.64187,-0.46015 2.53151,-0.46015 h 0.22621 c 0.95463,0 1.86752,0.18766 2.70355,0.5277 l 4.83862,-10.04907 c -2.26443,-1.10636 -4.80405,-1.72837 -7.4814,-1.72837 h -0.16934 c -2.56854,0 -5.01019,0.57262 -7.20373,1.59583 z"
           style="fill:#ffdb10;fill-rule:evenodd;stroke-width:1"
           id="path477" />
        <path
           d="m 223.20685,335.77111 -4.82612,10.02302 c 0.58361,0.32745 1.11784,0.73336 1.58795,1.20346 0.62064,0.62073 1.12986,1.35337 1.49355,2.16415 1.5243,-1.14293 6.89707,-5.27098 8.54444,-6.53736 -0.79501,-1.45883 -1.79568,-2.79093 -2.96186,-3.95736 -1.13441,-1.13432 -2.42589,-2.11173 -3.83796,-2.89591 z"
           style="fill:#ffdb10;fill-rule:evenodd;stroke-width:1"
           id="path479" />
        <path
           d="m 230.42253,343.43874 c -1.81551,1.39064 -7.10186,5.43585 -8.64265,6.57042 0.20192,0.66286 0.31073,1.36507 0.31073,2.09166 v 1.84148 h 9.93882 v -3.15669 c 0,-0.33645 0.009,-0.67059 0.0271,-1.00274 -0.13182,-2.25647 -0.70484,-4.39982 -1.63398,-6.34413 z"
           style="fill:#ffdb10;fill-rule:evenodd;stroke-width:1"
           id="path481" />
        <path
           d="m 232.02943,354.84547 h -9.93882 v 6.38523 h 9.93882 z"
           style="fill:#ffdb10;fill-rule:evenodd;stroke-width:1"
           id="path483" />
        <path
           d="m 232.02943,362.13379 h -9.93882 v 6.46472 h 9.93882 z"
           style="fill:#ffdb10;fill-rule:evenodd;stroke-width:1"
           id="path485" />
        <path
           d="m 232.02943,369.50161 h -9.93882 v 6.40514 h 9.93882 z"
           style="fill:#ffdb10;fill-rule:evenodd;stroke-width:1"
           id="path487" />
        <path
           d="m 232.02943,376.80985 h -9.93882 v 4.23645 h 9.93882 z"
           style="fill:#ffdb10;fill-rule:evenodd;stroke-width:1"
           id="path489" />
        <path
           d="m 233.44063,376.80985 v 4.23645 h 9.70058 v -4.23645 z"
           style="fill:#ffdb10;fill-rule:evenodd;stroke-width:1"
           id="path491" />
        <path
           d="m 233.44063,375.90675 h 9.70058 v -6.40554 l -9.70058,0.0176 z"
           style="fill:#ffdb10;fill-rule:evenodd;stroke-width:1"
           id="path493" />
        <path
           d="m 233.44063,368.61922 9.70058,-0.0176 v -6.46783 h -9.70058 z"
           style="fill:#ffdb10;fill-rule:evenodd;stroke-width:1"
           id="path495" />
        <path
           d="m 233.44063,361.2307 h 9.70058 v -6.38523 h -9.70058 z"
           style="fill:#ffdb10;fill-rule:evenodd;stroke-width:1"
           id="path497" />
        <path
           d="m 233.44063,353.9423 h 9.70058 v -1.84148 c 0,-0.71822 0.1057,-1.41319 0.30212,-2.06936 l -8.4886,-6.42967 c -0.87067,1.88257 -1.41095,3.94739 -1.54509,6.11791 0.0204,0.35286 0.031,0.70827 0.031,1.06591 z"
           style="fill:#ffdb10;fill-rule:evenodd;stroke-width:1"
           id="path499" />
        <path
           d="m 235.3616,342.78057 8.40958,6.36986 c 0.3617,-0.80624 0.86614,-1.53506 1.48073,-2.15284 0.51049,-0.5132 1.09681,-0.95009 1.74056,-1.29171 l -4.51571,-10.08133 c -1.50917,0.80767 -2.88572,1.8363 -4.0856,3.04247 -1.20163,1.20793 -2.2258,2.59379 -3.02956,4.11355 z"
           style="fill:#ffdb10;fill-rule:evenodd;stroke-width:1"
           id="path501" />
        <path
           d="m 243.27965,335.22175 4.53013,10.11406 c 0.78465,-0.29734 1.63311,-0.46015 2.51796,-0.46015 h 0.22518 c 0.94937,0 1.85748,0.18766 2.68905,0.5277 l 4.81266,-10.04907 c -2.25224,-1.10636 -4.77833,-1.72837 -7.4415,-1.72837 h -0.16814 c -2.555,0 -4.98359,0.57262 -7.16534,1.59583 z"
           style="fill:#ffdb10;fill-rule:evenodd;stroke-width:1"
           id="path503" />
        <path
           d="m 258.84955,335.77111 -4.80015,10.02302 c 0.58051,0.32745 1.11179,0.73336 1.57934,1.20346 0.61731,0.62073 1.12374,1.35337 1.48567,2.16415 1.51618,-1.14293 6.86004,-5.27098 8.49856,-6.53736 -0.79071,-1.45883 -1.78596,-2.79093 -2.94601,-3.95736 -1.12827,-1.13432 -2.41274,-2.11173 -3.81741,-2.89591 z"
           style="fill:#ffdb10;fill-rule:evenodd;stroke-width:1"
           id="path505" />
        <path
           d="m 266.0266,343.43874 c -1.80579,1.39064 -7.0637,5.43585 -8.59629,6.57042 0.20073,0.66286 0.30905,1.36507 0.30905,2.09166 v 1.84148 h 9.94186 v -3.15669 c 0,-2.62454 -0.59453,-5.11653 -1.65462,-7.34687 z"
           style="fill:#ffdb10;fill-rule:evenodd;stroke-width:1"
           id="path507" />
        <path
           d="m 267.68122,354.84547 h -9.94186 v 6.38523 h 9.94186 z"
           style="fill:#ffdb10;fill-rule:evenodd;stroke-width:1"
           id="path509" />
        <path
           d="m 267.68122,362.13379 h -9.94186 v 6.46472 h 9.94186 z"
           style="fill:#ffdb10;fill-rule:evenodd;stroke-width:1"
           id="path511" />
        <path
           d="m 267.68122,369.50161 h -9.94186 v 6.40514 h 9.94186 z"
           style="fill:#ffdb10;fill-rule:evenodd;stroke-width:1"
           id="path513" />
        <path
           d="m 267.68122,376.80985 h -9.94186 v 4.23645 h 9.94186 z"
           style="fill:#ffdb10;fill-rule:evenodd;stroke-width:1"
           id="path515" />
        <path
           id="path9570"
           style="fill:#ffdb10;fill-rule:evenodd;stroke-width:1"
           d="m 189.48047,295.00195 v 15.98877 h 85.96435 v -15.95947 z" />
        <path
           id="path10431"
           style="fill:#ffdb10;fill-rule:evenodd;stroke-width:1"
           d="m 275.4375,327.72217 h -8.78174 v 4.89843 h 8.78906 z m 0.007,-15.8291 h -85.96435 v 14.92675 h 85.95703 z"
           sodipodi:nodetypes="cccccccccc" />
        <path
           d="m 232.23852,332.62024 v -4.89749 h -16.98875 v 4.5514 c 1.10971,0.0194 2.19601,0.13748 3.25132,0.34609 z"
           style="fill:#ffdb10;fill-rule:evenodd;stroke-width:1"
           id="path529" />
        <path
           d="m 233.14169,327.72275 v 4.89749 h 13.74739 c 0.87131,-0.17317 1.76429,-0.2842 2.67392,-0.32777 v -4.56972 z"
           style="fill:#ffdb10;fill-rule:evenodd;stroke-width:1"
           id="path531" />
        <path
           d="m 232.23852,333.52341 h -10.6361 c 2.30577,0.8984 4.39066,2.24722 6.14547,3.93633 h 4.49063 z"
           style="fill:#ffdb10;fill-rule:evenodd;stroke-width:1"
           id="path533" />
        <path
           d="m 233.14169,333.52341 v 3.93633 h 4.54997 c 1.74557,-1.68911 3.81939,-3.03793 6.11274,-3.93633 z"
           style="fill:#ffdb10;fill-rule:evenodd;stroke-width:1"
           id="path535" />
        <path
           d="m 236.81883,338.36291 h -8.19357 c 1.3051,1.43708 2.38861,3.07879 3.19532,4.86929 h 1.82053 c 0.80218,-1.79074 1.87963,-3.43245 3.17772,-4.86929 z"
           style="fill:#ffdb10;fill-rule:evenodd;stroke-width:1"
           id="path537" />
        <path
           d="m 233.26491,344.1353 h -1.06614 c 0.20144,0.51885 0.38002,1.04877 0.53447,1.5889 0.15349,-0.54013 0.33143,-1.07005 0.53167,-1.5889 z"
           style="fill:#ffdb10;fill-rule:evenodd;stroke-width:1"
           id="path539" />
        <path
           d="m 264.23929,338.36291 c 0.54442,0.60281 1.0499,1.24162 1.51275,1.91237 v -1.91237 z"
           style="fill:#ffdb10;fill-rule:evenodd;stroke-width:1"
           id="path541" />
        <path
           d="m 250.61313,332.2712 c 1.21565,0 2.40462,0.12012 3.55591,0.34904 h 11.583 v -4.89749 h -15.28586 v 4.54845 z"
           style="fill:#ffdb10;fill-rule:evenodd;stroke-width:1"
           id="path543" />
        <path
           d="m 257.25373,333.52341 c 2.29334,0.8984 4.36716,2.24722 6.11273,3.93633 h 8.3845 v -3.93633 z"
           style="fill:#ffdb10;fill-rule:evenodd;stroke-width:1"
           id="path545" />
        <path
           d="m 272.65413,333.52341 v 3.93633 h 2.79045 v -3.93633 z"
           style="fill:#ffdb10;fill-rule:evenodd;stroke-width:1"
           id="path549" />
        <path
           d="m 275.44458,338.36291 h -8.78936 v 3.35829 c 0.27591,0.49042 0.53016,0.99438 0.76155,1.511 h 8.02781 z"
           style="fill:#ffdb10;fill-rule:evenodd;stroke-width:1"
           id="path551" />
        <path
           d="m 271.75096,344.1353 h -3.95775 c 0.52466,1.35974 0.89385,2.7957 1.08486,4.28568 h 2.87289 z"
           style="fill:#ffdb10;fill-rule:evenodd;stroke-width:1"
           id="path553" />
        <path
           d="m 272.65413,344.1353 v 4.28568 h 2.79045 v -4.28568 z"
           style="fill:#ffdb10;fill-rule:evenodd;stroke-width:1"
           id="path555" />
        <path
           d="m 275.44458,349.32407 h -6.47348 c 0.0379,0.48229 0.0576,0.96976 0.0576,1.46154 v 8.18791 h 2.72227 v -4.67789 h -2.70761 v -0.90309 h 6.40123 z"
           style="fill:#ffdb10;fill-rule:evenodd;stroke-width:1"
           id="path557" />
        <path
           d="m 275.44458,354.29563 h -2.79045 v 4.67789 h 2.79045 z"
           style="fill:#ffdb10;fill-rule:evenodd;stroke-width:1"
           id="path559" />
        <path
           d="m 275.44458,359.87661 h -6.41589 v 4.20237 h 6.41589 z"
           style="fill:#ffdb10;fill-rule:evenodd;stroke-width:1"
           id="path561" />
        <path
           d="m 271.75096,364.98207 h -2.72227 v 4.60333 h 2.72227 z"
           style="fill:#ffdb10;fill-rule:evenodd;stroke-width:1"
           id="path563" />
        <path
           d="m 272.65413,364.98207 v 4.60333 h 2.79045 v -4.60333 z"
           style="fill:#ffdb10;fill-rule:evenodd;stroke-width:1"
           id="path565" />
        <path
           d="m 271.75096,376.8742 h -2.72227 v 4.1721 h 2.72227 z"
           style="fill:#ffdb10;fill-rule:evenodd;stroke-width:1"
           id="path567" />
        <path
           d="m 272.65413,376.8742 v 4.1721 h 2.79045 v -4.1721 z"
           style="fill:#ffdb10;fill-rule:evenodd;stroke-width:1"
           id="path569" />
        <path
           d="m 269.02869,375.97103 h 6.41589 v -5.48245 h -6.41589 z"
           style="fill:#ffdb10;fill-rule:evenodd;stroke-width:1"
           id="path571" />
        <path
           d="m 301.31685,281.19926 h 4.6688 v -4.74313 h -4.6688 z"
           style="fill:#ffdb10;fill-rule:evenodd;stroke-width:1"
           id="path573" />
        <path
           d="m 305.98565,282.10235 h -4.6688 v 5.81492 h 4.6688 z"
           style="fill:#ffdb10;fill-rule:evenodd;stroke-width:1"
           id="path575" />
        <path
           d="m 279.13869,291.92401 v -3.10365 h -2.33938 v 3.10365 z"
           style="fill:#ffdb10;fill-rule:evenodd;stroke-width:1"
           id="path577" />
        <path
           d="m 280.04178,288.82036 v 3.10365 h 11.04408 v -3.10365 z"
           style="fill:#ffdb10;fill-rule:evenodd;stroke-width:1"
           id="path579" />
        <path
           d="m 291.98903,288.82036 v 3.10365 h 10.97 v -3.10365 z"
           style="fill:#ffdb10;fill-rule:evenodd;stroke-width:1"
           id="path581" />
        <path
           d="m 303.86213,288.82036 v 3.10365 h 2.12352 v -3.10365 z"
           style="fill:#ffdb10;fill-rule:evenodd;stroke-width:1"
           id="path583" />
        <path
           d="m 305.98565,292.82718 h -7.72003 v 2.32759 l 0.0774,-6.3e-4 h 0.18383 c 1.23437,0 2.37411,0.42693 3.27769,1.14046 v -0.1014 h 4.18109 z"
           style="fill:#ffdb10;fill-rule:evenodd;stroke-width:1"
           id="path585" />
        <path
           d="m 297.36244,295.24582 v -2.41864 h -11.60666 v 2.53039 c 0.62742,0.17969 1.2084,0.47297 1.71842,0.85546 v -0.0198 h 7.68435 v 0.0303 c 0.63905,-0.4823 1.38929,-0.82392 2.20389,-0.97765 z"
           style="fill:#ffdb10;fill-rule:evenodd;stroke-width:1"
           id="path587" />
        <path
           d="m 284.85261,295.18281 v -2.35563 h -8.0533 v 3.36578 l 4.16413,-0.0117 v 0.0203 c 0.88326,-0.65729 1.97608,-1.04742 3.15517,-1.04742 h 0.18376 c 0.18583,0 0.36919,0.01 0.55024,0.0287 z"
           style="fill:#ffdb10;fill-rule:evenodd;stroke-width:1"
           id="path589" />
        <path
           d="m 278.81259,312.13181 v -11.67173 c 0,-1.27977 0.45951,-2.45766 1.22155,-3.37661 l -3.23483,0.009 v 15.03934 z"
           style="fill:#ffdb10;fill-rule:evenodd;stroke-width:1"
           id="path591" />
        <path
           d="m 280.96304,297.08076 z m -1.47309,3.37932 v 13.29719 h 1.75036 v -12.83975 c 0,-0.77645 0.31741,-1.48248 0.82862,-1.99369 0.51112,-0.51121 1.21716,-0.82862 1.99369,-0.82862 h 0.14608 c 0.83858,0 1.60101,0.34298 2.15307,0.89497 0.55207,0.55207 0.89498,1.31458 0.89498,2.15315 v 12.61394 h 1.6742 v -13.29719 c 0,-1.27228 -0.52108,-2.42971 -1.36014,-3.26868 -0.83873,-0.83882 -1.99616,-1.3599 -3.26844,-1.3599 h -0.18376 c -1.21589,0 -2.32671,0.47504 -3.15557,1.24926 l -0.11382,0.10992 c -0.83858,0.83929 -1.35927,1.99664 -1.35927,3.2694 z"
           style="fill:#ffdb10;fill-rule:evenodd;stroke-width:1"
           id="path593" />
        <path
           d="m 289.60831,300.46008 v 11.67173 h 3.42879 v -11.67173 c 0,-1.27364 0.45521,-2.44683 1.21071,-3.36379 h -5.84925 c 0.75502,0.9172 1.20975,2.08991 1.20975,3.36379 z"
           style="fill:#ffdb10;fill-rule:evenodd;stroke-width:1"
           id="path595" />
        <path
           d="m 293.71446,300.46008 v 13.29719 h 1.75027 v -12.83975 c 0,-0.77645 0.31749,-1.48248 0.82862,-1.99369 0.51121,-0.51121 1.21724,-0.82862 1.99369,-0.82862 h 0.14608 c 0.83858,0 1.60109,0.34298 2.15316,0.89497 0.55199,0.55207 0.89497,1.31458 0.89497,2.15315 v 12.61394 h 1.67421 v -13.29719 c 0,-1.27228 -0.52109,-2.42971 -1.36014,-3.26868 -0.83882,-0.83882 -1.99616,-1.3599 -3.26845,-1.3599 h -0.18383 c -1.27276,0 -2.43011,0.5206 -3.26932,1.35918 -0.83858,0.83929 -1.35926,1.99664 -1.35926,3.2694 z"
           style="fill:#ffdb10;fill-rule:evenodd;stroke-width:1"
           id="path597" />
        <path
           d="m 303.83282,300.46008 v 11.67173 h 2.15283 v -15.03552 h -3.36259 c 0.75502,0.9172 1.20976,2.08991 1.20976,3.36379 z"
           style="fill:#ffdb10;fill-rule:evenodd;stroke-width:1"
           id="path599" />
        <path
           d="m 303.49414,314.43464 h -5.2337 l -0.0214,2.18222 h 7.74664 v -3.58187 h -2.15283 v 1.06096 0.33869 z"
           style="fill:#ffdb10;fill-rule:evenodd;stroke-width:1"
           id="path601" />
        <path
           d="m 297.33942,316.61686 0.0215,-2.18222 h -3.98515 -0.33868 v -0.33869 -1.06096 h -3.42879 v 1.06096 0.33869 h -0.33868 -3.51385 v 2.18222 z"
           style="fill:#ffdb10;fill-rule:evenodd;stroke-width:1"
           id="path603" />
        <path
           d="m 284.85261,316.61686 v -2.18222 h -5.70134 -0.33868 v -0.33869 -1.06096 h -2.01328 v 3.58187 z"
           style="fill:#ffdb10;fill-rule:evenodd;stroke-width:1"
           id="path605" />
        <path
           d="m 279.13869,321.61479 v -4.09483 h -2.33938 v 4.09483 z"
           style="fill:#ffdb10;fill-rule:evenodd;stroke-width:1"
           id="path607" />
        <path
           d="m 280.04178,317.51996 v 4.09483 h 11.04408 v -4.09483 z"
           style="fill:#ffdb10;fill-rule:evenodd;stroke-width:1"
           id="path609" />
        <path
           d="m 291.98903,317.51996 v 4.09483 h 10.9305 v -4.09483 z"
           style="fill:#ffdb10;fill-rule:evenodd;stroke-width:1"
           id="path611" />
        <path
           d="m 303.82262,317.51996 v 4.09483 h 2.16303 v -4.09483 z"
           style="fill:#ffdb10;fill-rule:evenodd;stroke-width:1"
           id="path613" />
        <path
           d="m 305.98565,322.51797 h -7.74958 v 4.46967 h 7.74958 z"
           style="fill:#ffdb10;fill-rule:evenodd;stroke-width:1"
           id="path615" />
        <path
           d="m 297.33289,326.98764 v -4.46967 h -11.57711 v 4.46967 z"
           style="fill:#ffdb10;fill-rule:evenodd;stroke-width:1"
           id="path617" />
        <path
           d="m 284.85261,326.98764 v -4.46967 h -8.0533 v 4.46967 z"
           style="fill:#ffdb10;fill-rule:evenodd;stroke-width:1"
           id="path619" />
        <path
           d="m 279.13869,332.45249 v -4.56175 h -2.33938 v 4.56175 z"
           style="fill:#ffdb10;fill-rule:evenodd;stroke-width:1"
           id="path621" />
        <path
           d="m 280.04178,327.89074 v 4.56175 h 11.04408 v -4.56175 z"
           style="fill:#ffdb10;fill-rule:evenodd;stroke-width:1"
           id="path623" />
        <path
           d="m 291.98903,327.89074 v 4.56175 h 10.9305 v -4.56175 z"
           style="fill:#ffdb10;fill-rule:evenodd;stroke-width:1"
           id="path625" />
        <path
           d="m 303.82262,327.89074 v 4.56175 h 2.16303 v -4.56175 z"
           style="fill:#ffdb10;fill-rule:evenodd;stroke-width:1"
           id="path627" />
        <path
           d="m 284.85261,337.62908 v -4.27342 h -8.0533 v 4.27342 z"
           style="fill:#ffdb10;fill-rule:evenodd;stroke-width:1"
           id="path629" />
        <path
           d="m 285.75578,333.35566 v 4.27342 h 11.57711 v -4.27342 z"
           style="fill:#ffdb10;fill-rule:evenodd;stroke-width:1"
           id="path631" />
        <path
           d="m 298.23607,333.35566 v 4.27342 h 7.74958 v -4.27342 z"
           style="fill:#ffdb10;fill-rule:evenodd;stroke-width:1"
           id="path633" />
        <path
           d="m 303.82262,338.53225 v 4.75794 h 2.16303 v -4.75794 z"
           style="fill:#ffdb10;fill-rule:evenodd;stroke-width:1"
           id="path635" />
        <path
           d="m 302.91953,343.29019 v -4.75794 h -10.9305 v 4.75794 z"
           style="fill:#ffdb10;fill-rule:evenodd;stroke-width:1"
           id="path637" />
        <path
           d="m 291.08586,343.29019 v -4.75794 h -11.04408 v 4.75794 z"
           style="fill:#ffdb10;fill-rule:evenodd;stroke-width:1"
           id="path639" />
        <path
           d="m 279.13869,343.29019 v -4.75794 h -2.33938 v 4.75794 z"
           style="fill:#ffdb10;fill-rule:evenodd;stroke-width:1"
           id="path641" />
        <path
           d="m 284.85261,344.19336 h -8.0533 v 4.331 h 8.0533 z"
           style="fill:#ffdb10;fill-rule:evenodd;stroke-width:1"
           id="path643" />
        <path
           d="m 285.75578,344.19336 v 4.331 h 11.57711 v -4.331 z"
           style="fill:#ffdb10;fill-rule:evenodd;stroke-width:1"
           id="path645" />
        <path
           d="m 298.23607,344.19336 v 4.331 h 7.74958 v -4.331 z"
           style="fill:#ffdb10;fill-rule:evenodd;stroke-width:1"
           id="path647" />
        <path
           d="m 303.82262,349.42754 v 4.14382 h 2.16303 v -4.14382 z"
           style="fill:#ffdb10;fill-rule:evenodd;stroke-width:1"
           id="path649" />
        <path
           d="m 302.91953,353.57136 v -4.14382 h -10.9305 v 4.14382 z"
           style="fill:#ffdb10;fill-rule:evenodd;stroke-width:1"
           id="path651" />
        <path
           d="m 291.08586,353.57136 v -4.14382 h -11.04408 v 4.14382 z"
           style="fill:#ffdb10;fill-rule:evenodd;stroke-width:1"
           id="path653" />
        <path
           d="m 279.13869,353.57136 v -4.14382 h -2.33938 v 4.14382 z"
           style="fill:#ffdb10;fill-rule:evenodd;stroke-width:1"
           id="path655" />
        <path
           d="m 284.85261,354.47445 h -8.0533 v 4.69724 h 8.0533 z"
           style="fill:#ffdb10;fill-rule:evenodd;stroke-width:1"
           id="path657" />
        <path
           d="m 285.75578,354.47445 v 4.69724 h 11.57711 v -4.69724 z"
           style="fill:#ffdb10;fill-rule:evenodd;stroke-width:1"
           id="path659" />
        <path
           d="m 298.23607,354.47445 v 4.69724 h 7.74958 v -4.69724 z"
           style="fill:#ffdb10;fill-rule:evenodd;stroke-width:1"
           id="path661" />
        <path
           d="m 303.9143,360.07487 v 3.88264 h 2.07135 v -3.88264 z"
           style="fill:#ffdb10;fill-rule:evenodd;stroke-width:1"
           id="path663" />
        <path
           d="m 303.01121,363.95751 v -3.88264 h -11.02218 v 3.88264 z"
           style="fill:#ffdb10;fill-rule:evenodd;stroke-width:1"
           id="path665" />
        <path
           d="m 291.08586,363.95751 v -3.88264 h -11.04408 v 3.88264 z"
           style="fill:#ffdb10;fill-rule:evenodd;stroke-width:1"
           id="path667" />
        <path
           d="m 279.13869,363.95751 v -3.88264 h -2.33938 v 3.88264 z"
           style="fill:#ffdb10;fill-rule:evenodd;stroke-width:1"
           id="path669" />
        <path
           d="m 284.85261,364.8606 h -8.0533 v 4.69724 h 8.0533 z"
           style="fill:#ffdb10;fill-rule:evenodd;stroke-width:1"
           id="path671" />
        <path
           d="m 285.75578,364.8606 v 4.69724 h 11.57711 v -4.69724 z"
           style="fill:#ffdb10;fill-rule:evenodd;stroke-width:1"
           id="path673" />
        <path
           d="m 298.23607,364.8606 v 4.69724 h 7.74958 v -4.69724 z"
           style="fill:#ffdb10;fill-rule:evenodd;stroke-width:1"
           id="path675" />
        <path
           d="m 303.82262,370.46102 v 5.46309 h 2.16303 v -5.46309 z"
           style="fill:#ffdb10;fill-rule:evenodd;stroke-width:1"
           id="path677" />
        <path
           d="m 302.91953,375.92411 v -5.46309 h -10.9305 v 5.46309 z"
           style="fill:#ffdb10;fill-rule:evenodd;stroke-width:1"
           id="path679" />
        <path
           d="m 291.08586,375.92411 v -5.46309 h -11.04408 v 5.46309 z"
           style="fill:#ffdb10;fill-rule:evenodd;stroke-width:1"
           id="path681" />
        <path
           d="m 279.13869,375.92411 v -5.46309 h -2.33938 v 5.46309 z"
           style="fill:#ffdb10;fill-rule:evenodd;stroke-width:1"
           id="path683" />
        <path
           d="m 284.85261,376.82721 h -8.0533 v 4.21909 h 8.0533 z"
           style="fill:#ffdb10;fill-rule:evenodd;stroke-width:1"
           id="path685" />
        <path
           d="m 285.75578,376.82721 v 4.21909 h 11.57711 v -4.21909 z"
           style="fill:#ffdb10;fill-rule:evenodd;stroke-width:1"
           id="path687" />
        <path
           d="m 298.23607,376.82721 v 4.21909 h 7.74958 v -4.21909 z"
           style="fill:#ffdb10;fill-rule:evenodd;stroke-width:1"
           id="path689" />
        <path
           d="m 169.46903,264.90133 6.97545,-8.46192 -5.29264,-4.36334 -6.97561,8.462 z"
           style="fill:#ffdb10;fill-rule:evenodd;stroke-width:1"
           id="path691" />
        <path
           d="m 171.95609,251.10025 5.29288,4.36327 6.9756,-8.462 -5.29288,-4.36326 z"
           style="fill:#ffdb10;fill-rule:evenodd;stroke-width:1"
           id="path693" />
        <path
           d="m 179.85566,254.43122 -4.20053,5.09559 5.06165,3.95098 c 1.29809,-1.78532 2.6767,-3.50422 4.13187,-5.14903 z"
           style="fill:#ffdb10;fill-rule:evenodd;stroke-width:1"
           id="path695" />
        <path
           d="m 181.7791,278.32182 -4.59497,-2.69064 v 0.14759 11.6801 h 1.35408 c 0.77757,-3.04223 1.86131,-6.11329 3.24089,-9.13705 z"
           style="fill:#ffdb10;fill-rule:evenodd;stroke-width:1"
           id="path697" />
        <path
           d="m 176.05028,273.66409 6.05197,3.54372 v -1.42904 -0.67736 h 0.67728 0.59157 c 3.36379,-6.30573 8.03666,-12.27565 13.92486,-17.18111 l -4.62229,-5.34792 c -6.841,5.75415 -12.47415,12.97134 -16.62339,21.09171 z"
           style="fill:#ffdb10;fill-rule:evenodd;stroke-width:1"
           id="path699" />
        <path
           d="m 193.54187,251.85552 4.62675,5.35309 0.23283,-0.18559 c 5.81619,-4.59608 12.75373,-8.16457 20.72706,-10.05695 l -1.95347,-6.85868 c -6.74263,1.62204 -12.96799,4.38047 -18.56068,8.04247 -1.75418,1.14859 -3.44615,2.38662 -5.07249,3.70566 z"
           style="fill:#ffdb10;fill-rule:evenodd;stroke-width:1"
           id="path701" />
        <path
           d="m 191.12571,241.40708 9.87319,-4.77315 -2.9856,-6.17567 -9.87311,4.77307 z"
           style="fill:#ffdb10;fill-rule:evenodd;stroke-width:1"
           id="path703" />
        <path
           d="m 199.15193,229.90803 2.9856,6.17566 9.87335,-4.77307 -2.9856,-6.17566 z"
           style="fill:#ffdb10;fill-rule:evenodd;stroke-width:1"
           id="path705" />
        <path
           d="m 204.91037,236.24809 -6.05626,2.92777 2.76273,5.57549 c 1.951,-1.08805 3.96819,-2.07271 6.04742,-2.94577 z"
           style="fill:#ffdb10;fill-rule:evenodd;stroke-width:1"
           id="path707" />
        <path
           d="m 218.27527,239.85362 1.95482,6.86322 c 3.83007,-0.82456 7.89281,-1.26511 12.17912,-1.25109 4.29381,0.0138 8.39429,0.49878 12.27869,1.37551 l 1.93116,-6.78054 c -4.61146,-1.0084 -9.47963,-1.55346 -14.58867,-1.60921 -4.77698,-0.0524 -9.37242,0.43625 -13.75512,1.40211 z"
           style="fill:#ffdb10;fill-rule:evenodd;stroke-width:1"
           id="path709" />
        <path
           d="m 227.97793,237.186 c 1.33919,-0.0705 2.69367,-0.0987 4.06281,-0.0838 1.75657,0.0192 3.48566,0.0953 5.18631,0.22693 v -6.4053 h -9.24912 z"
           style="fill:#ffdb10;fill-rule:evenodd;stroke-width:1"
           id="path711" />
        <path
           d="m 220.03734,229.56911 h 11.93721 v -6.85956 h -11.93721 z"
           style="fill:#ffdb10;fill-rule:evenodd;stroke-width:1"
           id="path713" />
        <path
           d="m 233.32927,222.70955 v 6.85956 h 11.9373 v -6.85956 z"
           style="fill:#ffdb10;fill-rule:evenodd;stroke-width:1"
           id="path715" />
        <path
           d="m 256.37747,225.24782 -2.98559,6.17567 9.87343,4.77307 2.98551,-6.17567 z"
           style="fill:#ffdb10;fill-rule:evenodd;stroke-width:1"
           id="path717" />
        <path
           d="m 267.38945,230.57113 -2.98552,6.17574 9.87311,4.77307 2.9856,-6.17566 z"
           style="fill:#ffdb10;fill-rule:evenodd;stroke-width:1"
           id="path719" />
        <path
           d="m 266.30252,239.16973 -6.05619,-2.92777 -2.84628,5.74379 c 2.09238,0.85299 4.11968,1.81392 6.07992,2.8799 z"
           style="fill:#ffdb10;fill-rule:evenodd;stroke-width:1"
           id="path721" />
        <path
           d="m 266.68636,248.34071 c -5.68931,-3.68216 -12.03049,-6.38706 -18.96595,-8.02917 l -1.93387,6.78962 c 7.99189,1.97601 15.03958,5.6134 20.93957,10.20184 l 4.75706,-5.50372 c -1.54326,-1.23437 -3.14243,-2.38789 -4.79681,-3.45857 z"
           style="fill:#ffdb10;fill-rule:evenodd;stroke-width:1"
           id="path723" />
        <path
           d="m 272.35584,252.51097 -4.74759,5.49289 c 6.11657,4.95189 10.94085,10.93161 14.23152,17.09755 h 0.22167 0.67736 v 0.67736 1.09036 c 0.0885,0.18336 0.17587,0.36648 0.26166,0.54976 l 6.12221,-3.58474 c -4.40077,-8.55639 -10.0305,-15.72555 -16.76683,-21.32318 z"
           style="fill:#ffdb10;fill-rule:evenodd;stroke-width:1"
           id="path725" />
        <path
           d="m 285.18404,254.43258 -4.94807,3.86257 c 1.44123,1.6331 2.81507,3.35335 4.12017,5.15826 l 5.02843,-3.92525 z"
           style="fill:#ffdb10;fill-rule:evenodd;stroke-width:1"
           id="path727" />
        <path
           d="m 280.9072,247.11447 6.97569,8.46199 5.29288,-4.36334 -6.97569,-8.46199 z"
           style="fill:#ffdb10;fill-rule:evenodd;stroke-width:1"
           id="path729" />
        <path
           d="m 293.98002,252.18894 -5.29288,4.36334 6.97561,8.462 5.29288,-4.36334 z"
           style="fill:#ffdb10;fill-rule:evenodd;stroke-width:1"
           id="path731" />
        <path
           d="m 287.65684,275.99559 -4.18874,2.45264 c 1.33234,3.02782 2.28943,6.06415 2.84238,9.01064 h 1.34636 z"
           style="fill:#ffdb10;fill-rule:evenodd;stroke-width:1"
           id="path733" />
        <path
           d="m 200.59745,285.13717 v -6.48638 h -7.37801 v 6.48638 z"
           style="fill:#ffdb10;fill-rule:evenodd;stroke-width:1"
           id="path736" />
        <path
           d="m 201.27474,278.65079 v 6.48638 h 8.33264 v -6.48638 z"
           style="fill:#ffdb10;fill-rule:evenodd;stroke-width:1"
           id="path738" />
        <path
           d="m 203.77533,286.4919 h -4.80381 l 0.026,7.16414 4.80406,0.002 z"
           style="fill:#ffdb10;fill-rule:evenodd;stroke-width:1"
           id="path740" />
        <path
           d="m 219.74382,286.4919 0.0261,7.17139 4.80382,0.002 -0.0261,-7.1729 z"
           style="fill:#ffdb10;fill-rule:evenodd;stroke-width:1"
           id="path742" />
        <path
           d="m 213.99166,285.13717 h 7.7167 v -6.48638 h -7.7167 z"
           style="fill:#ffdb10;fill-rule:evenodd;stroke-width:1"
           id="path744" />
        <path
           d="m 222.38572,278.65079 v 6.48638 h 7.99388 v -6.48638 z"
           style="fill:#ffdb10;fill-rule:evenodd;stroke-width:1"
           id="path746" />
        <path
           d="m 234.53815,278.65079 v 6.48638 h 7.94243 v -6.48638 z"
           style="fill:#ffdb10;fill-rule:evenodd;stroke-width:1"
           id="path748" />
        <path
           d="m 243.15794,278.65079 v 6.48638 h 7.76815 v -6.48638 z"
           style="fill:#ffdb10;fill-rule:evenodd;stroke-width:1"
           id="path750" />
        <path
           d="m 245.09404,286.4919 h -4.80381 l 0.0262,7.17856 4.80382,0.002 z"
           style="fill:#ffdb10;fill-rule:evenodd;stroke-width:1"
           id="path752" />
        <path
           d="m 255.19751,278.65079 v 6.48638 h 7.82956 v -6.48638 z"
           style="fill:#ffdb10;fill-rule:evenodd;stroke-width:1"
           id="path754" />
        <path
           d="m 263.70443,278.65079 v 6.48638 h 7.88101 v -6.48638 z"
           style="fill:#ffdb10;fill-rule:evenodd;stroke-width:1"
           id="path756" />
        <path
           d="m 265.64053,286.4919 h -4.80382 l 0.0262,7.18557 4.80382,0.002 z"
           style="fill:#ffdb10;fill-rule:evenodd;stroke-width:1"
           id="path758" />
      </g>
      <g
         id="g10482">
        <g
           id="g10455">
          <path
             d="m 269.84641,304.36168 -1.98597,-5.66773 -2.00397,5.66773 z m 5.0716,5.43147 -2.02141,-0.0393 h -0.95773 l -2.19896,0.0589 V 309.38 l 0.40798,-0.0197 c 0.3664,0 0.63841,-0.11812 0.81587,-0.35429 0.13,-0.1738 0.19491,-0.3707 0.19491,-0.59381 0,-0.14743 -0.0326,-0.34744 -0.0976,-0.60328 -0.0649,-0.256 -0.19196,-0.64956 -0.38114,-1.17766 l -0.60288,-1.65955 h -4.4332 l -0.24827,0.69202 c -0.54395,1.5286 -0.81572,2.41728 -0.81572,2.66994 0,0.35421 0.12418,0.62311 0.37222,0.81006 0.20096,0.14433 0.44931,0.21657 0.7449,0.21657 h 0.35461 v 0.43283 l -1.95044,-0.0393 h -0.46134 l -1.45405,0.0589 v -0.4525 c 0.5676,0 1.05236,-0.30188 1.45405,-0.9054 0.34322,-0.51161 0.76856,-1.49563 1.27698,-2.95191 l 3.26271,-9.22968 h 0.60296 l 3.74166,10.2924 c 0.3664,1.02329 0.67967,1.70559 0.93981,2.04682 0.3664,0.49846 0.85117,0.74777 1.45405,0.74777 z"
             style="fill:#000000;fill-rule:evenodd;stroke-width:1"
             id="path223" />
          <path
             d="m 262.4484,299.69757 h -0.46286 l -0.0192,-0.21649 c -0.0644,-0.73471 -0.2572,-1.25946 -0.57875,-1.57417 -0.42423,-0.43307 -1.16348,-0.64956 -2.21768,-0.64956 h -0.79062 c -0.4631,0 -0.74579,0.0361 -0.84878,0.10833 -0.10275,0.072 -0.1542,0.21968 -0.1542,0.44278 v 8.89841 c 0,0.80019 0.0257,1.30526 0.077,1.51522 0.15445,0.62639 0.71368,0.98721 1.67779,1.07905 l 0.42447,0.0393 v 0.45274 l -2.50713,-0.0393 h -1.34994 l -2.50713,0.0589 v -0.4525 l 0.42423,-0.0395 c 0.79699,-0.0786 1.30486,-0.32131 1.52358,-0.72818 0.15421,-0.28857 0.23147,-0.91169 0.23147,-1.86951 v -8.91466 c 0,-0.2231 -0.0386,-0.36082 -0.11581,-0.41339 -0.12848,-0.0917 -0.42742,-0.13772 -0.89028,-0.13772 h -0.79389 c -1.035,0 -1.77106,0.21649 -2.20843,0.64956 -0.33733,0.32785 -0.5367,0.85252 -0.60082,1.57417 v 0.21649 h -0.46285 l 0.11565,-3.06995 4.03047,0.0591 h 3.85708 l 4.03095,-0.0591 z"
             style="fill:#000000;fill-rule:evenodd;stroke-width:1"
             id="path225" />
          <path
             d="m 249.50972,306.21152 c 0,1.25945 -0.47178,2.2434 -1.41534,2.9519 -0.83706,0.62973 -1.83367,0.94467 -2.9895,0.94467 -0.41275,0 -0.82527,-0.0657 -1.23827,-0.1969 -0.62503,-0.19666 -1.22648,-0.53119 -1.80428,-1.00361 l -0.44215,0.82663 h -0.17706 v -3.91625 h 0.3715 c 0.15348,1.10206 0.52793,2.00404 1.12333,2.70586 0.5954,0.70189 1.32358,1.05276 2.18454,1.05276 0.71965,0 1.33265,-0.2032 1.83988,-0.61006 0.57779,-0.45903 0.86693,-1.10206 0.86693,-1.92838 0,-0.83969 -0.31271,-1.53513 -0.93774,-2.08608 -0.31853,-0.27544 -0.94914,-0.64279 -1.89269,-1.10207 -1.34453,-0.64279 -2.22883,-1.26933 -2.65361,-1.87939 -0.42455,-0.61005 -0.6369,-1.32828 -0.6369,-2.15491 0,-0.94467 0.32148,-1.76134 0.96427,-2.45001 0.64271,-0.68883 1.5067,-1.03317 2.59148,-1.03317 0.40097,0 0.77254,0.0523 1.11465,0.15739 0.5304,0.15732 1.0612,0.45266 1.592,0.88549 l 0.44215,-0.78712 h 0.17691 l 0.0884,3.48327 h -0.37157 c -0.1648,-0.74786 -0.41858,-1.38412 -0.76068,-1.90886 -0.56601,-0.86582 -1.29108,-1.29889 -2.17562,-1.29889 -0.60161,0 -1.10262,0.17045 -1.50375,0.5116 -0.47154,0.39356 -0.70747,0.94468 -0.70747,1.65318 0,0.70835 0.29471,1.30526 0.88454,1.79074 0.27113,0.22311 0.89035,0.57079 1.85732,1.04312 1.17925,0.57708 2.00469,1.09554 2.47647,1.55457 0.75494,0.73463 1.13225,1.66624 1.13225,2.79452 z"
             style="fill:#000000;fill-rule:evenodd;stroke-width:1"
             id="path227" />
          <path
             d="m 241.34666,296.85455 -0.29041,0.0196 c -0.43594,0 -0.77804,0.16735 -1.02616,0.50197 -0.24843,0.33438 -0.5359,0.94778 -0.86295,1.83988 l -1.85247,5.19531 c -0.23003,0.62973 -0.49647,1.34477 -0.79907,2.14519 -0.41164,1.0757 -0.84758,2.17769 -1.30772,3.3062 h -0.56307 c -0.50833,-1.22011 -0.91408,-2.22397 -1.21684,-3.01109 -0.1695,-0.41969 -0.45426,-1.1939 -0.85355,-2.32218 l -1.97983,-5.45114 c -0.2662,-0.72165 -0.51456,-1.23979 -0.74467,-1.55473 -0.31471,-0.43283 -0.68405,-0.64941 -1.1078,-0.64941 h -0.29049 v -0.47233 l 2.47001,0.0592 2.83314,-0.0592 v 0.45274 l -0.25409,0.0196 c -0.37532,0 -0.64199,0.0393 -0.79915,0.11813 -0.26643,0.13118 -0.39953,0.40009 -0.39953,0.80671 0,0.30189 0.0695,0.69226 0.20885,1.17089 0.13923,0.47895 0.46285,1.40713 0.97175,2.78487 0.73846,2.0203 1.44696,3.85054 2.12488,5.49042 0.36337,-0.8659 0.69632,-1.69906 0.99868,-2.49924 0.20606,-0.55111 0.4846,-1.33824 0.83571,-2.36145 0.53263,-1.54819 0.87792,-2.59116 1.03531,-3.12921 0.15732,-0.53781 0.23601,-0.97088 0.23601,-1.29872 0,-0.44614 -0.1331,-0.75431 -0.39977,-0.925 -0.16926,-0.10499 -0.4114,-0.1574 -0.72635,-0.1574 h -0.29049 v -0.47233 l 2.12488,0.0592 1.92519,-0.0592 z"
             style="fill:#000000;fill-rule:evenodd;stroke-width:1"
             id="path229" />
          <path
             d="m 227.9127,304.83401 -0.27854,0.0196 c -0.30148,0 -0.52762,0.10817 -0.67856,0.32808 -0.15078,0.21634 -0.22613,0.60671 -0.22613,1.17408 0,0.31813 0.009,0.74466 0.026,1.27929 0.0175,0.53128 0.0263,0.81986 0.0263,0.85936 -0.27846,0 -0.52514,0.0294 -0.73973,0.0885 -0.21466,0.0589 -0.46668,0.16073 -0.75677,0.30506 -0.60344,0.31471 -1.20076,0.62312 -1.79257,0.92484 -0.5684,0.19682 -1.16571,0.29527 -1.79217,0.29527 -1.70535,0 -3.11495,-0.55111 -4.22849,-1.65317 -1.21804,-1.20705 -1.82722,-2.8404 -1.82722,-4.9002 0,-2.16462 0.60344,-3.90948 1.80986,-5.23465 1.20648,-1.32509 2.74361,-1.98756 4.61113,-1.98756 0.54538,0 1.04424,0.0655 1.49651,0.19666 0.6729,0.1969 1.32262,0.54458 1.94908,1.04312 l 0.36521,-0.9054 h 0.20884 l -0.15643,4.0147 h -0.36553 c 0,-1.11521 -0.32753,-2.03025 -0.98314,-2.74537 -0.65538,-0.71503 -1.49921,-1.07243 -2.5319,-1.07243 -1.04408,0 -1.91986,0.36735 -2.6274,1.10206 -1.04432,1.08893 -1.56604,2.86652 -1.56604,5.33303 0,2.45336 0.4928,4.19822 1.47882,5.23481 0.66135,0.69544 1.50821,1.04289 2.54066,1.04289 0.70771,0 1.30502,-0.15078 1.79233,-0.45243 0.77724,-0.48548 1.16595,-1.30549 1.16595,-2.45997 0,-0.6561 -0.11024,-1.12166 -0.33064,-1.39734 -0.22048,-0.27551 -0.61483,-0.41323 -1.18323,-0.41323 v -0.45267 h 4.59377 z"
             style="fill:#000000;fill-rule:evenodd;stroke-width:1"
             id="path231" />
          <path
             d="m 215.32178,296.7416 -0.28292,0.0197 c -0.42471,0 -0.75789,0.16727 -0.99956,0.50188 -0.24166,0.33438 -0.52156,0.94786 -0.84009,1.83997 l -1.80404,5.1953 c -0.22406,0.62973 -0.48356,1.34477 -0.7782,2.14519 -0.40112,1.07562 -0.82559,2.17769 -1.27371,3.3062 h -0.54833 c -0.49511,-1.22019 -0.89027,-2.22405 -1.18514,-3.01109 -0.1648,-0.41976 -0.44207,-1.19398 -0.83117,-2.32225 l -1.92814,-5.45107 c -0.25926,-0.72165 -0.50093,-1.23979 -0.72499,-1.55481 -0.30666,-0.43283 -0.66613,-0.64932 -1.07905,-0.64932 h -0.28284 v -0.47234 l 2.40541,0.0591 2.75931,-0.0591 v 0.45266 l -0.24772,0.0197 c -0.36544,0 -0.62495,0.0393 -0.7782,0.11804 -0.25927,0.13119 -0.3891,0.40009 -0.3891,0.8068 0,0.3018 0.0679,0.69225 0.20335,1.17088 0.13565,0.47887 0.45107,1.40714 0.94635,2.78488 0.71918,2.02029 1.4092,3.85054 2.06952,5.49041 0.35373,-0.86589 0.678,-1.69905 0.97271,-2.49924 0.2004,-0.55111 0.4717,-1.33823 0.8138,-2.36152 0.5187,-1.5482 0.85475,-2.59108 1.008,-3.12913 0.15325,-0.53782 0.23012,-0.97088 0.23012,-1.29873 0,-0.44613 -0.12984,-0.75431 -0.38934,-0.925 -0.16504,-0.10506 -0.40065,-0.15739 -0.70739,-0.15739 h -0.28285 v -0.47234 l 2.06928,0.0591 1.87493,-0.0591 z"
             style="fill:#000000;fill-rule:evenodd;stroke-width:1"
             id="path233" />
          <path
             d="m 197.83409,304.36168 -2.00317,-5.66773 -2.02165,5.66773 z m 5.11621,5.43147 -2.03925,-0.0393 h -0.9661 l -2.21807,0.0589 V 309.38 l 0.41156,-0.0197 c 0.36959,0 0.64399,-0.11812 0.82281,-0.35429 0.13111,-0.1738 0.19666,-0.3707 0.19666,-0.59381 0,-0.14743 -0.0329,-0.34744 -0.0982,-0.60328 -0.0658,-0.256 -0.19372,-0.64956 -0.38472,-1.17766 l -0.60798,-1.65955 h -4.47223 l -0.25066,0.69202 c -0.54849,1.5286 -0.82289,2.41728 -0.82289,2.66994 0,0.35421 0.12529,0.62311 0.37572,0.81006 0.20271,0.14433 0.45322,0.21657 0.75128,0.21657 h 0.35787 v 0.43283 l -1.9678,-0.0393 h -0.46517 l -1.46687,0.0589 v -0.4525 c 0.57238,0 1.06144,-0.30188 1.46687,-0.9054 0.34601,-0.51161 0.7751,-1.49563 1.28806,-2.95191 l 3.29138,-9.22968 h 0.60838 l 3.77463,10.2924 c 0.36967,1.02329 0.68565,1.70559 0.94786,2.04682 0.36967,0.49846 0.85889,0.74777 1.46687,0.74777 z"
             style="fill:#000000;fill-rule:evenodd;stroke-width:1"
             id="path235" />
        </g>
        <g
           id="g10464">
          <path
             d="m 269.43293,320.48094 -2.09039,-5.66366 -2.10958,5.66366 z m 5.33924,5.42742 -2.12807,-0.0393 h -1.00807 l -2.31485,0.0589 v -0.43267 l 0.42917,-0.0196 c 0.38591,0 0.67218,-0.11813 0.85864,-0.35406 0.13693,-0.17364 0.20543,-0.3703 0.20543,-0.59317 0,-0.14743 -0.0341,-0.34744 -0.10259,-0.60304 -0.0685,-0.25561 -0.20208,-0.64893 -0.40129,-1.17654 l -0.63467,-1.65844 h -4.66689 l -0.26142,0.69138 c -0.57246,1.52741 -0.85865,2.41569 -0.85865,2.66787 0,0.35405 0.13055,0.62296 0.39197,0.80966 0.21147,0.14425 0.47289,0.21634 0.78409,0.21634 h 0.37341 v 0.43259 l -2.05359,-0.0393 h -0.48516 l -1.53099,0.0589 v -0.45226 c 0.59739,0 1.10756,-0.30149 1.53099,-0.90453 0.3609,-0.51137 0.80887,-1.49467 1.34397,-2.94992 l 3.43468,-9.22283 h 0.63482 l 3.9388,10.28475 c 0.38591,1.02258 0.71543,1.70448 0.98936,2.04515 0.38591,0.4983 0.89608,0.74738 1.53091,0.74738 z"
             style="fill:#000000;fill-rule:evenodd;stroke-width:1"
             id="path237" />
          <path
             d="m 261.59151,315.82026 h -0.48206 l -0.0205,-0.21633 c -0.0667,-0.73424 -0.26763,-1.2585 -0.60233,-1.57321 -0.44223,-0.43267 -1.21214,-0.64893 -2.31055,-0.64893 h -0.82368 c -0.48237,0 -0.77692,0.0361 -0.88422,0.10817 -0.10713,0.072 -0.16065,0.21968 -0.16065,0.44247 v 8.89188 c 0,0.79954 0.0269,1.30438 0.0804,1.51418 0.16057,0.62583 0.74331,0.98641 1.7478,1.07833 l 0.44199,0.0393 v 0.45227 l -2.61187,-0.0393 h -1.40642 l -2.61155,0.0589 v -0.45226 l 0.44199,-0.0394 c 0.83045,-0.0788 1.35934,-0.32124 1.58691,-0.7277 0.16089,-0.28827 0.24126,-0.91098 0.24126,-1.86808 v -8.90821 c 0,-0.22279 -0.0403,-0.36051 -0.12051,-0.41292 -0.13421,-0.0919 -0.44557,-0.13772 -0.92763,-0.13772 h -0.82687 c -1.07817,0 -1.84522,0.21626 -2.30067,0.64893 -0.3515,0.32777 -0.55915,0.85204 -0.6259,1.57321 v 0.21633 h -0.48229 l 0.12051,-3.06772 4.19902,0.0589 h 4.0182 l 4.19902,-0.0589 z"
             style="fill:#000000;fill-rule:evenodd;stroke-width:1"
             id="path239" />
          <path
             d="m 248.52825,325.90836 -2.38088,-0.0393 h -1.32246 l -2.38065,0.0589 v -0.45226 l 0.41563,-0.0394 c 0.75574,-0.0788 1.23437,-0.32124 1.43581,-0.7277 0.13859,-0.28827 0.20789,-0.91098 0.20789,-1.86808 v -7.0007 c 0,-0.77358 -0.0252,-1.27818 -0.0756,-1.51419 -0.13867,-0.62949 -0.66135,-0.98984 -1.56811,-1.08167 l -0.41563,-0.0394 v -0.45219 l 2.38065,0.0589 h 1.32246 l 2.38088,-0.0589 v 0.45219 l -0.41586,0.0394 c -0.7555,0.0788 -1.23437,0.32123 -1.43605,0.72427 -0.1386,0.28858 -0.20773,0.9113 -0.20773,1.86816 v 6.9878 c 0,0.77334 0.0251,1.27817 0.0754,1.51418 0.13867,0.62583 0.66159,0.98641 1.56835,1.07833 l 0.41586,0.0393 z"
             style="fill:#000000;fill-rule:evenodd;stroke-width:1"
             id="path241" />
          <path
             d="m 238.21028,316.30144 c 0,-1.18363 -0.32801,-2.34392 -1.47619,-2.8016 -0.42829,-0.1707 -0.98888,-0.25576 -1.68162,-0.25576 h -0.20797 c -0.18893,0 -0.33685,0.0296 -0.44406,0.0885 -0.10681,0.0589 -0.16058,0.21968 -0.16058,0.48181 v 5.4866 h 0.20798 c 0.95733,0 1.64417,-0.0576 2.0594,-0.17707 1.29036,-0.37142 1.70304,-1.54573 1.70304,-2.82247 z m 3.95034,9.60692 -1.51163,-0.0393 -1.41295,0.0401 c -1.03564,-2.06657 -1.59495,-3.20344 -2.84892,-5.39961 -0.16376,-0.28699 -0.58998,-0.53877 -0.84606,-0.56943 -0.34322,-0.0411 -0.72181,-0.14768 -0.96092,-0.14768 h -0.34028 v 3.32986 c 0,0.95399 0.10706,1.58977 0.32108,1.90113 0.17635,0.26214 0.52292,0.39332 1.03954,0.39332 h 0.4721 v 0.51121 c -0.66741,0 -1.20593,-0.006 -1.61551,-0.0197 -0.40933,-0.0131 -0.80918,-0.0262 -1.19956,-0.0393 -0.54171,0 -1.0393,0.006 -1.49291,0.0196 -0.45338,0.0131 -0.8941,0.0262 -1.32247,0.0393 v -0.47194 l 0.47234,-0.0393 c 0.27711,0 0.50396,-0.0492 0.68007,-0.14767 0.17635,-0.0982 0.31502,-0.22287 0.41594,-0.37341 0.10068,-0.15086 0.16974,-0.37373 0.20773,-0.66541 0.0379,-0.29512 0.0566,-0.66542 0.0566,-1.11107 v -7.57762 c 0,-0.38026 -0.009,-0.72117 -0.0284,-1.02257 -0.0187,-0.2983 -0.0944,-0.54729 -0.22669,-0.74395 -0.1323,-0.19666 -0.29575,-0.33438 -0.49105,-0.413 -0.19531,-0.0788 -0.4001,-0.11804 -0.6142,-0.11804 h -0.47234 v -0.49154 l 1.77608,0.0589 h 1.02027 c 0.28969,0 0.72411,0 1.30374,0 0.57931,0 1.00131,0 1.26599,0 1.6249,0 2.77078,0.17165 3.43866,0.50802 0.93161,0.46963 1.24887,1.39813 1.24887,2.73859 0,1.77035 -1.28184,2.92053 -2.80471,3.2005 1.19366,0.45426 2.08848,3.59677 3.13271,5.39516 0.36624,0.63036 0.60918,0.66517 1.33688,0.76314 z"
             style="fill:#000000;fill-rule:evenodd;stroke-width:1"
             id="path243" />
          <path
             d="m 229.77831,322.70284 c 0,0.42948 -0.0159,0.98991 -0.0484,1.68145 -0.0322,0.69162 -0.0484,1.19964 -0.0484,1.52407 l -7.89488,-0.0393 c -0.53008,0 -1.03444,0.006 -1.51291,0.0196 -0.47839,0.0131 -0.93734,0.0262 -1.37702,0.0393 v -0.47194 l 0.48492,-0.0393 c 0.28436,0 0.51734,-0.0492 0.69815,-0.14767 0.18097,-0.0982 0.32331,-0.22287 0.42693,-0.37341 0.10315,-0.15086 0.17428,-0.37373 0.21323,-0.66541 0.0387,-0.29512 0.0582,-0.66542 0.0582,-1.11107 v -7.57762 c 0,-0.38026 -0.01,-0.72117 -0.0292,-1.02257 -0.0194,-0.2983 -0.0969,-0.54729 -0.23275,-0.74395 -0.1358,-0.19666 -0.30387,-0.33438 -0.50412,-0.413 -0.20048,-0.0788 -0.41076,-0.11804 -0.63044,-0.11804 h -0.48492 v -0.49154 c 0.65944,0 1.20577,0.006 1.639,0.0196 0.43299,0.0131 0.8502,0.0262 1.25093,0.0393 l 6.88608,-0.0589 v 2.96927 h -0.40726 l -0.0581,-0.2752 c -0.18105,-0.86526 -0.48517,-1.43899 -0.91186,-1.72072 -0.42654,-0.28181 -1.19606,-0.42271 -2.30824,-0.42271 h -1.53234 c -0.29743,0 -0.48166,0.0294 -0.55279,0.0883 -0.071,0.0591 -0.10665,0.20001 -0.10665,0.42287 v 4.99483 h 0.38798 c 0.8792,0 1.56485,-0.22287 2.05606,-0.66852 0.49137,-0.44574 0.7371,-1.04878 0.7371,-1.80922 h 0.48484 v 5.21132 h -0.48484 c 0,-0.90469 -0.33613,-1.52741 -1.00855,-1.86816 -0.42694,-0.22287 -1.02154,-0.33438 -1.78461,-0.33438 h -0.38798 v 3.55272 c 0,0.51144 0.0322,0.9113 0.0969,1.20298 0.0649,0.28834 0.22327,0.53741 0.47521,0.74714 0.25218,0.21315 0.55931,0.35405 0.92133,0.42606 0.36234,0.0722 0.72436,0.1084 1.08646,0.1084 0.62072,0 1.14436,-0.033 1.57105,-0.0984 0.42702,-0.0655 0.82106,-0.20637 1.18331,-0.41634 0.3621,-0.21291 0.64001,-0.46198 0.83404,-0.75366 0.24589,-0.38361 0.36855,-0.85212 0.36855,-1.40626 z"
             style="fill:#000000;fill-rule:evenodd;stroke-width:1"
             id="path245" />
          <path
             d="m 217.72409,325.90836 c -0.66765,0 -1.20609,-0.003 -1.61543,-0.0131 -0.40941,-0.01 -0.8095,-0.0164 -1.19987,-0.0261 -0.5414,0 -1.0393,0.003 -1.49268,0.0131 -0.45338,0.01 -0.89434,0.0165 -1.32263,0.0262 v -0.43259 l 0.47258,-0.0394 c 0.27703,0 0.50372,-0.0491 0.68007,-0.14744 0.17635,-0.0984 0.31494,-0.22302 0.41562,-0.37365 0.101,-0.15078 0.17006,-0.37364 0.20774,-0.66876 0.038,-0.29487 0.0567,-0.66517 0.0567,-1.1109 v -8.49537 l -4.62906,11.26806 h -0.18902 l -4.70464,-11.26806 v 8.20034 c 0,0.7735 0.025,1.27817 0.0754,1.51434 0.13859,0.62925 0.66151,0.9896 1.56827,1.08144 h 0.4157 v 0.47194 c -0.66764,0 -1.16507,-0.003 -1.49268,-0.0131 -0.32737,-0.01 -0.62344,-0.0164 -0.88804,-0.0261 l -2.13499,0.0393 v -0.43259 l 0.47233,-0.0394 c 0.21403,0 0.41563,-0.0393 0.60464,-0.11805 0.18902,-0.0785 0.36218,-0.24907 0.51949,-0.5112 0.15763,-0.26238 0.23625,-0.91776 0.23625,-1.96653 v -7.29558 c 0,-0.38025 -0.01,-0.72117 -0.0283,-1.02265 -0.0189,-0.30164 -0.0944,-0.55063 -0.22693,-0.74729 -0.1323,-0.19666 -0.29574,-0.33438 -0.49105,-0.413 -0.19531,-0.0788 -0.40009,-0.11804 -0.61412,-0.11804 h -0.47233 v -0.49154 l 1.9083,0.0589 h 1.87063 l 4.15672,9.83257 4.10025,-9.83257 h 1.58707 l 2.15395,-0.0589 v 0.45219 l -0.47234,0.0394 c -0.27703,0 -0.50372,0.0492 -0.68023,0.14743 -0.17635,0.0985 -0.31502,0.22303 -0.41546,0.37365 -0.10092,0.15086 -0.1703,0.37365 -0.20797,0.66876 -0.0379,0.29487 -0.0569,0.66517 -0.0569,1.11114 v 7.59061 c 0,0.38002 0.01,0.72093 0.0284,1.02265 0.019,0.3014 0.0946,0.5504 0.22669,0.74706 0.1323,0.19666 0.29623,0.33446 0.49153,0.41299 0.19507,0.0788 0.39962,0.11805 0.61388,0.11805 h 0.47234 z"
             style="fill:#000000;fill-rule:evenodd;stroke-width:1"
             id="path247" />
          <path
             d="m 201.29059,322.70284 c 0,0.42948 -0.0163,0.98991 -0.0491,1.68145 -0.0326,0.69162 -0.0491,1.19964 -0.0491,1.52407 l -7.99077,-0.0393 c -0.53678,0 -1.04703,0.006 -1.53155,0.0196 -0.48421,0.0131 -0.94882,0.0262 -1.39383,0.0393 v -0.47194 l 0.49081,-0.0393 c 0.28787,0 0.52364,-0.0492 0.70668,-0.14767 0.1832,-0.0982 0.32729,-0.22287 0.43211,-0.37341 0.10466,-0.15086 0.17643,-0.37373 0.21586,-0.66541 0.0394,-0.29512 0.0589,-0.66542 0.0589,-1.11107 v -7.57762 c 0,-0.38026 -0.01,-0.72117 -0.0296,-1.02257 -0.0194,-0.2983 -0.0981,-0.54729 -0.23553,-0.74395 -0.13748,-0.19666 -0.3073,-0.33438 -0.51025,-0.413 -0.20296,-0.0788 -0.41579,-0.11804 -0.63818,-0.11804 h -0.49081 v -0.49154 c 0.66748,0 1.22043,0.006 1.65899,0.0196 0.43848,0.0131 0.86056,0.0262 1.26639,0.0393 l 6.96979,-0.0589 v 2.96927 h -0.41228 l -0.0589,-0.2752 c -0.18328,-0.86526 -0.49082,-1.43899 -0.92277,-1.72072 -0.43187,-0.28181 -1.21079,-0.42271 -2.33627,-0.42271 h -1.55131 c -0.30076,0 -0.48755,0.0294 -0.55931,0.0883 -0.072,0.0591 -0.10817,0.20001 -0.10817,0.42287 v 4.99483 h 0.39276 c 0.88988,0 1.58388,-0.22287 2.08107,-0.66852 0.49735,-0.44574 0.74626,-1.04878 0.74626,-1.80922 h 0.49058 v 5.21132 h -0.49058 c 0,-0.90469 -0.34043,-1.52741 -1.02106,-1.86816 -0.43211,-0.22287 -1.03388,-0.33438 -1.80627,-0.33438 h -0.39276 v 3.55272 c 0,0.51144 0.0329,0.9113 0.0981,1.20298 0.0657,0.28834 0.22597,0.53741 0.48126,0.74714 0.25496,0.21315 0.56585,0.35405 0.93256,0.42606 0.36648,0.0722 0.73296,0.1084 1.09944,0.1084 0.6283,0 1.1583,-0.033 1.59018,-0.0984 0.43219,-0.0655 0.83124,-0.20637 1.19772,-0.41634 0.36648,-0.21291 0.64781,-0.46198 0.84416,-0.75366 0.24891,-0.38361 0.37301,-0.85212 0.37301,-1.40626 z"
             style="fill:#000000;fill-rule:evenodd;stroke-width:1"
             id="path249" />
        </g>
      </g>
    </g>
  </g>
</svg>
