<?xml version="1.0" encoding="UTF-8" standalone="no"?>
<svg
   xmlns:dc="http://purl.org/dc/elements/1.1/"
   xmlns:cc="http://creativecommons.org/ns#"
   xmlns:rdf="http://www.w3.org/1999/02/22-rdf-syntax-ns#"
   xmlns:svg="http://www.w3.org/2000/svg"
   xmlns="http://www.w3.org/2000/svg"
   xmlns:sodipodi="http://sodipodi.sourceforge.net/DTD/sodipodi-0.dtd"
   xmlns:inkscape="http://www.inkscape.org/namespaces/inkscape"
   width="394.41403"
   version="1.1"
   height="411.94684"
   viewBox="0 0 315.53123 329.55746"
   id="svg3069"
   inkscape:version="0.47 r22583"
   sodipodi:docname="Club_Deportivo_Guadalajara-Seite001.svg">
  <metadata
     id="metadata3318">
    <rdf:RDF>
      <cc:Work
         rdf:about="">
        <dc:format>image/svg+xml</dc:format>
        <dc:type
           rdf:resource="http://purl.org/dc/dcmitype/StillImage" />
        <dc:title></dc:title>
      </cc:Work>
    </rdf:RDF>
  </metadata>
  <sodipodi:namedview
     pagecolor="#ffffff"
     bordercolor="#666666"
     borderopacity="1"
     objecttolerance="10"
     gridtolerance="10"
     guidetolerance="10"
     inkscape:pageopacity="0"
     inkscape:pageshadow="2"
     inkscape:window-width="1152"
     inkscape:window-height="804"
     id="namedview3316"
     showgrid="false"
     inkscape:zoom="2.2125"
     inkscape:cx="194.19587"
     inkscape:cy="67.594042"
     inkscape:window-x="-4"
     inkscape:window-y="-4"
     inkscape:window-maximized="1"
     inkscape:current-layer="svg3069" />
  <defs
     id="defs3071">
    <inkscape:perspective
       sodipodi:type="inkscape:persp3d"
       inkscape:vp_x="0 : 120.625 : 1"
       inkscape:vp_y="0 : 1000 : 0"
       inkscape:vp_z="241.25 : 120.625 : 1"
       inkscape:persp3d-origin="120.625 : 80.416667 : 1"
       id="perspective3320" />
    <clipPath
       id="Clip0">
      <path
         d="m 0,0 192.756,0 0,192.756 L 0,192.756 0,0 z"
         transform="translate(0,0.244141)"
         id="path3074" />
    </clipPath>
  </defs>
  <g
     id="Hintergrund"
     transform="matrix(1.7953617,0,0,1.9762026,-15.267594,-26.165323)">
    <g
       id="Gruppe1"
       clip-path="url(#Clip0)">
      <path
         style="fill:#161413;fill-rule:evenodd;stroke:none"
         d="m 156.514,15.3711 -3.843,7.5362 c -2.79,-1.1973 -5.843,-2.4317 -9.12,-3.6514 l 2.53,-8.0684 C 136.966,7.8184 126.202,4.5821 114.449,2.4639 l -2.028,8.1953 -0.003,0 c -3.162,-0.5605 -6.395,-1.0342 -9.683,-1.4004 l -0.003,-0.0019 0,-8.4649 C 97.8871,0.2862 92.9211,0 87.874,0 82.8272,0 77.8613,0.2862 73.0156,0.792 l 0,8.4649 -0.0029,0.0019 c -3.2881,0.3662 -6.5205,0.8399 -9.6826,1.4004 l -0.002,0 -2.0293,-8.1953 C 49.5469,4.5821 38.7832,7.8184 29.667,11.1875 l 2.5303,8.0684 c -3.2774,1.2197 -6.3301,2.4541 -9.1192,3.6514 L 19.2344,15.3711 C 7.25779,20.5586 0,25.0606 0,25.0606 L 10.5518,49.0479 C 18.7119,98.2608 36.7647,136.098 87.874,166.763 138.983,136.098 157.036,98.2608 165.196,49.0479 l 10.552,-23.9873 c 0,0 -7.258,-4.502 -19.234,-9.6895 z"
         transform="translate(8.50391,13.2402)"
         id="path3080" />
      <path
         style="fill:#ea621d;fill-rule:evenodd;stroke:none"
         d="M 76.0888,0 C 38.5566,0 4.8711,20.0723 0,23.1045 4.4843,49.7413 11.5673,70.3156 22.2783,87.7836 34.5107,107.735 52.123,124.476 76.0888,138.955 100.055,124.476 117.667,107.735 129.899,87.7836 140.61,70.3156 147.693,49.7413 152.178,23.1045 147.307,20.0723 113.621,0 76.0888,0 z M 127.509,86.3176 C 115.766,105.471 98.9179,121.626 76.0888,135.662 53.2597,121.626 36.413,105.471 24.6689,86.3176 14.4043,69.5776 7.5273,49.8702 3.0918,24.5098 c 8.2519,-4.8945 39.0664,-21.706 72.997,-21.706 33.9312,0 64.7462,16.8115 72.9972,21.706 -4.436,25.3604 -11.312,45.0678 -21.577,61.8078 z"
         transform="translate(20.2891,39.7314)"
         id="path3082" />
      <path
         style="fill:#ea621d;fill-rule:evenodd;stroke:none"
         d="m 143.075,2.914 c 0.151,-0.8037 0.298,-1.6123 0.443,-2.4267 C 143.255,0.334 142.974,0.1709 142.677,0 L 71.7588,33.5781 0.8418,0 C 0.544,0.1709 0.2627,0.334 0,0.4873 0.1446,1.3027 0.292,2.1113 0.4424,2.914 L 71.7588,36.6808 143.075,2.914 z"
         transform="translate(24.6191,64.3262)"
         id="path3084" />
      <path
         style="fill:#ffffff;fill-rule:evenodd;stroke:none"
         d="M 71.0566,33.6435 0,0 C 4.4228,23.0391 11.0264,41.2565 20.5928,56.8585 32.1416,75.6935 48.6797,91.6145 71.0566,105.47 93.4347,91.6145 109.973,75.6935 121.522,56.8585 131.086,41.2565 137.692,23.0391 142.114,0 L 71.0566,33.6435 z M 72.21,100.27 c -10.6983,0 -19.3711,-8.6735 -19.3711,-19.3715 0,-10.699 8.6728,-19.372 19.3711,-19.372 10.6987,0 19.3717,8.673 19.3717,19.372 0,10.698 -8.673,19.3715 -19.3717,19.3715 z"
         transform="translate(25.3213,68.6045)"
         id="path3086" />
      <path
         style="fill:#9f67a1;fill-rule:evenodd;stroke:none"
         d="M 53.7793,25.9389 0,0 c 4.2675,18.67 10.1689,33.8349 18.3427,47.1679 1.8223,2.972 3.7754,5.867 5.8574,8.693 l 31.1866,0 c 0,0 4.2041,-0.494 4.2041,-14.59 0,-13.354 -5.8115,-15.332 -5.8115,-15.332 z m -9.0264,24.235 -18.1768,-1.236 C 20.6416,40.7769 15.0771,13.2022 15.0771,13.2022 l 27.3262,11.8707 c 0,0 5.0703,1.484 5.0703,14.096 0,9.521 -0.4951,11.005 -2.7207,11.005 z"
         transform="translate(30.4395,76.5361)"
         id="path3088" />
      <path
         style="fill:#9f67a1;fill-rule:evenodd;stroke:none"
         d="M 50.173,21.1964 C 52.207,15.7715 54.013,10.0205 55.616,3.8818 55.989,2.1504 54.424,0 51.192,1.4463 L 4.204,22.4664 C 1.608,23.7034 0,26.1754 0,29.1434 l 0,17.558 c 0,4.205 3.463,6.245 6.245,6.245 l 23.679,0 c 2.086,0 3.818,-1.181 5.136,-2.571 1.01,-1.457 1.988,-2.932 2.931,-4.426 l 7.792,-14.288 c 0.012,-0.026 0.025,-0.051 0.037,-0.076 l -18.787,1.459 -2.797,7.537 8.656,-0.557 c 0,0 -1.113,7.172 -3.71,7.172 l -16.074,0 0,-22.504 33.88,-15.5801 -4.576,14.3441 7.761,-2.26 z"
         transform="translate(105.115,79.1426)"
         id="path3090" />
      <path
         style="fill:#ea621d;fill-rule:evenodd;stroke:none"
         d="M 0.0136,14.317 C 0,14.533 0.1318,15.209 0.3173,15.914 c 0.6817,0.068 1.3721,0.108 2.0596,0.108 1.3789,0 2.2891,-0.226 2.7315,-0.365 C 6.665,13.117 13.4678,5.093 17.4458,3.601 15.2448,1.787 12.5788,0.522 9.6588,0 9.6228,0.252 9.5098,0.495 9.3118,0.686 6.832,3.074 0.331,10.166 0.0205,14.252 l -0.0069,0.065 z"
         transform="translate(90.8682,132.785)"
         id="path3092" />
      <path
         style="fill:#ea621d;fill-rule:evenodd;stroke:none"
         d="M 4.393,0.331 C 3.479,0.407 1.801,1.695 0,3.383 2.442,6.015 7.156,12.4 8.927,15.468 9.264,14.137 9.444,12.746 9.444,11.312 9.444,6.971 7.805,3.006 5.116,0 4.926,0.183 4.677,0.309 4.393,0.331 z"
         transform="translate(105.076,138.191)"
         id="path3094" />
      <path
         style="fill:#ea621d;fill-rule:evenodd;stroke:none"
         d="m 0.293,13.45 c 0.0449,0.02 3.3291,1.549 7.417,2.354 -0.086,-0.432 -0.1475,-0.862 -0.1475,-1.216 0,-0.103 0.0078,-0.197 0.0186,-0.286 C 7.9854,9.393 14.5313,2.335 16.8193,0.006 16.7441,0.005 16.6699,0 16.5938,0 8.4717,0 1.667,5.73 0,13.36 c 0.0986,0.019 0.1982,0.045 0.293,0.09 z"
         transform="translate(80.9375,132.515)"
         id="path3096" />
      <path
         style="fill:#ea621d;fill-rule:evenodd;stroke:none"
         d="M 21.0449,6.845 C 20.4469,5.449 18.7869,2.768 16.9799,0 15.6319,1.002 12.4385,2.407 5.1299,2.407 3.5215,2.407 1.3086,2.155 0,1.984 c 3.1045,4.091 8.0166,6.74 13.5372,6.74 2.7157,0 5.2817,-0.644 7.5607,-1.782 -0.018,-0.031 -0.038,-0.062 -0.053,-0.097 z"
         transform="translate(83.9941,157.767)"
         id="path3098" />
      <path
         style="fill:#ea621d;fill-rule:evenodd;stroke:none"
         d="M 2.7138,8.953 C 2.75,8.958 6.3886,9.5 8.581,9.5 15.9531,9.5 18.457,8.003 19.1093,7.477 17.8662,5.61 16.6572,3.841 15.7675,2.54 15.083,2.717 14.0556,2.898 12.7021,2.898 7.0595,2.898 1.5312,0.65 0.0488,0 0.0205,0.4 0,0.804 0,1.212 0,4.059 0.708,6.741 1.9502,9.101 2.1738,8.972 2.4384,8.912 2.7138,8.953 z"
         transform="translate(80.543,148.291)"
         id="path3100" />
      <path
         style="fill:#ea621d;fill-rule:evenodd;stroke:none"
         d="M 14.2024,12.465 C 13.5664,10.728 7.7114,2.711 5.2004,0 2.9324,2.324 0.7852,4.881 0,6.106 l 0.0157,0.023 c 2.6677,3.903 7.5837,11.095 8.9497,14.13 2.568,-1.77 4.624,-4.227 5.907,-7.103 -0.3,-0.123 -0.551,-0.363 -0.67,-0.691 z"
         transform="translate(98.1816,143.239)"
         id="path3102" />
      <path
         style="fill:#9d9a90;fill-rule:evenodd;stroke:none"
         d="M 44.9203,0 C 28.5196,0 4.0537,1.9648 0,2.3008 L 34.5752,18.6709 72.8853,0.5322 C 66.6353,0.3623 52.4043,0 44.9203,0 z"
         transform="translate(61.8027,77.9922)"
         id="path3104" />
      <path
         style="fill:#9d9a90;fill-rule:evenodd;stroke:none"
         d="M 11.293,0 C 7.485,0.0595 3.711,0.1474 0,0.2578 L 0,2.5644 C 3.856,2.5322 7.681,2.5029 11.293,2.4795 L 11.293,0 z"
         transform="translate(121.438,72.6426)"
         id="path3106" />
      <path
         style="fill:#9d9a90;fill-rule:evenodd;stroke:none"
         d="M 10.055,0 C 6.687,0 3.333,0.0293 0,0.0771 L 0,2.5625 C 2.317,2.5488 4.533,2.5371 6.592,2.5283 l 0.144,0.6338 6.64,-3.1436 C 12.175,0.0068 11.013,0 10.055,0 z"
         transform="translate(133.887,72.5518)"
         id="path3108" />
      <path
         style="fill:#9d9a90;fill-rule:evenodd;stroke:none"
         d="M 12.1182,0 C 6.0655,0.5117 1.8125,0.9297 0,1.1142 L 5.376,3.6592 6.584,3.5596 C 7.5987,3.4756 9.5391,3.3183 12.1182,3.124 l 0,-3.124 z"
         transform="translate(55.1611,76.0342)"
         id="path3110" />
      <path
         style="fill:#9d9a90;fill-rule:evenodd;stroke:none"
         d="m 6.8809,1.7315 c 0,0 3.5859,-0.4952 5.1933,-0.4952 L 12.0742,0 C 9.4434,0 3.333,0.4971 0,0.7861 l 9.9102,4.6924 c 2.2431,-0.3222 6.5244,-0.9033 8.2226,-0.9033 l 0,-2.2256 c -3.709,0 -11.2519,0.4942 -11.2519,0.4942 l 0,-1.1123 z"
         transform="translate(43.458,70.8203)"
         id="path3112" />
      <path
         style="fill:#9d9a90;fill-rule:evenodd;stroke:none"
         d="M 0,0.6602 C 0,0.6602 6.6768,0 9.6445,0 l 0,1.8965 C 7.0889,1.8965 0.082,2.6387 0.082,2.6387 L 0,0.6602 z"
         transform="translate(57.0576,69.707)"
         id="path3114" />
      <path
         style="fill:#9d9a90;fill-rule:evenodd;stroke:none"
         d="M 21.8437,8.2432 21.584,6.4688 c -0.0459,0.0029 -0.0918,0.0058 -0.1377,0.0088 l 0,-6.4776 c -3.2295,0 -5.7022,0.4942 -5.7022,0.4942 l 0,1.8965 0.9063,-0.1651 0,0.7422 c -0.8194,0 -2.9424,0.3867 -5.4278,0.3867 -1.6611,0 -1.5595,2.0381 -2.0732,2.086 L 8.2422,5.6055 C 7.7148,5.6563 8.2422,3.8526 5.9326,3.8526 2.6748,3.8526 0,4.4512 0,4.4512 l 0,2.5557 c 0,0 3.1318,-0.4121 5.4404,-0.4121 0.8906,0 1.25,0.5048 1.3936,0.9697 C 6.247,7.6123 5.6689,7.6602 5.1103,7.7071 l 0,3.1357 c 1.211,-0.0898 2.5401,-0.1855 3.9571,-0.2842 l 0,-3.2636 c 0,-1.4786 1.1992,-2.6788 2.6787,-2.6788 0.9072,0 1.707,0.4522 2.1924,1.1426 0.9794,-0.1426 2.3203,-0.3183 2.9599,-0.3183 1.0713,0 1.7305,-0.8243 1.7305,-0.8243 l 0.8242,0 0,1.9981 c -1.7451,0.1201 -3.4277,0.2412 -5.0488,0.3623 0.0127,0.1045 0.0205,0.2109 0.0205,0.3184 l 0,2.9072 c 2.3584,-0.1504 4.8515,-0.2998 7.4082,-0.4375 l 0.0107,-0.0371 0,-1.4844 z M 19.289,3.71 l -0.8242,0 -0.9902,-1.4023 c 0,0 1.8144,-0.4122 2.5556,-0.4122 C 19.7422,2.9268 19.289,3.71 19.289,3.71 z"
         transform="translate(63.4053,68.2236)"
         id="path3116" />
      <path
         style="fill:#9d9a90;fill-rule:evenodd;stroke:none"
         d="m 0,4.9453 0,1.7314 c 0,0 7.9952,-0.8242 10.3038,-0.8242 l 0,-1.8965 -2.6377,0.083 c 0,-1.4013 6.6767,-1.4013 6.6767,-1.4013 l 0,-1.1543 -2.3906,0 0,-1.4834 -3.874,0 0,1.8955 c -0.4121,0 -2.4737,0.4951 -2.4737,0.4951 l 0,2.1426 C 3.7911,4.5332 0,4.9453 0,4.9453 z"
         transform="translate(67.8564,64.5967)"
         id="path3118" />
      <path
         style="fill:#9d9a90;fill-rule:evenodd;stroke:none"
         d="m 28.9268,0.0821 c -2.0606,0 -4.6983,0.4121 -4.6983,0.4121 l 0,2.3086 c -1.3193,0 -5.5234,0.3291 -5.5234,0.3291 0,0 -0.7422,-3.1319 -1.1543,-2.7198 -1.4014,0 -3.0498,0.5772 -3.0498,0.5772 l 0.165,2.3896 c -1.5664,0 -5.2763,0.7422 -5.2763,0.7422 0,0 -0.5772,-2.3906 -1.3184,-2.3906 -1.2363,0 -4.0391,0.3301 -4.0391,0.3301 l 0,2.3076 C 2.7305,4.3682 1.1943,4.6045 0,4.835 L 1.5371,5.5635 C 8.8858,4.8008 25.6983,3.1319 32.0596,3.1319 l 0,-1.0713 -3.1328,-0.1651 0,-1.8134 z"
         transform="translate(40.083,65.1738)"
         id="path3120" />
      <path
         style="fill:#9d9a90;fill-rule:evenodd;stroke:none"
         d="m 0,0 0,1.0713 1.8282,0 L 1.8282,0 0,0 z"
         transform="translate(83.0234,66.1631)"
         id="path3122" />
      <path
         style="fill:#9d9a90;fill-rule:evenodd;stroke:none"
         d="M 7.9737,10.0449 C 7.916,7.9336 7.7207,3.1914 7.0899,0 5.9356,0 0.7422,0.5771 0.7422,0.5771 0.1319,3.7597 0.0235,8.8388 0.0049,10.5459 c -0.0019,0 -0.0029,0 -0.0049,0 l 0,0.916 0.2813,-0.0039 c 0.2441,-0.002 17.6606,-0.2022 34.8356,-0.3467 l 0,-2.292 c -9.625,0.293 -18.82,0.7344 -27.1432,1.2256 z"
         transform="translate(85.6611,64.1016)"
         id="path3124" />
      <path
         style="fill:#9d9a90;fill-rule:evenodd;stroke:none"
         d="M 22.2568,0 C 9.9443,0.1192 0,0.2334 0,0.2334 l 0,0.9893 c 5.2305,0 10.3086,0.0391 15.1458,0.1064 1.945,-0.0419 3.833,-0.0654 5.627,-0.0654 0.466,0 0.967,0.002 1.484,0.0049 l 0,-1.2686 z"
         transform="translate(85.9502,76.0273)"
         id="path3126" />
      <path
         style="fill:#9d9a90;fill-rule:evenodd;stroke:none"
         d="M 0,0.0176 0,1.2969 C 0.596,1.3008 1.213,1.3067 1.856,1.3135 L 1.856,0 C 1.232,0.0059 0.615,0.0117 0,0.0176 z"
         transform="translate(108.948,76.0029)"
         id="path3128" />
      <path
         style="fill:#9d9a90;fill-rule:evenodd;stroke:none"
         d="M 0,0.0225 0,1.3496 C 0.761,1.3594 1.544,1.3692 2.349,1.3818 L 2.349,0 C 1.56,0.0078 0.777,0.0147 0,0.0225 z"
         transform="translate(111.422,75.9746)"
         id="path3130" />
      <path
         style="fill:#9d9a90;fill-rule:evenodd;stroke:none"
         d="M 0,0.0206 0,1.419 C 0.732,1.4307 1.473,1.4434 2.226,1.4571 L 2.226,0 C 1.482,0.0069 0.739,0.0137 0,0.0206 z"
         transform="translate(114.451,75.9482)"
         id="path3132" />
      <path
         style="fill:#9d9a90;fill-rule:evenodd;stroke:none"
         d="M 0,0.0195 0,1.498 C 0.74,1.5117 1.483,1.5263 2.226,1.541 L 2.226,0 C 1.484,0.0068 0.742,0.0136 0,0.0195 z"
         transform="translate(117.48,75.9219)"
         id="path3134" />
      <path
         style="fill:#9d9a90;fill-rule:evenodd;stroke:none"
         d="M 0,0.0156 0,1.5654 C 0.619,1.5781 1.239,1.5908 1.854,1.6045 L 1.854,0 C 1.237,0.0049 0.618,0.0107 0,0.0156 z"
         transform="translate(120.016,75.9043)"
         id="path3136" />
      <path
         style="fill:#9d9a90;fill-rule:evenodd;stroke:none"
         d="m 0,0.0214 0,1.626 C 0.878,1.6669 1.747,1.6875 2.597,1.707 L 2.597,0 C 1.735,0.0068 0.868,0.0146 0,0.0214 z"
         transform="translate(122.612,75.877)"
         id="path3138" />
      <path
         style="fill:#9d9a90;fill-rule:evenodd;stroke:none"
         d="M 0,0.0244 0,2.3134 4.885,0 C 3.336,0.0058 1.699,0.0146 0,0.0244 z"
         transform="translate(135.596,75.7813)"
         id="path3140" />
      <path
         style="fill:#9d9a90;fill-rule:evenodd;stroke:none"
         d="M 0,0.0176 0,1.7451 C 0.76,1.7627 1.507,1.7812 2.225,1.7988 L 2.225,0 C 1.488,0.0059 0.746,0.0117 0,0.0176 z"
         transform="translate(125.889,75.8545)"
         id="path3142" />
      <path
         style="fill:#9d9a90;fill-rule:evenodd;stroke:none"
         d="M 0,0.0235 0,1.836 C 1.196,1.8653 2.322,1.8936 3.338,1.9199 L 3.338,0 C 2.242,0.0078 1.127,0.0157 0,0.0235 z"
         transform="translate(128.548,75.8281)"
         id="path3144" />
      <path
         style="fill:#9d9a90;fill-rule:evenodd;stroke:none"
         d="M 0,0.0136 0,1.9619 C 0.724,1.9804 1.382,1.998 1.956,2.0136 l 0.097,0.462 c 0.016,9e-4 0.033,0.0019 0.05,0.0019 L 2.103,0 C 1.411,0.0049 0.71,0.0088 0,0.0136 z"
         transform="translate(132.751,75.8096)"
         id="path3146" />
      <path
         style="fill:#9d9a90;fill-rule:evenodd;stroke:none"
         d="m 0,0 0,2.04 2.659,0.0615 0.062,-1.6074 -1.856,0 L 0,0 z"
         transform="translate(103.075,69.584)"
         id="path3148" />
      <path
         style="fill:#9d9a90;fill-rule:evenodd;stroke:none"
         d="M 0.68,0.1846 0.742,3.709 0,3.709 0.062,5.3164 7.481,5.378 7.605,3.462 3.71,3.4004 3.277,0 0.68,0.1846 z"
         transform="translate(106.661,66.3691)"
         id="path3150" />
      <path
         style="fill:#9d9a90;fill-rule:evenodd;stroke:none"
         d="M 0,4.3896 0.062,6.7383 11.747,6.5537 11.686,4.3896 7.419,4.1426 7.234,0.123 3.339,0 3.525,4.0801 0,4.3896 z"
         transform="translate(115.316,65.3799)"
         id="path3152" />
      <path
         style="fill:#9d9a90;fill-rule:evenodd;stroke:none"
         d="M 0,4.6377 0.124,6.6153 11.252,6.4307 11.129,3.834 7.975,3.7715 7.604,0 3.462,0.1241 3.586,4.2666 0,4.6377 z"
         transform="translate(128.3,65.1318)"
         id="path3154" />
      <path
         style="fill:#9d9a90;fill-rule:evenodd;stroke:none"
         d="m 15.456,0.6182 -2.968,-0.124 0,2.04 L 6.058,2.9678 5.934,0 2.411,0 2.349,2.9678 0,3.1534 0.061,5.2549 c 0,0 4.135,0.1016 8.456,0.3203 L 15.521,2.2598 15.456,0.6182 z"
         transform="translate(140.851,65.998)"
         id="path3156" />
      <path
         style="fill:#9d9a90;fill-rule:evenodd;stroke:none"
         d="M 0,0.6602 0.33,3.833 c 0,0 5.1524,-0.5762 6.5528,-0.5762 L 6.8828,0 C 4.5761,0 4.5908,0.1113 0,0.6602 z"
         transform="translate(85.7852,59.6914)"
         id="path3158" />
      <path
         style="fill:#9d9a90;fill-rule:evenodd;stroke:none"
         d="M 0.041,1.4013 0,4.2871 1.9785,5.5644 10.0977,5.1523 13.0655,3.0498 12.7774,0.083 11.0869,0 11.0459,2.0195 7.9141,2.2666 7.543,0.4121 5.6465,0.33 5.8936,2.8857 2.5147,3.1738 2.2666,1.3193 0.041,1.4013 z"
         transform="translate(82.6113,53.8389)"
         id="path3160" />
      <path
         style="fill:#161413;fill-rule:evenodd;stroke:none"
         d="m 21.2195,16.9199 -0.004,0.001 c 0.795,-0.7607 1.536,-1.7314 1.536,-2.7217 0,-0.7832 -1.113,-1.1133 -1.113,-1.1133 0,0 0.248,-0.6591 0.248,-1.4834 0,-2.7617 -3.751,-3.2148 -3.751,-3.2148 l -2.554,-0.165 -3.6694,-0.4121 c 0,0 -0.3711,-5.3174 -6.1826,-7.2549 C 4.5449,0.2402 3.0957,0 1.2734,2.1182 1.1923,2.2109 2.2255,2.9678 2.1435,3.0703 c -0.04,0.1221 -1.1406,-0.29 -1.0908,0.0381 0.2539,1.6631 1.4619,5.4023 1.4619,5.4023 0,0 0.6592,0.3301 1.2363,0.1651 0.5772,-0.1651 1.4844,-3.833 1.4844,-3.833 L 5.8115,4.6777 c 0,0 -1.0293,4.2041 -1.0293,5.3584 0,1.1543 0.4531,3.709 0.4531,3.709 0,0 -0.6182,-0.206 -1.2363,-0.206 -0.6192,0 -1.9785,-1.3184 -2.3086,-1.3184 -0.3301,0 -0.4941,0.8242 -0.4941,1.5664 0,0.7412 1.8955,4.0801 1.8955,4.0801 l -2.9063,2.9053 c 0,0 -0.1855,1.5459 0.1856,1.917 0.371,0.3711 1.4013,0 1.4013,0 l 2.1026,-3.709 1.4013,0 -0.247,-0.9893 1.6894,-2.6377 2.9268,0 0.206,0.6592 -0.7011,0.1641 0,0.9072 1.9785,0.8652 -0.2061,-1.6894 0.3711,-0.2061 0,-0.7002 3.1316,0 0.866,0.8653 c 0,0 -0.824,0.041 -0.824,0.288 0,0.4952 1.031,1.6075 1.031,1.6075 l -1.361,2.8437 -1.1131,0.2061 c 0,0 -0.2471,-0.4942 -0.6182,-0.4942 -0.3711,0 -0.9892,0.4942 -0.9892,0.9893 0,0.4941 1.0722,1.0713 1.0722,1.0713 l 1.9783,-0.3291 3.297,-2.7617 0,-1.2364 1.526,0 c 0,0 0.637,-0.3818 1.365,-0.9834 l 0.303,0.3028 -0.679,0.5976 -2.267,2.2676 c 0,0 -0.764,-0.2266 -0.99,0 -0.227,0.2266 -0.493,0.1641 -0.494,0.4941 0,0.3301 0.453,0.4532 0.453,0.4532 l 0.124,0.8662 1.524,0 0.577,-1.0723 c 0,0 2.597,-1.7725 2.597,-2.2256 0,-0.4531 -0.247,-0.9062 -0.247,-0.9062 l -0.337,-1.2774 z M 3.5869,16.4248 C 3.0429,15.6699 2.7207,14.6934 2.7207,14.6934 l 2.1845,0.4121 -1.3183,1.3193 z m 13.9716,1.0303 c -0.164,-0.1651 0.289,-0.7832 0.289,-0.7832 0,0 2.102,-0.501 3.214,-2.6787 0,0 0.289,0.3291 0.289,0.7002 0,1.0722 -3.627,2.9267 -3.792,2.7617 z"
         transform="translate(86.8975,67.3789)"
         id="path3162" />
      <path
         style="fill:#161413;fill-rule:evenodd;stroke:none"
         d="M 7.2923,8.3457 C 7.2143,8.205 7.1403,8.0722 7.1063,7.8369 7.0493,7.4257 7.1993,6.7617 7.2623,6.54 l 0.15,-0.5273 -0.378,0.0595 C 7.0453,5.7304 6.9723,4.8066 5.9863,4.2431 5.7693,4.1269 5.5933,4.1562 5.4623,4.2177 c 0,-0.167 0,-0.6543 0,-0.8652 0.582,-0.123 1.278,-0.4492 1.278,-1.1563 0,-0.0195 0,-0.038 -0.001,-0.0576 C 6.7153,0.6748 4.8183,0.0937 4.7373,0.0693 4.6443,0.0293 3.5157,0 3.0088,0.5078 2.8037,0.7129 2.7315,0.9531 2.7315,1.1855 c 0,0.2949 0.1181,0.5752 0.2314,0.75 l 0.4239,0.7647 c 0,0 0.125,0.125 0.1982,0.1992 0.0176,0.125 0.0947,0.6836 0.1455,1.0508 l -0.2266,0 -0.2128,0 -0.0977,0.1884 C 3.1455,4.2304 2.9063,4.708 2.9063,5.0839 c 0,0.2461 0.1211,0.4307 0.2851,0.5538 -0.0586,0.0585 -0.1132,0.124 -0.1611,0.1982 0,-0.1035 0,-0.2373 0,-0.2373 l -1.4922,0 -0.6728,1.6338 C 0.794,7.4355 0.7344,7.7744 0.7344,8.1318 c 0,0.2842 0.0371,0.5801 0.1348,0.8301 0.1621,0.4131 0.8769,1.3037 1.2519,1.7568 -0.1308,0.1299 -0.3095,0.3086 -0.3095,0.3086 l -0.0264,0.0596 c -0.0674,0.1543 -0.1006,0.3008 -0.1006,0.4306 0,0.2139 0.0898,0.3848 0.2617,0.4727 0.0996,0.0508 0.377,0.0713 0.6494,0.0635 0,0.0937 0,0.1455 0,0.1914 -0.082,0.1474 -1.0693,1.9004 -1.0693,1.9004 l -0.0117,0.0478 c -0.0567,0.2383 -0.1211,0.5733 -0.1211,0.8887 0,0.0986 0.0098,0.1934 0.0244,0.2842 L 1.209,15.8066 C 1.1944,15.8125 1.1836,15.8105 1.168,15.8173 0.8194,15.9619 0,16.6142 0,17.2216 c 0,0.5489 0.5,0.8448 0.7744,0.9668 0.8838,2.6016 1.2793,2.6192 1.4932,2.6192 l 0.0996,0 0.128,-0.043 c 0.4541,-0.2822 0.246,-2.1465 0.1044,-2.5635 L 2.5733,18.124 2.5157,18.0664 C 2.1651,17.7158 2.0352,17.0966 2.0342,17.0908 1.9698,16.6201 1.9053,16.3437 1.8467,16.1709 l 0.1338,-0.1934 c 0.2471,0.0254 0.5342,-0.085 0.8076,-0.3271 l 0.0293,-0.0264 1.041,-1.458 c 0.2705,-0.3321 0.9799,-1.0928 1.2789,-1.2862 0.136,-0.0888 0.264,-0.1093 0.425,-0.1337 l 0.489,-0.1358 c 0.46,-0.2305 0.889,-1.1982 0.664,-1.7627 -0.157,-0.3896 -0.526,-0.5176 -0.92,-0.5527 0.108,-0.0899 0.169,-0.1709 0.182,-0.1904 l 0.064,-0.0928 -0.002,-0.1123 c 0,-0.0059 0,-0.0088 0,-0.0147 l 0.971,10e-4 0.098,-0.082 c 0.038,-0.0313 0.372,-0.3262 0.373,-0.8457 0,-0.2696 -0.1,-0.4522 -0.189,-0.6123 z"
         transform="translate(95.5527,62.0684)"
         id="path3164" />
      <path
         style="fill:#e7e5e1;fill-rule:evenodd;stroke:none"
         d="M 1.917,4.4522 C 2.1026,4.6367 2.1367,2.9541 1.917,2.3086 1.4844,1.875 1.3399,1.1543 1.3399,1.1543 c 0,0 -0.1241,-0.9072 -0.2471,-1.0303 C 0.9688,0 0,0.7422 0,1.2158 0,1.6895 0.7012,1.917 0.7012,1.917 c 0,0 0.8447,2.5352 1.2158,2.5352 z"
         transform="translate(95.9033,78.0742)"
         id="path3166" />
      <path
         style="fill:#e7e5e1;fill-rule:evenodd;stroke:none"
         d="m 0.8457,9.7686 c 0.2471,0.2471 0.7002,-0.165 0.7002,-0.165 0,0 0.7627,-1.1123 1.0312,-1.4424 C 2.8447,7.8311 3.5865,7.0284 3.9375,6.8008 4.2875,6.5743 4.5955,6.6563 4.8845,6.5127 5.1735,6.3682 5.5435,5.6055 5.3785,5.1934 5.2145,4.7813 4.5345,4.8428 4.0185,4.8633 3.5035,4.8838 3.1533,5.0694 3.1533,5.0694 l -0.2881,1.1133 0,-1.1543 L 2.123,4.8223 2.123,4.5342 1.7314,4.1426 1.5459,3.5039 c 0,0 2.3706,-1.1748 2.5556,-1.6084 C 4.2875,1.4629 3.8545,0.5772 3.8545,0.5772 3.8545,0.5772 3.0508,0 2.6182,0 2.1846,0 2,1.1133 2,1.1133 l -0.3301,0 0,-0.9482 -0.9062,0 c 0,0 -0.4746,1.1123 -0.5772,1.4013 C 0.083,1.8545 0,2.5762 0.1865,3.0498 0.3721,3.5245 1.585,4.9561 1.585,4.9561 L 1.0967,5.4444 c 0,0 -0.1612,0.3672 0,0.4492 0.1611,0.083 0.8398,0 0.8398,0 l 0,0.6602 -1.0908,1.9375 c 0,0 -0.2471,1.0302 0,1.2773 z"
         transform="translate(96.5625,67.8525)"
         id="path3168" />
      <path
         style="fill:#e7e5e1;fill-rule:evenodd;stroke:none"
         d="M 0.1035,1.2989 C 0,0.9688 0.7422,0.6192 1.1339,0.4746 1.5249,0.3301 1.6079,0.1241 2.1229,0.0205 2.3499,0 2.3699,1.0928 2.3699,1.0928 c 0,0 -0.226,0.3291 -0.741,0.3291 -0.5156,0 -1.0312,0 -1.0312,0 0,0 -0.3917,0.2061 -0.4942,-0.123 z"
         transform="translate(98.8711,70.8818)"
         id="path3170" />
      <path
         style="fill:#e7e5e1;fill-rule:evenodd;stroke:none"
         d="m 0,0.2061 c 0,0 0.248,1.2578 0.33,1.6904 0.083,0.4326 0,1.1953 0,1.1953 l 0.949,0 c 0,0 0.247,-0.206 0.247,-0.5771 C 1.526,2.1436 1.237,2.0196 1.155,1.4424 1.072,0.8662 1.321,0 1.321,0 L 0,0.2061 z"
         transform="translate(101.158,68.5117)"
         id="path3172" />
      <path
         style="fill:#e7e5e1;fill-rule:evenodd;stroke:none"
         d="m 2.3484,1.8545 1.072,0 c 0,0 0.145,-1.0302 -0.865,-1.6074 C 2.2874,0.1026 2.2254,0.4532 1.9784,0.4532 1.7314,0.4532 1.5254,0 1.5254,0 L 0.247,0 C 0.247,0 0,0.4737 0,0.7832 0,1.0918 0.3711,1.1543 0.3711,1.1543 l 0.7412,0 0.3711,-0.3711 0.783,0 c 0,0 -0.35,0.3916 -0.329,0.6592 0.021,0.2676 0.411,0.4121 0.411,0.4121 z"
         transform="translate(98.8096,66.3691)"
         id="path3174" />
      <path
         style="fill:#e7e5e1;fill-rule:evenodd;stroke:none"
         d="m 1.2158,3.5654 1.0302,0 0,-0.8662 c 0,0 1.318,-0.123 1.277,-0.9062 C 3.504,0.5567 1.772,0.041 1.772,0.041 c 0,0 -0.9888,-0.041 -1.3804,0.3506 -0.3916,0.3916 0,0.9893 0,0.9893 l 0.4121,0.7422 0.2471,0.247 0.165,1.1953 z"
         transform="translate(98.418,62.4326)"
         id="path3176" />
      <path
         style="fill:#e7e4dd;fill-rule:evenodd;stroke:none"
         d="m 1.6611,0.8027 c 0.2852,0.1787 0.7168,0.4482 0.8897,0.4482 0.5546,0 0.9677,-0.3105 0.9716,-0.3144 L 4.7236,0.0214 C 4.2197,0.0136 3.7158,0 3.2099,0 2.1367,0 1.0674,0.0214 0,0.0546 0.6318,0.164 1.1738,0.498 1.6611,0.8027 z"
         transform="translate(93.168,43.6563)"
         id="path3178" />
      <path
         style="fill:#e7e4dd;fill-rule:evenodd;stroke:none"
         d="m 71.793,0 0.0625,1.75 c 0,0.0098 0.0381,0.9356 0.4267,2 l 0.0674,0.1875 0,0.1983 c 0,1.3418 -0.789,2.7285 -2.1103,2.7285 -0.5547,0 -0.9102,-0.2441 -1.1231,-0.3906 -0.1699,-0.1162 -0.33,-0.2276 -0.9785,-0.2276 -1.1455,0 -1.9541,0.6172 -1.9619,0.6231 L 64.8701,7.8819 63.0537,1.7637 63.4571,1.2989 C 63.5557,1.1856 64.334,0.334 65.4512,0.0684 36.4805,1.2579 10.4268,14.1221 0,19.9649 l 7.6953,3.6435 3.2539,-0.6162 0.5147,2.4004 0.3408,0.1612 4.9561,-0.583 0,-2.1641 5.3173,-0.8652 1.3604,2.8437 3.7715,-0.6182 0,-2.5966 4.2656,-0.6182 1.3594,2.7822 4.081,0 0,-2.7207 5.75,-0.3701 0.6182,2.04 4.9463,-0.3711 0.3701,-1.9169 4.8848,-0.4942 0.3086,1.793 4.9463,0 0,-1.1133 -0.4327,-3.7715 -2.8437,-1.8545 -0.4336,-4.0185 3.6484,0 0.4326,1.4218 1.9161,0 0,-2.6582 2.7822,0 0.6807,1.8545 1.7929,-0.1855 0,-2.2256 3.4414,0 0.6387,2.7822 c 0,0 1.3193,0.4942 5.1934,0.4942 1.483,0 2.597,-1.0508 3.894,-1.0508 3.834,0 6.493,5.5644 6.493,5.5644 0,0 -3.03,0.0821 -5.626,0.8653 -0.722,0 -0.928,-0.7412 -1.793,-0.7412 -1.546,0 -2.205,1.4834 -3.401,1.4834 -0.454,0 -0.948,-0.5567 -1.8551,-0.5567 -0.9063,0 -1.834,0.8662 -2.4727,0.8662 -0.6387,0 -1.0713,-1.0312 -1.0713,-1.5459 0,-0.5156 0.8858,-1.6689 0.8858,-1.6689 0,0 -0.2051,-0.8867 -0.8858,-0.8867 -0.6806,0 -2.5761,1.0713 -2.5761,1.0713 l -0.3096,3.7714 0.3711,3.4629 0.6181,1.1641 -0.1582,0.7676 c 0.7832,0.4287 1.4327,0.9238 1.9678,1.4472 0.0069,-0.3271 0.0615,-0.6308 0.127,-0.8183 l 0.6728,-1.6338 1.4922,0 c 0,0 0,0.1338 0,0.2373 0.0479,-0.0742 0.1025,-0.1397 0.1611,-0.1982 -0.164,-0.1231 -0.2851,-0.3077 -0.2851,-0.5538 0,-0.3759 0.2392,-0.8535 0.2871,-0.9453 l 0.0977,-0.1884 0.2128,0 0.2266,0 C 72.5791,21.9659 72.502,21.4073 72.4844,21.2823 72.4112,21.2081 72.2862,21.0831 72.2862,21.0831 l -0.4239,-0.7647 c -0.1133,-0.1748 -0.2314,-0.4551 -0.2314,-0.75 0,-0.2324 0.0722,-0.4726 0.2773,-0.6777 0.5069,-0.5078 1.6355,-0.4785 1.7285,-0.4385 0.081,0.0244 1.978,0.6055 2.002,2.0693 0.001,0.0196 0.001,0.0381 0.001,0.0576 0,0.7071 -0.696,1.0333 -1.278,1.1563 0,0.1299 0,0.3623 0,0.5625 l 0.237,-0.3252 1.793,0 0.525,3.1836 0.618,0.6182 2.38,0 -0.185,-3.6787 4.421,-0.2784 0.494,3.4629 6.244,0 0,-4.2666 5.657,0 0.248,4.0498 7.3263,0 0.186,-4.3896 5.719,0 0.216,3.6474 5.41,0.1856 0.432,-3.1221 4.823,0.2783 0.371,2.4727 4.575,0 0.277,-2.1328 4.081,0 0.316,2.1875 8.924,-4.2256 C 128.759,13.9737 101.64,0.6006 71.793,0 z"
         transform="translate(26.6533,43.6855)"
         id="path3180" />
      <path
         style="fill:#9d9a90;fill-rule:evenodd;stroke:none"
         d="M 0,2.6582 C 0,2.2871 0.4326,1.6387 1.0195,1.6387 c 0.5879,0 0.3409,0.3398 1.0821,0.3398 C 2.8437,1.9785 5.9357,0 7.9757,0 c 2.04,0 3.276,2.6582 3.276,2.6582 0,0 -0.556,0.4326 -1.236,0.4326 -0.68,0 -0.928,-0.5557 -1.484,-0.5557 -0.556,0 -4.513,1.9776 -6.3676,1.9776 C 0.3086,4.5127 0,3.0293 0,2.6582 z"
         transform="translate(97.8203,56.6006)"
         id="path3182" />
      <path
         style="fill:#9d9a90;fill-rule:evenodd;stroke:none"
         d="m 0,0.9268 1.1748,3.957 c 0,0 1.0713,-0.8653 2.6582,-0.8653 1.5869,0 1.5459,0.6182 2.1016,0.6182 0.5566,0 0.9892,-0.8037 0.9892,-1.6074 C 6.46,1.7617 6.4297,0.6797 6.4297,0.6797 c 0,0 -0.6797,0.5566 -1.6689,0.5566 C 3.7715,1.2363 2.7822,0 1.793,0 0.8037,0 0,0.9268 0,0.9268 z"
         transform="translate(90.958,44.792)"
         id="path3184" />
      <path
         style="fill:none;stroke:#ffffff;stroke-width:0.35330701;stroke-linecap:butt;stroke-linejoin:miter;stroke-dasharray:none"
         d="m 0,1.5508 c 0,0 1.2646,-1.0899 2.1298,-1.3067 C 2.996,0.0273 5.9111,0 5.9111,0 5.9111,0 6.164,1.1455 5.9638,1.9131 5.6699,2.207 0,1.5508 0,1.5508"
         transform="translate(91.5479,46.1553)"
         id="path3186" />
      <path
         style="fill:#ffffff;fill-rule:evenodd;stroke:none"
         d="m 1.7774,3.6631 c 0,-1.4229 0.5293,-2.708 1.3799,-3.6309 C 3.044,0.0127 2.9297,0 2.8125,0 1.2588,0 0,1.7578 0,3.9258 0,6.0938 1.2588,7.8516 2.8125,7.8516 3.0801,7.8516 3.3379,7.7959 3.583,7.6992 2.4873,6.7695 1.7774,5.3096 1.7774,3.6631 z"
         transform="translate(81.9316,45.5957)"
         id="path3188" />
      <path
         style="fill:#ffffff;fill-rule:evenodd;stroke:none"
         d="M 2.5,1.8497 3.3545,0 2.8574,2.0274 4.5684,1.8653 2.8506,2.3516 3.2998,3.7676 2.4941,2.4385 0,4.2549 2.3115,2.1875 1.042,1.2373 2.5,1.8497 z"
         transform="translate(48.583,58.1191)"
         id="path3190" />
      <path
         style="fill:#ffffff;fill-rule:evenodd;stroke:none"
         d="M 2.2334,2.5117 2.6621,0 2.7227,2.6084 4.7344,1.8554 2.8203,3.0029 3.8233,4.5644 2.418,3.2226 0,6.2275 2.1153,2.9804 0.2744,2.2461 2.2334,2.5117 z"
         transform="translate(69.3027,50.5391)"
         id="path3192" />
      <path
         style="fill:#ffffff;fill-rule:evenodd;stroke:none"
         d="M 1.0293,1.6865 1.6104,2.5234 0.8623,1.7959 0.4991,2.5742 0.7237,1.7109 0,1.5459 0.7774,1.5351 0.626,0 0.9317,1.5195 1.6631,1.2138 1.0293,1.6865 z"
         transform="translate(64.04,59.0967)"
         id="path3194" />
      <path
         style="fill:#ffffff;fill-rule:evenodd;stroke:none"
         d="M 4.042,1.7227 5.918,0 4.3692,2.0996 6.42,2.7354 4.2051,2.4707 4.042,4.3194 3.752,2.3985 0,3.294 3.6612,2.0215 2.6553,0.3145 4.042,1.7227 z"
         transform="translate(55.5986,53.4902)"
         id="path3196" />
      <path
         style="fill:#ffffff;fill-rule:evenodd;stroke:none"
         d="M 2.5986,1.1104 4.0478,0.624 2.6865,1.3965 3.6552,2.2461 2.5058,1.5605 1.9648,2.5332 2.2753,1.4102 0,0.9844 2.3173,1.1816 2.1826,0 2.5986,1.1104 z"
         transform="translate(74.377,58.6084)"
         id="path3198" />
      <path
         style="fill:#ffffff;fill-rule:evenodd;stroke:none"
         d="M 2.02,0.8613 2.959,0 2.184,1.0498 3.21,1.3672 2.102,1.2354 2.02,2.1592 1.876,1.1992 0,1.6465 1.83,1.0107 1.328,0.1563 2.02,0.8613 z"
         transform="translate(104.049,62.2539)"
         id="path3200" />
      <path
         style="fill:#ffffff;fill-rule:evenodd;stroke:none"
         d="M 2.1611,0.9366 3.3808,0.5723 2.2256,1.1778 3.0088,1.9122 2.0703,1.3086 1.5937,2.1045 1.8828,1.1768 0,0.7598 1.9238,0.9883 1.8447,0 2.1611,0.9366 z"
         transform="translate(35.4512,60.9521)"
         id="path3202" />
      <path
         style="fill:#ffffff;fill-rule:evenodd;stroke:none"
         d="M 2.829,1.2061 4.143,0 3.058,1.4698 4.494,1.9151 2.944,1.7295 2.829,3.0235 2.626,1.6788 0,2.3057 2.564,1.4151 1.859,0.2198 2.829,1.2061 z"
         transform="translate(118.029,58.0605)"
         id="path3204" />
      <path
         style="fill:#ffffff;fill-rule:evenodd;stroke:none"
         d="M 1.622,1.8145 0.242,2.9434 1.409,1.5391 0,1.0127 1.538,1.2852 1.726,0 1.853,1.3545 4.51,0.878 1.9,1.6211 2.536,2.8545 1.622,1.8145 z"
         transform="translate(109.499,49.1533)"
         id="path3206" />
      <path
         style="fill:#ffffff;fill-rule:evenodd;stroke:none"
         d="M 2.576,4.211 4.04,6.2949 2.16,4.4863 1.264,6.4385 1.813,4.2764 0,3.875 1.944,3.8369 1.542,0 2.329,3.7959 4.153,3.0186 2.576,4.211 z"
         transform="translate(122.148,49.0908)"
         id="path3208" />
      <path
         style="fill:#ffffff;fill-rule:evenodd;stroke:none"
         d="M 4.08,1.9727 6.626,1.9063 4.08,2.4717 5.207,4.2989 3.711,2.6446 2.373,3.9307 3.417,2.292 0,0.502 3.596,1.9483 3.96,0 4.08,1.9727 z"
         transform="translate(128.816,56.4355)"
         id="path3210" />
      <path
         style="fill:#ffffff;fill-rule:evenodd;stroke:none"
         d="M 2.19,2.5157 2.589,0 2.681,2.6075 4.682,1.8311 2.783,3 3.805,4.5498 2.383,3.2246 0,6.2578 2.078,2.9864 0.228,2.2735 2.19,2.5157 z"
         transform="translate(149.256,56.9443)"
         id="path3212" />
      <path
         style="fill:#ea621d;fill-rule:evenodd;stroke:none"
         d="M 155.48,21.9707 C 155.122,21.751 119.177,0 78.5,0 37.8233,0 1.878,21.751 1.5196,21.9707 L 0,22.835 c 0.8379,1.9043 1.4649,3.3311 1.6817,3.8252 C 8.1035,22.7295 41.4317,3.4981 78.5,3.4981 c 37.068,0 70.396,19.2314 76.818,23.1621 0.215,-0.4902 0.834,-1.8975 1.661,-3.7793 l -1.499,-0.9102 z"
         transform="translate(17.8779,33.9902)"
         id="path3214" />
      <path
         style="fill:#ea621d;fill-rule:evenodd;stroke:none"
         d="M 11.7324,0 C 7.3242,1.6953 3.374,3.3974 0,4.958 L 2.0059,8.9707 C 5.2432,7.4746 9.0254,5.8457 13.2402,4.2226 L 11.7324,0 z"
         transform="translate(29.4414,39.5059)"
         id="path3216" />
      <path
         style="fill:#ea621d;fill-rule:evenodd;stroke:none"
         d="M 8.7002,0 C 5.6465,0.9854 2.7373,2.0108 0,3.044 L 1.5078,7.2666 C 4.2295,6.2374 7.1269,5.2149 10.1709,4.2354 L 8.7002,0 z"
         transform="translate(42.2217,36.0605)"
         id="path3218" />
      <path
         style="fill:#ea621d;fill-rule:evenodd;stroke:none"
         d="M 8.9893,0 C 5.8838,0.8017 2.877,1.666 0,2.5742 L 1.4697,6.8086 C 4.1895,5.9521 7.0283,5.1367 9.957,4.3789 L 8.9893,0 z"
         transform="translate(51.9912,33.1465)"
         id="path3220" />
      <path
         style="fill:#ea621d;fill-rule:evenodd;stroke:none"
         d="M 10.4853,0 C 6.8867,0.6485 3.3828,1.4131 0,2.2617 L 0.9668,6.6406 C 4.2734,5.8096 7.6982,5.0596 11.2139,4.4248 L 10.4853,0 z"
         transform="translate(62.0674,30.6035)"
         id="path3222" />
      <path
         style="fill:#ea621d;fill-rule:evenodd;stroke:none"
         d="M 7.1592,0 C 4.7393,0.2949 2.3487,0.6435 0,1.0488 L 0.7285,5.4736 C 2.9346,5.0917 5.1797,4.7626 7.4502,4.4824 L 7.1592,0 z"
         transform="translate(73.6572,29.3604)"
         id="path3224" />
      <path
         style="fill:#ea621d;fill-rule:evenodd;stroke:none"
         d="M 8.3391,0.0654 C 7.0908,0.0264 5.8398,0 4.582,0 3.0479,0 1.5205,0.0332 0,0.0908 L 0.0195,4.5791 C 1.5332,4.5205 3.0537,4.4863 4.582,4.4863 c 1.25,0 2.4951,0.0205 3.7351,0.0606 l 0.022,-4.4815 z"
         transform="translate(91.7959,28.3828)"
         id="path3226" />
      <path
         style="fill:#ea621d;fill-rule:evenodd;stroke:none"
         d="M 8.163,0.5878 C 5.483,0.3125 2.766,0.1093 0.021,0 L 0,4.4882 C 2.67,4.5976 5.313,4.7978 7.921,5.0703 L 8.163,0.5878 z"
         transform="translate(101.234,28.4854)"
         id="path3228" />
      <path
         style="fill:#ea621d;fill-rule:evenodd;stroke:none"
         d="M 10.206,2.0879 C 7.041,1.3106 3.776,0.6035 0.425,0 L 0,4.4697 C 3.137,5.043 6.198,5.709 9.168,6.4395 l 1.038,-4.3516 z"
         transform="translate(119.768,30.6123)"
         id="path3230" />
      <path
         style="fill:#ea621d;fill-rule:evenodd;stroke:none"
         d="M 11.054,2.8604 C 7.86,1.8467 4.516,0.8799 1.039,0 L 0,4.3535 c 3.348,0.8487 6.571,1.7803 9.649,2.7569 l 1.405,-4.25 z"
         transform="translate(130.023,32.9707)"
         id="path3232" />
      <path
         style="fill:#ea621d;fill-rule:evenodd;stroke:none"
         d="M 8.726,2.541 C 6.398,1.6796 3.953,0.8251 1.406,0 L 0,4.2509 c 2.526,0.8194 4.946,1.666 7.248,2.5215 L 8.726,2.541 z"
         transform="translate(140.74,36.1729)"
         id="path3234" />
      <path
         style="fill:#ea621d;fill-rule:evenodd;stroke:none"
         d="M 8.52,2.8155 C 6.323,1.8877 3.974,0.9414 1.478,0 L 0,4.2324 C 2.361,5.125 4.592,6.0235 6.676,6.9033 L 8.52,2.8155 z"
         transform="translate(149.039,39.1074)"
         id="path3236" />
      <path
         style="fill:#ea621d;fill-rule:evenodd;stroke:none"
         d="M 19.547,8.8183 C 19.439,8.7529 16.215,6.7959 10.662,4.0566 L 9.955,5.499 8.947,5.0058 9.654,3.5635 C 7.387,2.4629 4.76,1.2529 1.844,0 L 0,4.0879 c 10.539,4.5254 17.046,8.4599 17.198,8.5537 l 1.354,0.8633 1.853,-4.2119 -0.858,-0.4747 z"
         transform="translate(156.747,42.3633)"
         id="path3238" />
      <path
         style="fill:#ea621d;fill-rule:evenodd;stroke:none"
         d="M 8.814,1.2198 C 6.009,0.7354 3.149,0.3233 0.243,0 L 0,4.4795 C 2.844,4.8008 5.643,5.211 8.388,5.6905 L 8.814,1.2198 z"
         transform="translate(110.271,29.1943)"
         id="path3240" />
      <path
         style="fill:#ea621d;fill-rule:evenodd;stroke:none"
         d="M 8.7432,0 C 5.792,0.1377 2.8741,0.3769 0,0.7031 L 0.2901,5.1865 C 3.0762,4.8652 5.9043,4.6289 8.7627,4.4912 L 8.7432,0 z"
         transform="translate(81.9316,28.5186)"
         id="path3242" />
      <path
         style="fill:#ea621d;fill-rule:evenodd;stroke:none"
         d="M 12.8066,0 C 5.3769,3.4922 0.9707,6.167 0.8447,6.2441 L 0,6.751 c 0.0107,0.0254 1.7988,4.0888 1.8105,4.1152 L 3.1923,10.0674 C 3.3154,9.9922 7.5996,7.3984 14.8125,4.0117 L 12.8066,0 z"
         transform="translate(15.6182,44.9375)"
         id="path3244" />
      <path
         style="fill:#ea621d;fill-rule:evenodd;stroke:none"
         d="M 8.9043,0 C 5.8066,0.9141 2.8291,1.878 0,2.8663 L 1.2402,7.1797 C 4.0761,6.1846 7.0683,5.2149 10.1816,4.2969 L 8.9043,0 z"
         transform="translate(44.7725,29.3525)"
         id="path3246" />
      <path
         style="fill:#ea621d;fill-rule:evenodd;stroke:none"
         d="M 9.7881,0 C 6.4873,0.0146 3.2197,0.1601 0,0.4179 L 0.1396,4.9062 C 3.3145,4.6484 6.5352,4.5019 9.7881,4.4863 L 9.7881,0 z"
         transform="translate(86.0293,22.7803)"
         id="path3248" />
      <path
         style="fill:#ea621d;fill-rule:evenodd;stroke:none"
         d="M 7.8675,0.2783 C 5.2705,0.1084 2.6465,0.0117 0,0 L 0,4.4863 C 2.5859,4.498 5.1505,4.5947 7.6895,4.7617 l 0.178,-4.4834 z"
         transform="translate(96.9385,22.7793)"
         id="path3250" />
      <path
         style="fill:#ea621d;fill-rule:evenodd;stroke:none"
         d="M 9.301,1.5684 C 6.39,0.9717 3.412,0.4414 0.376,0 L 0,4.4766 c 2.882,0.4238 5.71,0.9296 8.477,1.498 L 9.301,1.5684 z"
         transform="translate(115.614,24.2461)"
         id="path3252" />
      <path
         style="fill:#ea621d;fill-rule:evenodd;stroke:none"
         d="M 11.382,2.5966 C 7.991,1.6494 4.463,0.7715 0.825,0 L 0,4.4062 c 3.514,0.7471 6.919,1.5967 10.196,2.5117 l 1.186,-4.3213 z"
         transform="translate(125.189,26.043)"
         id="path3254" />
      <path
         style="fill:#ea621d;fill-rule:evenodd;stroke:none"
         d="M 9.212,3.1944 C 6.929,2.1641 4.428,1.0869 1.727,0 L 0,4.1367 c 2.604,1.0479 5.019,2.086 7.225,3.0791 L 9.212,3.1944 z"
         transform="translate(154.869,35.4658)"
         id="path3256" />
      <path
         style="fill:#ea621d;fill-rule:evenodd;stroke:none"
         d="M 6.964,2.7881 C 6.883,2.7383 5.116,1.6641 1.97,0 L 0,4.0313 c 2.906,1.541 4.534,2.5293 4.61,2.5762 L 5.321,7.0362 C 5.33,7.0166 7.136,2.9092 7.145,2.8897 L 6.964,2.7881 z"
         transform="translate(172.271,43.6191)"
         id="path3258" />
      <path
         style="fill:#ea621d;fill-rule:evenodd;stroke:none"
         d="M 10.132,3.9727 C 7.943,2.834 5.203,1.4727 1.988,0 L 0,4.0205 C 3.244,5.5049 5.993,6.873 8.162,8.0039 l 1.97,-4.0312 z"
         transform="translate(163.116,39.125)"
         id="path3260" />
      <path
         style="fill:#ea621d;fill-rule:evenodd;stroke:none"
         d="M 10.537,3.959 9.286,6.7607 8.262,6.3037 9.529,3.4638 C 7.328,2.3886 4.825,1.2187 2.04,0 1.326,1.3994 0.512,2.9961 0,4.001 c 10.831,4.7226 17.46,8.7617 17.619,8.8593 l 0.192,-0.3086 C 17.86,12.4375 17.91,12.3252 17.959,12.2129 18.53,10.9131 19.054,9.7236 19.483,8.748 18.334,8.0683 15.211,6.2754 10.537,3.959 z"
         transform="translate(162.206,32.5928)"
         id="path3262" />
      <path
         style="fill:#ea621d;fill-rule:evenodd;stroke:none"
         d="M 0.3701,2.6533 C 2.0117,2.2939 3.6689,1.9472 5.3555,1.6318 5.1875,0.9531 5.043,0.3691 4.9512,0 3.748,0.2246 2.541,0.4638 1.332,0.7168 1.3086,0.7216 1.2861,0.7265 1.2637,0.7314 0.8437,0.8193 0.4209,0.9179 0,1.0097 l 0.3701,1.6436 z"
         transform="translate(64.0215,17.0186)"
         id="path3264" />
      <path
         style="fill:#ea621d;fill-rule:evenodd;stroke:none"
         d="M 9.2559,0 C 8.9346,0.0723 8.6152,0.1387 8.2939,0.2119 7.9717,0.2871 7.6533,0.3633 7.333,0.4395 6.6523,0.5996 5.9707,0.7657 5.29,0.9356 4.5889,1.1094 3.8916,1.2871 3.2012,1.4678 3.0537,1.5059 2.9062,1.5459 2.7588,1.584 1.8281,1.8311 0.9121,2.085 0,2.3409 L 0.5537,3.9356 C 3.4814,3.1143 6.5156,2.3496 9.626,1.6475 L 9.2559,0 z"
         transform="translate(53.6709,18.2695)"
         id="path3266" />
      <path
         style="fill:#ea621d;fill-rule:evenodd;stroke:none"
         d="M 8.7558,0 C 5.7246,0.8711 2.7969,1.79 0,2.7373 L 0.6113,4.3076 C 3.3906,3.3672 6.2949,2.4531 9.3076,1.5898 L 8.7558,0 z"
         transform="translate(43.834,20.917)"
         id="path3268" />
      <path
         style="fill:#ea621d;fill-rule:evenodd;stroke:none"
         d="M 3.1983,0 C 2.1133,0.374 1.044,0.7509 0,1.1308 0.1084,1.4785 0.2881,2.0517 0.5039,2.7382 1.5831,2.3447 2.6856,1.9541 3.8086,1.5664 L 3.1983,0 z"
         transform="translate(39.5732,24.0186)"
         id="path3270" />
      <path
         style="fill:#ea621d;fill-rule:evenodd;stroke:none"
         d="M 6.00974,0 C 3.10644,1.5039 1.05274,2.6719 0,3.2871 c 0.03125,0.0723 0.07914,0.1817 0.13964,0.3184 0.125,0.2852 0.3096,0.7031 0.541,1.2314 0.9766,-0.5742 3.0742,-1.7744 6.1084,-3.3447 L 6.00974,0 z"
         transform="translate(9.93066,35.4697)"
         id="path3272" />
      <path
         style="fill:#ea621d;fill-rule:evenodd;stroke:none"
         d="M 0.7686,3.0879 C 1.8906,2.5713 3.0635,2.042 4.2959,1.502 3.9688,0.8613 3.6865,0.3067 3.5293,0 2.2959,0.541 1.123,1.0703 0,1.5889 l 0.7686,1.499 z"
         transform="translate(23.7041,30.0908)"
         id="path3274" />
      <path
         style="fill:#ea621d;fill-rule:evenodd;stroke:none"
         d="M 5.748,0 C 3.6035,1.004 1.6767,1.9512 0,2.8057 L 0.7783,4.2969 C 2.4502,3.4454 4.374,2.5 6.5156,1.4981 L 5.748,0 z"
         transform="translate(16.9385,32.1523)"
         id="path3276" />
      <path
         style="fill:#ea621d;fill-rule:evenodd;stroke:none"
         d="M 5.447,2.1231 C 3.987,1.4385 2.426,0.7276 0.766,0 0.601,0.3233 0.328,0.8594 0,1.502 1.698,2.2451 3.293,2.9707 4.779,3.669 L 5.447,2.1231 z"
         transform="translate(164.756,30.0908)"
         id="path3278" />
      <path
         style="fill:#ea621d;fill-rule:evenodd;stroke:none"
         d="M 7.258,3.295 C 5.438,2.3379 3.227,1.2178 0.668,0 L 0,1.5459 C 2.52,2.7461 4.693,3.8477 6.484,4.7891 L 7.258,3.295 z"
         transform="translate(170.55,32.6943)"
         id="path3280" />
      <path
         style="fill:#ea621d;fill-rule:evenodd;stroke:none"
         d="M 0.774,0 0,1.4942 C 1.973,2.5489 3.373,3.3536 4.12,3.792 4.29,3.4024 4.437,3.0704 4.552,2.8096 4.666,2.5469 4.752,2.3536 4.801,2.2422 4.007,1.7784 2.64,0.9991 0.774,0 z"
         transform="translate(178.025,36.5146)"
         id="path3282" />
      <path
         style="fill:#ea621d;fill-rule:evenodd;stroke:none"
         d="M 2.542,0 C 1.6963,0.0684 0.8496,0.1368 0,0.2198 0,0.5694 0,1.169 0,1.8926 0.8438,1.8086 1.6934,1.7393 2.542,1.67 l 0,-1.67 z"
         transform="translate(82.6406,14.8486)"
         id="path3284" />
      <path
         style="fill:#ea621d;fill-rule:evenodd;stroke:none"
         d="m 0,0 0,1.669 c 0.877,0.0722 1.755,0.1445 2.625,0.2314 0,-0.7012 0,-1.3017 0,-1.6728 C 1.748,0.1426 0.874,0.0703 0,0 z"
         transform="translate(107.49,14.8408)"
         id="path3286" />
      <path
         style="fill:#ea621d;fill-rule:evenodd;stroke:none"
         d="M 9.548,2.2871 C 8.845,2.0918 8.138,1.8995 7.424,1.711 7.268,1.67 7.112,1.628 6.957,1.587 6.27,1.4073 5.577,1.2315 4.881,1.0577 4.196,0.8877 3.512,0.7207 2.828,0.5596 2.509,0.4844 2.19,0.4082 1.87,0.333 1.365,0.2168 0.863,0.1123 0.359,0 L 0,1.6377 c 3.129,0.6944 6.169,1.4619 9.115,2.2784 l 0.433,-1.629 z"
         transform="translate(128.922,18.1484)"
         id="path3288" />
      <path
         style="fill:#ea621d;fill-rule:evenodd;stroke:none"
         d="M 8.528,2.4883 C 5.928,1.628 3.226,0.792 0.431,0 L 0,1.6289 C 2.768,2.4141 5.444,3.2422 8.021,4.0938 L 8.528,2.4883 z"
         transform="translate(139.117,20.7402)"
         id="path3290" />
      <path
         style="fill:#ea621d;fill-rule:evenodd;stroke:none"
         d="M 0.506,0 0,1.6055 C 1.53,2.1211 3.027,2.6445 4.478,3.1738 4.693,2.4883 4.879,1.8936 4.982,1.5664 3.53,1.0381 2.036,0.5156 0.506,0 z"
         transform="translate(148.202,23.583)"
         id="path3292" />
      <path
         style="fill:#ea621d;fill-rule:evenodd;stroke:none"
         d="M 13.3301,3.6386 C 12.2256,4.0976 11.166,4.5507 10.1348,5 10.1348,5 7.9649,0.7675 7.5733,0 5.1778,1.0478 2.9873,2.0615 1.0196,3.0087 L 3.1729,6.9482 C 3.75,6.6708 4.3535,6.3867 4.9698,6.0986 l 0.5107,1 C 3.4365,8.0527 1.5957,8.9541 0,9.7656 l 2.0235,4.0019 C 5.3906,12.0546 9.8584,9.9296 15.1768,7.7265 L 13.3301,3.6386 z"
         transform="translate(20.9365,32.5938)"
         id="path3294" />
      <path
         style="fill:#ea621d;fill-rule:evenodd;stroke:none"
         d="M 6.5098,8.0244 6.0059,7.0224 C 7.6016,6.1631 9.625,5.1113 12.0322,3.9385 L 9.8789,0 C 4.6836,2.539 1.2236,4.5244 0,5.248 c 0.0488,0.1104 2.2793,5.1807 2.2793,5.1807 0.0078,0.0195 1.8096,4.1152 1.8184,4.1348 l 0.7099,-0.4297 c 0.0889,-0.0547 2.2608,-1.3731 6.0879,-3.3536 L 8.8721,6.7773 C 8,7.2285 7.2149,7.6445 6.5098,8.0244 z"
         transform="translate(11.0664,36.0928)"
         id="path3296" />
      <path
         style="fill:#ea621d;fill-rule:evenodd;stroke:none"
         d="m 8.0976,6.2978 c 1.9737,-0.7011 4.0186,-1.3926 6.129,-2.0644 L 12.751,0 C 10.0986,0.8457 7.5439,1.7217 5.1074,2.6084 5.2021,2.9101 6.7871,7.9648 6.7871,7.9648 4.4082,8.8349 2.1357,9.7158 0,10.5879 l 1.8457,4.0869 C 4.2832,13.6816 6.8926,12.6767 9.6494,11.6904 L 8.0976,6.2978 z"
         transform="translate(35.3047,25.2178)"
         id="path3298" />
      <path
         style="fill:#ea621d;fill-rule:evenodd;stroke:none"
         d="M 16.7842,8.7041 15.6963,4.3545 C 14.2529,4.6787 12.831,5.0234 11.4258,5.3769 L 9.7969,0 C 6.4082,0.8593 3.1357,1.7939 0,2.7734 L 1.4756,7.0088 C 2.7295,6.6172 4.0117,6.2363 5.3095,5.8633 l 1.5967,5.3681 c 3.1709,-0.9131 6.4727,-1.7646 9.878,-2.5273 z"
         transform="translate(49.126,22.1055)"
         id="path3300" />
      <path
         style="fill:#ea621d;fill-rule:evenodd;stroke:none"
         d="M 15.9639,4.6211 C 14.2861,4.875 12.626,5.1553 10.9853,5.457 10.9853,5.457 9.8154,0.7324 9.6338,0 6.3359,0.6152 3.123,1.3242 0,2.0957 L 1.3018,6.3916 C 3.6934,5.8037 6.1406,5.2568 8.6367,4.7598 L 8.9082,5.8565 C 7.9004,6.0567 6.8975,6.2617 5.9062,6.4776 l 1.087,4.3505 c 3.0302,-0.6582 6.1425,-1.2392 9.3183,-1.7255 L 15.9639,4.6211 z"
         transform="translate(60.0127,19.7412)"
         id="path3302" />
      <path
         style="fill:#ea621d;fill-rule:evenodd;stroke:none"
         d="m 11.9697,0 c -2.1582,0.1182 -4.2988,0.2823 -6.417,0.4942 0,0.5048 0,5.6552 0,5.6552 C 3.6855,6.3428 1.8291,6.5596 0,6.8223 l 0.3486,4.4805 c 2.501,-0.3643 5.042,-0.6631 7.6133,-0.8946 L 7.7871,4.8008 C 9.1738,4.6807 10.5664,4.5733 11.9697,4.4932 l 0,-4.4932 z"
         transform="translate(77.0879,17.374)"
         id="path3304" />
      <path
         style="fill:#ea621d;fill-rule:evenodd;stroke:none"
         d="m 20.0643,2.0556 0,-1.6718 C 16.8763,0.1504 13.7193,0.0166 10.6338,0.0019 l 0,2.8028 c -0.1865,-0.002 -0.3731,-0.0069 -0.5606,-0.0069 -0.1875,0 -0.373,0.0069 -0.5605,0.0078 L 9.5127,0 C 6.3994,0.0146 3.2168,0.1474 0,0.3867 L 0,2.0576 C 2.8984,1.8427 5.834,1.7207 8.7949,1.6914 l 0,1.123 C 7.1465,2.833 5.5049,2.8759 3.874,2.9511 l 0,4.4922 c 2.0527,-0.0986 4.1182,-0.1592 6.1992,-0.1592 1.5528,0 3.0948,0.0391 4.6321,0.0957 l 0,-4.4902 C 13.9873,2.8642 13.2666,2.8437 12.5459,2.8281 l 0,-1.1182 c 2.5284,0.0469 5.0364,0.1641 7.5184,0.3457 z"
         transform="translate(86.3047,14.3682)"
         id="path3306" />
      <path
         style="fill:#ea621d;fill-rule:evenodd;stroke:none"
         d="m 7.983,6.2109 c 0,0 0,-4.8604 0,-5.6445 C 5.354,0.3027 2.688,0.1171 0,0 L 0,4.4921 C 1.284,4.5498 2.563,4.625 3.837,4.7168 l -0.222,5.6035 c 2.96,0.2207 5.882,0.54 8.755,0.9394 L 12.746,6.7861 C 11.173,6.5693 9.584,6.3779 7.983,6.2109 z"
         transform="translate(102.132,17.3018)"
         id="path3308" />
      <path
         style="fill:#ea621d;fill-rule:evenodd;stroke:none"
         d="M 2.943,3.0849 3.169,1.9853 C 4.05,2.1611 4.927,2.3408 5.796,2.5283 L 6.156,0.8886 C 5.917,0.8378 5.679,0.7812 5.442,0.7314 5.419,0.7265 5.396,0.7216 5.372,0.7168 4.163,0.4638 2.957,0.2246 1.753,0 1.73,0.0957 0.149,6.4824 0,7.082 3.155,7.665 6.233,8.3339 9.225,9.0654 L 10.362,4.7285 C 7.943,4.1367 5.467,3.5859 2.943,3.0849 z"
         transform="translate(122.03,17.0186)"
         id="path3310" />
      <path
         style="fill:#ea621d;fill-rule:evenodd;stroke:none"
         d="M 8.693,7.9365 10.256,2.5469 C 7.324,1.6494 4.282,0.791 1.136,0 L 0,4.3359 C 1.909,4.8154 3.773,5.3223 5.603,5.8467 L 4.12,11.249 c 3.211,0.919 6.285,1.8994 9.212,2.9063 L 14.844,9.9375 C 12.861,9.2549 10.805,8.585 8.693,7.9365 z"
         transform="translate(132.344,22.0166)"
         id="path3312" />
      <path
         style="fill:#ea621d;fill-rule:evenodd;stroke:none"
         d="m 8.238,8.2949 c 0,0 1.469,-4.6826 1.682,-5.3623 C 7.171,1.9316 4.271,0.9453 1.248,0 L 0,4.3056 c 2.136,0.669 4.205,1.3594 6.204,2.0606 l -1.892,5.2793 c 2.486,0.872 4.851,1.7617 7.091,2.6484 L 13.13,10.1572 C 11.561,9.5361 9.927,8.913 8.238,8.2949 z"
         transform="translate(142.424,24.8936)"
         id="path3314" />
    </g>
  </g>
</svg>
