<?xml version="1.0" encoding="UTF-8"?>
<!DOCTYPE svg PUBLIC "-//W3C//DTD SVG 1.1//EN" "http://www.w3.org/Graphics/SVG/1.1/DTD/svg11.dtd">
<!-- Creator: CorelDRAW -->
<svg xmlns="http://www.w3.org/2000/svg" xml:space="preserve" width="2321px" height="2952px" shape-rendering="geometricPrecision" text-rendering="geometricPrecision" image-rendering="optimizeQuality" fill-rule="evenodd" clip-rule="evenodd"
viewBox="0 0 2385.06 3033.98"
 xmlns:xlink="http://www.w3.org/1999/xlink">
 <g id="Ebene_x0020_1">
  <metadata id="CorelCorpID_0Corel-Layer"/>
  <path fill="#F9D052" d="M471.393 2345.06c0,0 176.963,183.627 -113.196,483.619 0,0 64.5372,-110.491 54.4304,-275.379 0,0 -2.86201,199.427 -181.279,287.815 0,0 125.095,-168.423 82.6172,-351.684l-0.258528 0.0436948 0.219688 -0.200268c-0.0740384,-0.326497 -0.137153,-0.649353 -0.214833,-0.970996l53.4776 -48.5813c3.75533,-40.4954 23.3051,-96.2694 102.953,-93.5299l1.25016 -1.13242z"/>
  <path fill="none" stroke="#1F1A17" stroke-width="1.69924" d="M471.393 2345.06c0,0 176.963,183.627 -113.196,483.619 0,0 64.5372,-110.491 54.4304,-275.379 0,0 -2.86201,199.427 -181.279,287.815 0,0 125.095,-168.423 82.6172,-351.684l-0.258528 0.0436948 0.219688 -0.200268c0,0 -0.214833,-0.970996 -0.214833,-0.970996l53.4776 -48.5813c3.75533,-40.4954 23.3051,-96.2694 102.953,-93.5299l1.25016 -1.13242z"/>
  <path fill="#F9D052" d="M1919.39 2334.36c0,0 -0.595949,0.649353 -1.63613,1.87524 -0.0631147,0.00970996 -0.101955,0.0145649 -0.101955,0.0145649l0.0436948 0.0485498c-17.2109,20.3848 -155.192,201.659 122.019,479.973 0,0 -66.1721,-109.526 -58.4879,-274.604 0,0 5.8102,199.393 185.508,285.14 0,0 -128.118,-167.203 -87.5923,-351.543l-53.5371 -47.2183c-7.67087,-92.8806 -86.7038,-93.2132 -104.423,-92.1038l-1.79149 -1.58272z"/>
  <path fill="none" stroke="#1F1A17" stroke-width="1.69924" d="M1919.39 2334.36c0,0 -0.595949,0.649353 -1.63613,1.87524 0,0 -0.101955,0.0145649 -0.101955,0.0145649l0.0436948 0.0485498c-17.2109,20.3848 -155.192,201.659 122.019,479.973 0,0 -66.1721,-109.526 -58.4879,-274.604 0,0 5.8102,199.393 185.508,285.14 0,0 -128.118,-167.203 -87.5923,-351.543l-53.5371 -47.2183c-7.67087,-92.8806 -86.7038,-93.2132 -104.423,-92.1038l-1.79149 -1.58272z"/>
  <path fill="#AE9521" d="M2175.54 1576.52l-5.1657 -699.901c0,0 49.4941,-31.2685 49.0013,-97.0158 0,0 19.1541,3.72013 22.5125,-58.1906 0,0 11.1373,-42.6 -54.025,-61.4507l-2086.25 15.4085c0,0 -24.8284,15.6197 -24.5249,58.1614 0,0 -11.1519,46.4913 34.866,61.6218 0,0 -10.7756,94.8044 23.6607,94.5653l5.14628 697.967c0,0 881.755,-760.586 2034.77,-11.1664z"/>
  <path fill="none" stroke="#1F1A17" stroke-width="1.69924" d="M2175.54 1576.52l-5.1657 -699.901c0,0 49.4941,-31.2685 49.0013,-97.0158 0,0 19.1541,3.72013 22.5125,-58.1906 0,0 11.1373,-42.6 -54.025,-61.4507l-2086.25 15.4085c0,0 -24.5249,15.6197 -24.5249,58.1614 0,0 -11.1519,46.4913 34.866,61.6218 0,0 -10.7756,94.8044 23.6607,94.5653l5.14628 697.967c0,0 881.755,-760.586 2034.77,-11.1664z"/>
  <path fill="#AE9521" d="M967.052 564.554l393.923 -2.92512 -0.654208 -88.925 -175.068 1.31327 -1.30356 -174.902 64.5906 -0.444231 -0.429666 -57.5849 -68.4139 0.5122 -0.566819 -76.9138 -60.3328 0.449085 0.565605 76.9247 -60.8013 0.434521 0.45394 61.4313 64.5955 -0.478215 1.25987 171.006 -158.497 1.13728 0.678483 88.965zm-71.9338 104.94c0,0 524.017,0.00970996 523.993,-3.84757l-0.781651 -104.408 -523.974 3.88156 0.762232 104.374z"/>
  <path fill="none" stroke="#1F1A17" stroke-width="1.69924" d="M967.052 564.554l393.923 -2.92512 -0.654208 -88.925 -175.068 1.31327 -1.30356 -174.902 64.5906 -0.444231 -0.429666 -57.5849 -68.4139 0.5122 -0.566819 -76.9138 -60.3328 0.449085 0.565605 76.9247 -60.8013 0.434521 0.45394 61.4313 64.5955 -0.478215 1.25987 171.006 -158.497 1.13728 0.678483 88.965zm-71.9338 104.94c0,0 523.993,0.00970996 523.993,-3.84757l-0.781651 -104.408 -523.974 3.88156 0.762232 104.374z"/>
  <line fill="none" stroke="#1F1A17" stroke-width="1.69924" x1="1077.3" y1="474.808" x2="1253.22" y2= "473.495" />
  <path fill="#AE9521" stroke="#1F1A17" stroke-width="1.69924" d="M126.374 675.162l-1.73323 -235.885c0,0 76.4113,-12.1617 75.6248,-116.569 0,0 -4.15465,-46.3699 -46.5495,-88.5936l-0.625078 -85.0738 107.084 -0.781651 -0.952789 -131.481 325.07 -2.39229 1.00013 131.476 84.1562 -0.620223 0.644498 88.9311c0,0 -34.4072,4.13523 -33.8076,85.308 0,0 -22.6545,38.8544 62.043,115.55l1.7041 232.027c0,0 -577.486,8.13452 -573.658,8.10539z"/>
  <polygon fill="#1F1910" stroke="#1F1A17" stroke-width="0.849621" points="260.175,148.259 411.254,147.151 335.985,185.42 "/>
  <polygon fill="#1F1910" stroke="#1F1A17" stroke-width="0.849621" points="434.188,146.965 585.292,145.862 508.109,184.141 "/>
  <line fill="none" stroke="#1F1A17" stroke-width="1.69924" x1="260.175" y1="148.259" x2="585.292" y2= "145.862" />
  <line fill="none" stroke="#1F1A17" stroke-width="0.849621" x1="418.602" y1="104.551" x2="418.915" y2= "147.078" />
  <path fill="#AE9521" d="M1614.16 664.211l-1.76721 -235.899c0,0 76.4647,-12.1678 75.6782,-116.575 0,0 -4.16436,-46.3699 -46.5544,-88.6131l-0.625078 -85.0641 107.094 -0.781651 -0.977064 -131.476 325.104 -2.39715 0.980706 131.481 84.1416 -0.625078 0.668773 88.9359c0,0 -34.4169,4.12066 -33.8064,85.302 0,0 -22.6849,38.8653 62.0175,115.585l1.71381 232.002c0.0339848,3.87791 -573.668,8.12481 -573.668,8.12481z"/>
  <path fill="none" stroke="#1F1A17" stroke-width="1.69924" d="M1614.16 664.211l-1.76721 -235.899c0,0 76.4647,-12.1678 75.6782,-116.575 0,0 -4.16436,-46.3699 -46.5544,-88.6131l-0.625078 -85.0641 107.094 -0.781651 -0.977064 -131.476 325.104 -2.39715 0.980706 131.481 84.1416 -0.625078 0.668773 88.9359c0,0 -34.4169,4.12066 -33.8064,85.302 0,0 -22.6849,38.8653 62.0175,115.585l1.71381 232.002c0,3.87791 -573.668,8.12481 -573.668,8.12481z"/>
  <polygon fill="#1F1A17" stroke="#1F1A17" stroke-width="0.849621" points="1747.98,137.278 1899.05,136.16 1823.79,174.449 "/>
  <polygon fill="#1F1A17" stroke="#1F1A17" stroke-width="0.849621" points="1922,135.999 2073.09,134.886 1995.9,173.175 "/>
  <line fill="none" stroke="#1F1A17" stroke-width="1.69924" x1="1747.98" y1="137.278" x2="2073.09" y2= "134.886" />
  <polygon fill="#1F1A17" stroke="#1F1A17" stroke-width="0.849621" points="476.597,103.833 475.958,17.6321 361.224,18.4671 361.873,104.683 "/>
  <line fill="none" stroke="#1F1A17" stroke-width="0.509773" x1="417.641" y1="234.105" x2="418.1" y2= "294.017" />
  <line fill="none" stroke="#1F1A17" stroke-width="0.509773" x1="303.331" y1="294.877" x2="303.77" y2= "354.83" />
  <line fill="none" stroke="#1F1A17" stroke-width="0.509773" x1="532.79" y1="293.173" x2="533.234" y2= "353.13" />
  <line fill="none" stroke="#1F1A17" stroke-width="0.509773" x1="265.584" y1="621.929" x2="265.961" y2= "674.142" />
  <line fill="none" stroke="#1F1A17" stroke-width="0.509773" x1="575.376" y1="619.624" x2="575.762" y2= "671.848" />
  <line fill="none" stroke="#1F1A17" stroke-width="0.509773" x1="262.381" y1="188.843" x2="262.709" y2= "231.389" />
  <line fill="none" stroke="#1F1A17" stroke-width="0.509773" x1="572.182" y1="186.548" x2="572.5" y2= "231.023" />
  <line fill="none" stroke="#1F1A17" stroke-width="0.509773" x1="264.271" y1="444.058" x2="264.969" y2= "540.732" />
  <line fill="none" stroke="#1F1A17" stroke-width="0.509773" x1="574.062" y1="441.778" x2="574.785" y2= "538.427" />
  <line fill="none" stroke="#1F1A17" stroke-width="0.509773" x1="419.179" y1="440.962" x2="419.823" y2= "527.989" />
  <polygon fill="#1F1A17" stroke="#1F1A17" stroke-width="0.849621" points="1961.83,92.7446 1961.2,7.65266 1846.48,8.50714 1847.1,93.5894 "/>
  <line fill="none" stroke="#1F1A17" stroke-width="0.509773" x1="1905.43" y1="223.124" x2="1905.87" y2= "283.051" />
  <line fill="none" stroke="#1F1A17" stroke-width="0.509773" x1="1791.15" y1="283.896" x2="1791.59" y2= "343.854" />
  <line fill="none" stroke="#1F1A17" stroke-width="0.509773" x1="2020.61" y1="282.202" x2="2021.06" y2= "342.14" />
  <line fill="none" stroke="#1F1A17" stroke-width="0.509773" x1="1753.38" y1="610.933" x2="1753.76" y2= "663.171" />
  <line fill="none" stroke="#1F1A17" stroke-width="0.509773" x1="2063.21" y1="608.663" x2="2063.58" y2= "660.901" />
  <line fill="none" stroke="#1F1A17" stroke-width="0.509773" x1="1906.35" y1="93.5603" x2="1906.69" y2= "136.107" />
  <line fill="none" stroke="#1F1A17" stroke-width="0.509773" x1="1750.18" y1="177.882" x2="1750.51" y2= "220.394" />
  <line fill="none" stroke="#1F1A17" stroke-width="0.509773" x1="2060" y1="175.583" x2="2060.35" y2= "220.057" />
  <line fill="none" stroke="#1F1A17" stroke-width="0.509773" x1="1752.09" y1="433.092" x2="1752.79" y2= "529.761" />
  <line fill="none" stroke="#1F1A17" stroke-width="0.509773" x1="2061.89" y1="430.797" x2="2062.61" y2= "527.472" />
  <line fill="none" stroke="#1F1A17" stroke-width="0.509773" x1="1906.96" y1="429.991" x2="1907.61" y2= "517.013" />
  <polygon fill="#C2C1C1" stroke="#1F1A17" stroke-width="0.509773" points="200.295,844.767 200.637,891.156 "/>
  <polygon fill="#C2C1C1" stroke="#1F1A17" stroke-width="0.509773" points="391.539,843.351 391.88,889.745 "/>
  <polygon fill="#C2C1C1" stroke="#1F1A17" stroke-width="0.509773" points="636.325,841.54 636.647,887.948 "/>
  <polygon fill="#C2C1C1" stroke="#1F1A17" stroke-width="0.509773" points="846.654,839.991 847.001,886.386 "/>
  <polygon fill="#C2C1C1" stroke="#1F1A17" stroke-width="0.509773" points="1057.02,838.429 1057.38,884.823 "/>
  <polygon fill="#C2C1C1" stroke="#1F1A17" stroke-width="0.509773" points="1271.21,836.867 1271.55,883.261 "/>
  <polygon fill="#C2C1C1" stroke="#1F1A17" stroke-width="0.509773" points="1481.55,835.305 1481.91,881.708 "/>
  <polygon fill="#C2C1C1" stroke="#1F1A17" stroke-width="0.509773" points="1691.94,833.762 1692.27,880.16 "/>
  <polygon fill="#C2C1C1" stroke="#1F1A17" stroke-width="0.509773" points="1906.09,832.185 1906.44,878.588 "/>
  <path fill="#F9D052" stroke="#1F1A17" stroke-width="1.69924" d="M1201.01 3030.57c364.227,-2.67024 657.354,-303.479 654.634,-671.734 -2.71393,-368.303 -300.221,-664.683 -664.473,-662.008 -364.29,2.69573 -657.388,303.445 -654.679,671.748 2.72971,368.279 300.261,664.678 664.518,661.993z"/>
  <path fill="none" stroke="#1F1A17" stroke-width="1.69924" d="M1612.14 1857.67c0,0 -360.985,383.001 10.5122,1005.92"/>
  <path fill="none" stroke="#1F1A17" stroke-width="1.69924" d="M763.275 1863.93c0,0 366.595,377.654 4.30151,1005.93"/>
  <line fill="none" stroke="#1F1A17" stroke-width="1.69924" x1="1177.6" y1="1700.49" x2="1187.38" y2= "3030.28" />
  <line fill="none" stroke="#1F1A17" stroke-width="1.69924" x1="1204.79" y1="1700.3" x2="1214.6" y2= "3030.06" />
  <path fill="#1F1A17" d="M1136.9 2506.95c-0.419956,21.0184 -0.0825346,29.2949 -8.67099,40.8862 -15.4922,21.7661 -35.2811,29.5438 -53.4545,29.6409 -24.5589,0.175993 -53.4691,-12.3474 -73.8527,-46.5641 -21.5318,-36.2036 -36.2339,-96.5959 -36.6684,-157.804 -0.46365,-63.1305 13.1097,-120.593 34.9061,-158.369 21.5512,-36.4779 51.3293,-53.889 78.1688,-54.0832 13.1436,-0.122588 29.1141,4.89625 42.0332,13.055 7.59319,5.05889 7.60775,7.6029 9.13586,25.4389l2.46997 32.4786c0.615368,6.35638 1.21617,12.0986 1.25501,18.4453 0.0485498,7.04579 -2.14347,10.8594 -5.21425,10.8934 -12.8803,0.10681 -14.2712,-75.7085 -52.0138,-75.4403 -18.4562,0.151718 -35.3588,23.7979 -45.6951,57.6674 -10.6397,35.1549 -14.7943,81.7287 -14.4727,123.768 0.279161,41.413 4.82463,87.3192 14.872,122.263 10.8934,37.5181 27.8603,63.5213 47.9611,63.3999 10.9176,-0.0873896 20.9031,-9.06667 29.2075,-24.4618 8.26681,-15.9753 13.1242,-37.0289 17.9586,-58.7222 1.39095,-7.04579 3.31474,-13.4119 6.91349,-13.4556 6.15733,-0.0449085 6.00075,14.5977 5.80049,24.1535l-0.639643 26.8104z"/>
  <path fill="#1F1A17" d="M1332.28 2316.8c0.117733,19.1335 -0.400536,30.0026 9.39924,29.9249 5.89758,-0.0546185 18.1673,-0.151718 23.4945,-2.75884 7.79224,-3.22735 11.0293,-17.2594 13.1873,-33.861 1.05474,-8.3093 2.89599,-21.073 7.9391,-21.1264 4.44837,0.0145649 5.616,7.61746 5.68397,16.5373 -0.419956,17.8748 -0.277948,36.9707 -0.697903,54.8503 0.111664,17.8263 0.819278,36.9318 1.50383,54.7678 0.0728247,8.29959 -0.986774,17.8894 -5.70339,17.8991 -13.441,0.121374 -4.09153,-61.129 -33.6996,-60.9142l-12.0209 1.31327c-9.25237,1.39095 -8.61273,10.2877 -8.495,27.5277l0.615368 81.5527c0.258528,37.6152 -0.733102,52.8877 16.9281,59.1567 3.63638,1.21132 8.95379,3.10476 9.03269,14.5649 0.0922446,9.57887 -2.97853,12.1423 -6.58699,12.152 -14.5407,0.122588 -28.5533,-2.28912 -43.1025,-2.19202 -13.4179,0.108023 -26.791,2.74913 -40.2478,2.84623 -3.8767,0.0194199 -6.71808,-2.47483 -6.78605,-12.0792 -0.0728247,-10.1797 4.09639,-13.373 7.43054,-14.6863 18.4465,-7.15745 17.4852,-17.9974 17.1623,-59.4055l-1.67011 -226.886c-0.263383,-38.216 0.733102,-55.4414 -17.2158,-61.691 -3.60725,-1.289 -8.93437,-1.21132 -9.0072,-12.0403 -0.0691834,-10.1991 2.71393,-12.7528 6.61976,-12.7868 25.6925,-0.171138 52.0138,2.15804 77.7209,1.9869 17.9088,-0.132298 36.3262,-2.85715 54.2058,-2.96396 7.30917,-0.0534048 9.26208,0.53162 9.38346,18.387l0.444231 61.1788c0.0400536,8.28502 -1.27443,17.2352 -5.46306,17.2352 -5.31741,0.0436948 -8.50107,-15.2483 -11.0888,-24.1001 -4.32093,-15.8928 -6.59549,-25.4425 -14.2518,-33.6499 -8.14908,-8.9016 -18.2219,-8.17821 -27.1563,-8.11995 -3.35964,0.0582597 -12.3037,-1.1919 -15.6148,3.95438 -2.77826,4.4775 -2.68966,15.3162 -2.65567,22.3475l0.712468 91.0794z"/>
  <polygon fill="#AE9521" stroke="#1F1A17" stroke-width="0.849621" points="139.624,1432.97 2174.38,1418 "/>
  <polygon fill="#AE9521" stroke="#1F1A17" stroke-width="0.849621" points="138.799,1320.85 2173.54,1305.83 "/>
  <polygon fill="#AE9521" stroke="#1F1A17" stroke-width="0.849621" points="138.057,1220.32 2172.79,1205.31 "/>
  <polygon fill="#AE9521" stroke="#1F1A17" stroke-width="0.849621" points="137.135,1096.56 2171.89,1081.57 "/>
  <polygon fill="#AE9521" stroke="#1F1A17" stroke-width="0.849621" points="157.211,187.681 669.711,183.902 "/>
  <polygon fill="#AE9521" stroke="#1F1A17" stroke-width="0.849621" points="263.68,105.684 584.975,103.316 "/>
  <polygon fill="#AE9521" stroke="#1F1A17" stroke-width="0.849621" points="157.549,234.085 670.038,230.291 "/>
  <polygon fill="#AE9521" stroke="#1F1A17" stroke-width="0.849621" points="196.238,295.658 636.085,292.426 "/>
  <polygon fill="#AE9521" stroke="#1F1A17" stroke-width="0.849621" points="196.697,357.534 636.54,354.282 "/>
  <polygon fill="#AE9521" stroke="#1F1A17" stroke-width="0.849621" points="124.66,443.149 694.543,438.931 "/>
  <polygon fill="#AE9521" stroke="#1F1A17" stroke-width="0.849621" points="125.402,543.676 695.306,539.496 "/>
  <polygon fill="#AE9521" stroke="#1F1A17" stroke-width="0.849621" points="125.993,621.015 695.866,616.812 "/>
  <polygon fill="#AE9521" stroke="#1F1A17" stroke-width="0.849621" points="1644.97,176.71 2157.52,172.921 "/>
  <polygon fill="#AE9521" stroke="#1F1A17" stroke-width="0.849621" points="1751.48,94.7231 2072.77,92.3502 "/>
  <polygon fill="#AE9521" stroke="#1F1A17" stroke-width="0.849621" points="1645.32,223.113 2157.86,219.32 "/>
  <polygon fill="#AE9521" stroke="#1F1A17" stroke-width="0.849621" points="1684.04,284.702 2123.88,281.446 "/>
  <polygon fill="#AE9521" stroke="#1F1A17" stroke-width="0.849621" points="1684.5,346.568 2124.35,343.336 "/>
  <polygon fill="#AE9521" stroke="#1F1A17" stroke-width="0.849621" points="1612.42,432.163 2182.34,427.965 "/>
  <polygon fill="#AE9521" stroke="#1F1A17" stroke-width="0.849621" points="1613.18,532.715 2183.09,528.51 "/>
  <polygon fill="#AE9521" stroke="#1F1A17" stroke-width="0.849621" points="1613.75,610.053 2183.67,605.85 "/>
  <polygon fill="#AE9521" stroke="#1F1A17" stroke-width="0.849621" points="2170.37,876.621 135.617,889.721 "/>
  <polygon fill="#AE9521" stroke="#1F1A17" stroke-width="0.849621" points="112.336,845.417 2204.44,829.983 "/>
  <polygon fill="#AE9521" stroke="#1F1A17" stroke-width="0.849621" points="136.305,984.432 2171.06,969.442 "/>
  <polygon fill="#AE9521" stroke="#1F1A17" stroke-width="0.849621" points="111.956,795.156 2219.37,779.605 "/>
  <line fill="none" stroke="#1F1A17" stroke-width="0.509773" x1="1153.78" y1="474.237" x2="1154.43" y2= "563.162" />
  <line fill="none" stroke="#1F1A17" stroke-width="0.509773" x1="1066.49" y1="567.668" x2="1067.25" y2= "668.244" />
  <line fill="none" stroke="#1F1A17" stroke-width="0.509773" x1="1234.78" y1="566.444" x2="1235.52" y2= "666.984" />
  <polygon fill="#C2C1C1" stroke="#1F1A17" stroke-width="0.509773" points="420.878,672.99 421.767,792.875 "/>
  <polygon fill="#C2C1C1" stroke="#1F1A17" stroke-width="0.509773" points="631.222,671.457 632.116,791.298 "/>
  <polygon fill="#C2C1C1" stroke="#1F1A17" stroke-width="0.509773" points="841.586,669.904 842.475,789.78 "/>
  <polygon fill="#C2C1C1" stroke="#1F1A17" stroke-width="0.509773" points="1051.95,668.341 1052.84,788.218 "/>
  <polygon fill="#C2C1C1" stroke="#1F1A17" stroke-width="0.509773" points="1262.29,666.798 1263.19,786.661 "/>
  <polygon fill="#C2C1C1" stroke="#1F1A17" stroke-width="0.509773" points="1472.66,665.246 1473.54,785.107 "/>
  <polygon fill="#C2C1C1" stroke="#1F1A17" stroke-width="0.509773" points="1683.02,663.703 1683.9,783.555 "/>
  <polygon fill="#C2C1C1" stroke="#1F1A17" stroke-width="0.509773" points="1893.36,662.136 1894.26,781.993 "/>
  <polygon fill="#C2C1C1" stroke="#1F1A17" stroke-width="0.509773" points="284.118,797.753 284.446,844.142 "/>
  <polygon fill="#C2C1C1" stroke="#1F1A17" stroke-width="0.509773" points="513.592,796.068 513.925,842.453 "/>
  <polygon fill="#C2C1C1" stroke="#1F1A17" stroke-width="0.509773" points="743.057,794.35 743.417,840.758 "/>
  <polygon fill="#C2C1C1" stroke="#1F1A17" stroke-width="0.509773" points="949.626,792.841 949.959,839.235 "/>
  <polygon fill="#C2C1C1" stroke="#1F1A17" stroke-width="0.509773" points="1163.79,791.269 1164.15,837.649 "/>
  <polygon fill="#C2C1C1" stroke="#1F1A17" stroke-width="0.509773" points="1377.97,789.683 1378.31,836.076 "/>
  <polygon fill="#C2C1C1" stroke="#1F1A17" stroke-width="0.509773" points="1584.48,788.174 1584.82,834.553 "/>
  <polygon fill="#C2C1C1" stroke="#1F1A17" stroke-width="0.509773" points="1798.67,786.572 1799,832.99 "/>
  <polygon fill="#C2C1C1" stroke="#1F1A17" stroke-width="0.509773" points="2058.73,784.653 2059.08,831.057 "/>
  <line fill="none" stroke="#1F1A17" stroke-width="0.509773" x1="284.787" y1="890.535" x2="285.48" y2= "983.333" />
  <line fill="none" stroke="#1F1A17" stroke-width="0.509773" x1="514.266" y1="888.852" x2="514.954" y2= "981.639" />
  <line fill="none" stroke="#1F1A17" stroke-width="0.509773" x1="743.75" y1="887.157" x2="744.443" y2= "979.964" />
  <line fill="none" stroke="#1F1A17" stroke-width="0.509773" x1="950.305" y1="885.62" x2="950.969" y2= "978.431" />
  <line fill="none" stroke="#1F1A17" stroke-width="0.509773" x1="1168.27" y1="884.017" x2="1168.96" y2= "976.85" />
  <line fill="none" stroke="#1F1A17" stroke-width="0.509773" x1="1382.48" y1="882.431" x2="1383.16" y2= "975.252" />
  <line fill="none" stroke="#1F1A17" stroke-width="0.509773" x1="1592.82" y1="880.884" x2="1593.53" y2= "973.676" />
  <line fill="none" stroke="#1F1A17" stroke-width="0.509773" x1="1803.2" y1="879.34" x2="1803.89" y2= "972.133" />
  <line fill="none" stroke="#1F1A17" stroke-width="0.509773" x1="2063.25" y1="877.427" x2="2063.96" y2= "970.233" />
  <line fill="none" stroke="#1F1A17" stroke-width="0.509773" x1="286.3" y1="1095.48" x2="287.194" y2= "1215.38" />
  <line fill="none" stroke="#1F1A17" stroke-width="0.509773" x1="745.278" y1="1092.1" x2="746.147" y2= "1211.98" />
  <line fill="none" stroke="#1F1A17" stroke-width="0.509773" x1="1169.8" y1="1088.96" x2="1170.68" y2= "1208.84" />
  <line fill="none" stroke="#1F1A17" stroke-width="0.509773" x1="1594.34" y1="1085.83" x2="1595.24" y2= "1205.72" />
  <line fill="none" stroke="#1F1A17" stroke-width="0.509773" x1="2064.79" y1="1082.37" x2="2065.68" y2= "1202.24" />
  <line fill="none" stroke="#1F1A17" stroke-width="0.509773" x1="287.951" y1="1319.73" x2="288.772" y2= "1428.03" />
  <line fill="none" stroke="#1F1A17" stroke-width="0.509773" x1="2066.44" y1="1306.64" x2="2067.23" y2= "1414.92" />
  <path fill="#AE9521" stroke="#1F1A17" stroke-width="1.69924" d="M1665.01 1332.8l-1.67011 -228.127c0,0 -12.7577,-170.059 166.988,-171.392 0,0 172.001,-20.6094 173.222,145.66l2.9494 398.293c0,0 -134.397,-72.4957 -341.489,-144.434z"/>
  <path fill="#AE9521" stroke="#1F1A17" stroke-width="1.69924" d="M796.408 1285.07l-1.47955 -201.073c0,0 -12.7285,-170.044 167.042,-171.372 0,0 171.962,-20.6239 173.193,145.665l1.39581 189.457c0,0 -179.804,-2.5343 -340.151,37.3226z"/>
  <path fill="#AE9521" stroke="#1F1A17" stroke-width="1.69924" d="M1220.71 1247.13l-1.23559 -166.255c0,0 -12.7431,-170.063 167.006,-171.361 0,0 171.973,-20.6385 173.218,145.651l1.79149 243.614c0,0 -206.858,-41.0039 -340.781,-51.6485z"/>
  <path fill="#AE9521" stroke="#1F1A17" stroke-width="1.69924" d="M380.641 1438.95l-2.38744 -324.81c0,0 -12.7492,-170.059 167.016,-171.387 0,0 171.944,-20.579 173.193,145.686l1.56816 212.682c0,0 -190.893,47.8009 -339.39,137.829z"/>
  <path fill="#872459" d="M445.359 1399.77l-2.22722 -301.584c0,0 -4.56004,-100.487 106.367,-101.288 0,0 107.074,-4.68263 107.748,88.1106l1.70895 231.983 -213.596 82.7786z"/>
  <path fill="#872459" d="M1730.21 1355.52l-1.96262 -266.815c0,0 -4.57946,-100.497 106.323,-101.303 0,0 107.107,-4.64864 107.767,88.1494l2.74306 367.331 -214.87 -87.3629z"/>
  <path fill="#872459" d="M861.322 1269.13l-1.48926 -201.092c0,0 -4.59524,-100.498 106.336,-101.298 0,0 107.094,-4.6535 107.757,88.1094l1.45042 193.368 -214.055 20.9128z"/>
  <path fill="#872459" d="M1285.77 1254.38l-1.39095 -189.467c0,0 -4.60495,-100.497 106.346,-101.322 0,0 107.045,-4.6535 107.728,88.1543l1.74779 235.861 -214.431 -33.2263z"/>
  <path fill="#AE9521" stroke="#1F1A17" stroke-width="1.69924" d="M543.259 670.153l-0.752522 -100.537c-0.604445,-81.2056 -123,-84.1501 -123,-84.1501 -110.936,0.781651 -121.741,89.8292 -121.741,89.8292l0.702758 96.6638c0,0 246.69,-1.82547 244.79,-1.80605z"/>
  <path fill="#872459" d="M499.271 670.48l-0.57046 -77.4903c-0.444231,-62.5989 -76.9684,-65.03 -76.9684,-65.03 -69.3521,0.52191 -75.9865,69.1118 -75.9865,69.1118l0.56075 74.5421c0,0 154.161,-1.14335 152.965,-1.13364z"/>
  <path fill="none" stroke="#1F1A17" stroke-width="1.69924" d="M499.271 670.48l-0.57046 -77.4903c-0.444231,-62.5989 -76.9684,-65.03 -76.9684,-65.03 -69.3521,0.52191 -75.9865,69.1118 -75.9865,69.1118l0.56075 74.5421c0,0 152.965,-1.13364 152.965,-1.13364z"/>
  <path fill="#AE9521" stroke="#1F1A17" stroke-width="1.69924" d="M2031.04 659.182l-0.727033 -100.526c-0.610514,-81.1971 -123.02,-84.195 -123.02,-84.195 -110.931,0.825346 -121.751,89.8389 -121.751,89.8389l0.712468 96.6978c0,0 246.69,-1.83518 244.786,-1.81576z"/>
  <path fill="#872459" d="M1987.06 659.509l-0.575315 -77.5c-0.468505,-62.5892 -76.9975,-65.0203 -76.9975,-65.0203 -69.2927,0.5122 -75.9476,69.1021 -75.9476,69.1021l0.55104 74.5421c0,0 154.161,-1.14335 152.969,-1.12393z"/>
  <path fill="none" stroke="#1F1A17" stroke-width="1.69924" d="M1987.06 659.509l-0.575315 -77.5c-0.468505,-62.5892 -76.9975,-65.0203 -76.9975,-65.0203 -69.2927,0.5122 -75.9476,69.1021 -75.9476,69.1021l0.55104 74.5421c0,0 152.969,-1.12393 152.969,-1.12393z"/>
  <line fill="none" stroke="#1F1A17" stroke-width="1.69924" x1="368.293" y1="547.705" x2="337.436" y2= "511.173" />
  <line fill="none" stroke="#1F1A17" stroke-width="1.69924" x1="515.345" y1="515.685" x2="479.219" y2= "546.884" />
  <line fill="none" stroke="#1F1A17" stroke-width="1.69924" x1="345.746" y1="597.071" x2="297.926" y2= "597.443" />
  <line fill="none" stroke="#1F1A17" stroke-width="1.69924" x1="542.702" y1="595.621" x2="498.711" y2= "595.968" />
  <line fill="none" stroke="#1F1A17" stroke-width="1.69924" x1="1856.1" y1="536.738" x2="1825.24" y2= "500.207" />
  <line fill="none" stroke="#1F1A17" stroke-width="1.69924" x1="2003.13" y1="504.714" x2="1967.03" y2= "535.908" />
  <line fill="none" stroke="#1F1A17" stroke-width="1.69924" x1="1833.54" y1="586.091" x2="1785.71" y2= "586.452" />
  <line fill="none" stroke="#1F1A17" stroke-width="1.69924" x1="2030.5" y1="584.669" x2="1986.51" y2= "584.987" />
  <path fill="#F9D052" stroke="#1F1A17" stroke-width="1.69924" d="M90.2625 1615.24c0,0 312.721,-346.977 1076.84,-369.3 0,0 801.268,-26.9961 1095.23,379.392 61.8379,85.4828 158.419,212.268 -252.085,364.881 0,0 81.0793,-40.4954 63.2883,-111.654 0,0 -161.441,-332.867 -925.841,-330.128 0,0 -557.517,10.9856 -839.039,348.715 0,0 -46.3444,72.9606 64.8504,105.165 0,0 -492.624,-115.335 -283.25,-387.072z"/>
  <path fill="#F9D052" stroke="#1F1A17" stroke-width="1.69924" d="M373.513 2002.31c0,0 48.7913,-136.555 210.08,-101.649 0,0 56.7159,74.7557 -28.2159,119.46 0,0 -528.753,300.144 -187.44,460.266 0,0 -243.566,81.4653 -347.681,-175.327 0,0 -91.3513,-229.64 151.115,-379.08l202.142 76.3288z"/>
  <path fill="#F9D052" stroke="#1F1A17" stroke-width="1.69924" d="M373.513 2002.31c0,0 40.8571,-134.201 210.08,-101.649l-172.92 -100.112c0,0 -91.293,69.4395 -111.355,115.438 0,0 -13.3196,63.8199 74.195,86.3227z"/>
  <path fill="#F9D052" stroke="#1F1A17" stroke-width="1.69924" d="M259.95 2320.2l213.225 26.7424c0,0 -125.769,-18.7002 -105.238,133.444 0,0 -131.389,-47.0872 -107.987,-160.186z"/>
  <path fill="#F9D052" stroke="#1F1A17" stroke-width="1.69924" d="M2012.2 1990.16c0,0 -54.3369,-157.471 -211.54,-98.4954 0,0 -68.5899,59.533 29.9928,119.036 0,0 533.124,292.288 194.174,457.449 0,0 244.742,77.8811 345.082,-180.429 0,0 77.8823,-242.208 -166.758,-388.107l-190.951 90.5466z"/>
  <path fill="#F9D052" stroke="#1F1A17" stroke-width="1.69924" d="M2012.2 1990.16c0,0 -42.8391,-133.552 -211.54,-98.4954l177.28 -118.695c0,0 77.3398,54.4207 107.162,129.827 0,0 14.2821,63.5747 -72.9011,87.3629z"/>
  <path fill="#F9D052" stroke="#1F1A17" stroke-width="1.69924" d="M2130.46 2306.38l-212.8 29.8715c0,0 125.461,-20.5608 107.171,131.901 0,0 130.662,-49.0256 105.629,-161.773z"/>
  <path fill="#1F1A17" d="M419.297 1611.77l-21.5173 -33.0745 12.3426 -8.20734c9.18926,-6.09907 24.412,-13.549 33.401,0.292512 8.3542,12.8463 3.94103,22.2843 -6.16097,29.0218l-18.0654 11.9675zm52.7311 81.0793l-30.1348 -46.3311 21.9069 -14.5637c38.1189,-25.3406 41.8681,-56.8676 21.0148,-88.9068 -19.9103,-30.5839 -51.1047,-38.006 -89.1835,-12.6848l-63.8733 42.4932 96.835 148.873 43.4351 -28.8798z"/>
  <path fill="#1F1A17" d="M569.165 1477.51c20.4625,-10.4916 39.2464,9.03754 49.4261,31.0002 12.3389,26.6684 13.5053,50.1726 -6.84066,59.7915 -22.5271,10.6579 -40.0754,-12.4554 -49.6154,-33.0842 -9.48177,-20.3751 -14.3355,-47.5751 7.03001,-57.7075l0 0zm-17.8603 -39.6263c-44.6937,21.1713 -59.9517,68.5511 -36.4864,119.192 25.4765,54.9341 70.1374,72.0564 115.246,50.6666 42.4592,-20.096 61.0514,-66.6176 35.6088,-121.541 -19.7695,-42.5757 -63.0868,-72.6183 -114.369,-48.318z"/>
  <polygon fill="#1F1A17" points="797.609,1454.06 784.177,1415.75 768.065,1361.47 815.763,1347.01 866.399,1517.71 819.781,1531.83 737.964,1455.31 751.392,1493.62 767.411,1547.69 719.708,1562.14 669.13,1391.44 715.72,1377.31 "/>
  <polygon fill="#1F1A17" points="853.979,1338.51 997.52,1315.01 1004.92,1361.18 958.84,1368.76 979.63,1498.46 928.324,1506.87 907.51,1377.12 861.419,1384.68 "/>
  <polygon fill="#1F1A17" points="1044.28,1489.63 1035.92,1311.62 1165.13,1305.46 1167.07,1346.98 1089.82,1350.69 1090.99,1376.15 1156.37,1373 1158.32,1414.56 1092.97,1417.69 1094.26,1445.59 1174.59,1441.78 1176.54,1483.3 "/>
  <polygon fill="#1F1A17" points="1193.54,1305.85 1245.92,1307.51 1270.02,1426.91 1302.53,1309.35 1354.94,1311.01 1294.38,1487.34 1242.16,1485.66 "/>
  <polygon fill="#1F1A17" points="1366.91,1491.66 1389.65,1314.96 1517.91,1331.88 1512.62,1373.12 1435.91,1362.99 1432.67,1388.29 1497.54,1396.8 1492.24,1438.05 1427.36,1429.52 1423.79,1457.24 1503.52,1467.72 1498.22,1508.95 "/>
  <path fill="#1F1A17" d="M1599.11 1391.26l9.65777 2.29519c26.9949,6.43042 35.2314,18.563 26.8541,54.6889 -7.62717,32.7626 -23.7396,43.679 -47.3263,38.0691l-10.7271 -2.54765 21.5415 -92.5055zm-15.0771 136.745c49.5281,11.7964 87.7732,-5.55167 102.913,-70.8208 13.3196,-57.1164 -11.5027,-90.4689 -61.2662,-102.324l-67.7694 -16.1173 -40.3534 173.438 66.4756 15.8236z"/>
  <path fill="#1F1A17" d="M1774.26 1442.27l22.6594 8.70983c11.3279,4.35492 17.4658,13.0757 13.0077,24.8526 -4.35006,11.5755 -13.9738,12.6654 -28.9879,6.85523l-19.1444 -7.39777 12.4652 -33.0199zm-11.4201 75.274c22.64,8.72925 23.2456,17.1963 15.0334,38.9187 -5.57109,14.7883 -8.31051,25.911 -8.48165,30.0851l49.1821 18.9745 1.91893 -5.08316c-5.76165,-2.24057 -2.35345,-9.39438 5.81505,-31.1508 12.6654,-33.5091 4.76516,-41.3207 -8.42703,-53.8199 19.2815,1.36668 32.9811,-11.9287 40.232,-31.1216 12.2115,-32.356 1.59607,-53.6293 -47.8191,-72.7106l-69.9772 -26.9706 -62.7542 166.494 48.5995 18.7147 21.8353 -58.0243 14.8429 5.69368z"/>
  <path fill="#1F1A17" d="M1936.85 1605.44l-28.1091 -17.1963 46.5022 -46.1539 -18.3931 63.3502zm-72.7009 26.3419l17.1138 -16.9766 44.2835 27.132 -6.78119 23.3427 44.2653 27.1235 42.7214 -182.153 -45.2168 -27.6989 -139.953 122.586 43.5674 26.6441z"/>
  <path fill="#F9D052" stroke="#1F1A17" stroke-width="1.69924" d="M735.362 1880.62c0,0 167.891,177.465 156.441,468.454l-355.052 2.61683 198.611 -471.071z"/>
  <path fill="#F9D052" stroke="#1F1A17" stroke-width="1.69924" d="M537.014 2386.09l351.64 -2.5877c0,0 -5.15113,223.893 -146.208,456.096l-205.432 -453.508z"/>
  <path fill="none" stroke="#1F1A17" stroke-width="1.69924" d="M1639.69 1874.79c0,0 -168.373,216.854 -142.735,469.803l358.182 -2.67631"/>
  <path fill="none" stroke="#1F1A17" stroke-width="1.69924" d="M1855.39 2376.31l-358.158 2.64718c0,0 -5.33198,198.172 156.397,465.09"/>
 </g>
</svg>
