<?xml version="1.0" encoding="UTF-8" standalone="no"?>
<svg
   version="1.1"
   width="384.0636pt"
   height="600pt"
   id="svg354"
   viewBox="0 0 384.0636 600"
   sodipodi:docname="Logo Real AvileÌs CF.svg"
   inkscape:version="1.2 (dc2aeda, 2022-05-15)"
   xml:space="preserve"
   xmlns:inkscape="http://www.inkscape.org/namespaces/inkscape"
   xmlns:sodipodi="http://sodipodi.sourceforge.net/DTD/sodipodi-0.dtd"
   xmlns="http://www.w3.org/2000/svg"
   xmlns:svg="http://www.w3.org/2000/svg"><defs
     id="defs358" /><sodipodi:namedview
     id="namedview356"
     pagecolor="#ffffff"
     bordercolor="#000000"
     borderopacity="0.25"
     inkscape:showpageshadow="2"
     inkscape:pageopacity="0.0"
     inkscape:pagecheckerboard="0"
     inkscape:deskcolor="#d1d1d1"
     showgrid="false"
     inkscape:zoom="0.46545598"
     inkscape:cx="779.88041"
     inkscape:cy="807.81001"
     inkscape:window-width="1920"
     inkscape:window-height="1080"
     inkscape:window-x="0"
     inkscape:window-y="0"
     inkscape:window-maximized="0"
     inkscape:current-layer="svg354"
     inkscape:document-units="pt" /><g
     id="g15486"
     transform="matrix(0.56608285,0,0,0.56608285,-6.9771155,-8.5459716)"
     style="stroke-width:1.76652"><path
       id="path877"
       style="fill:#970200;fill-opacity:1;stroke:none;stroke-width:1.32489;stroke-linecap:square"
       d="m 336.5127,396.55225 c -3.78736,0.0454 -7.1891,3.68782 -7.80323,6.8833 l -7.25097,36.05273 c -1.24722,5.53517 -3.33305,7.53566 -6.62989,8.64697 -13.13467,2.15525 -25.53695,4.42706 -38.1914,7.70362 -4.08975,0.55898 -7.03293,-0.13854 -10.67871,-5.30713 l -20.4961,-30.53467 c -1.79024,-2.71722 -6.32585,-4.78094 -9.84228,-3.37353 l -27.78076,11.50781 c -3.48169,1.49131 -5.23019,6.15698 -4.57471,9.34424 l 7.09863,36.08349 c 1.28908,7.46151 -1.21963,9.69103 -5.92969,12.8086 -9.45691,5.18575 -19.34634,12.07558 -27.43211,18.33108 -4.44889,2.96072 -7.48077,4.2267 -13.68896,0.30176 L 132.69289,484.6348 c -2.69381,-1.82529 -7.67411,-1.99557 -10.38428,0.65039 l -21.2622,21.2622 c -2.645971,2.71017 -2.475686,7.68902 -0.65039,10.38282 l 20.36572,30.62109 c 3.9284,6.21369 2.6573,9.2453 -0.30908,13.70068 -7.09973,8.70065 -12.74331,17.86098 -18.3486,27.46873 -3.101557,4.68005 -5.340785,7.16912 -12.777828,5.88428 l -36.083496,-7.09863 c -3.187253,-0.65547 -7.8544,1.09302 -9.345703,4.5747 l -11.506348,27.78077 c -1.407415,3.51643 0.654852,8.05204 3.37207,9.84228 l 30.534668,20.4961 c 5.169193,3.64621 5.867939,6.58968 5.308594,10.68017 -3.343742,12.8666 -5.559223,25.0696 -7.706543,38.21769 -1.113133,3.28156 -3.119253,5.35963 -8.639648,6.60352 l -36.052735,7.25098 c -3.195477,0.61413 -6.836436,4.01586 -6.881836,7.80322 v 30.06885 c 0.0454,3.78735 3.686359,7.18763 6.881836,7.80175 l 36.052735,7.25098 c 5.530246,1.24611 7.533586,3.32936 8.645507,6.6211 2.156826,13.13822 4.429035,25.54643 7.706543,38.20304 0.558426,4.08861 -0.140893,7.03209 -5.308593,10.67725 L 35.768555,841.875 c -2.717237,1.79025 -4.779485,6.32585 -3.372071,9.84229 l 11.506348,27.77929 c 1.490933,3.48185 6.156967,5.2302 9.344238,4.57471 l 36.084961,-7.09717 c 7.454404,-1.28785 9.685457,1.21376 12.798339,5.91504 5.19154,9.46677 12.07482,19.34912 18.34569,27.45409 2.95692,4.44456 4.21853,7.47564 0.2959,13.68018 l -20.36572,30.62109 c -1.825301,2.69382 -1.995575,7.67411 0.65039,10.38428 l 21.26221,21.26221 c 2.70988,2.64624 7.69047,2.47569 10.38428,0.65039 l 30.61962,-20.36719 c 6.21105,-3.92675 9.24259,-2.65747 13.69483,0.30615 8.70125,7.10213 17.86319,12.74363 27.47312,18.35152 4.68106,3.1021 7.17075,5.34141 5.88574,12.7793 l -7.09716,36.08352 c -0.65548,3.1873 1.09301,7.8529 4.5747,9.3443 l 27.7793,11.5077 c 3.51628,1.4078 8.05205,-0.6563 9.84229,-3.3735 l 20.49609,-30.5332 c 3.64822,-5.1721 6.5935,-5.8682 10.6875,-5.3071 12.86487,3.3424 25.06348,5.5567 38.20895,7.7051 3.28232,1.113 5.36093,3.117 6.60498,8.6382 l 7.25098,36.0542 c 0.61413,3.1955 4.01587,6.8364 7.80322,6.8818 h 30.06885 c 3.78736,-0.045 7.18909,-3.6863 7.80322,-6.8818 l 7.25098,-36.0542 c 1.24611,-5.5303 3.32935,-7.5321 6.62109,-8.6441 13.13779,-2.1564 25.54292,-4.4283 38.20013,-7.7065 4.08941,-0.5588 7.03311,0.1403 10.67871,5.3086 l 20.49609,30.5332 c 1.79024,2.7172 6.32585,4.7809 9.84229,3.3735 l 27.78076,-11.5079 c 3.48169,-1.4912 5.23019,-6.1569 4.57471,-9.3442 l -7.09863,-36.08348 c -1.28787,-7.45452 1.21502,-9.68682 5.9165,-12.7998 9.4678,-5.19187 19.35508,-12.07876 27.45848,-18.34864 4.44167,-2.9544 7.47372,-4.21403 13.67578,-0.29297 l 30.61963,20.36719 c 2.6938,1.82529 7.67411,1.99557 10.38427,-0.65039 l 21.26221,-21.26221 c 2.64597,-2.71016 2.47568,-7.69048 0.65039,-10.38427 l -20.36572,-30.6211 c -3.92806,-6.21314 -2.6582,-9.24448 0.30762,-13.69922 7.1018,-8.70257 12.75231,-17.87045 18.35451,-27.47609 3.09942,-4.67601 5.33969,-7.16122 12.77343,-5.87695 l 36.0835,7.09717 c 3.18725,0.65546 7.85441,-1.09303 9.3457,-4.57471 l 11.50635,-27.78076 c 1.40741,-3.51644 -0.65484,-8.05205 -3.37207,-9.84229 l -30.53467,-20.49609 c -5.17228,-3.6484 -5.86834,-6.59316 -5.30713,-10.6875 3.34408,-12.86427 5.55573,-25.06461 7.70508,-38.21041 1.11314,-3.28156 3.11926,-5.35963 8.63965,-6.60352 l 36.05274,-7.25097 c 3.19547,-0.61413 6.83643,-4.01441 6.88183,-7.80176 v -30.06885 c -0.0454,-3.78736 -3.68636,-7.18909 -6.88183,-7.80322 l -36.05274,-7.25098 c -5.2916,-1.19234 -7.35793,-3.14626 -8.50049,-6.19629 -1.72242,-13.54837 -4.39949,-26.95819 -8.01123,-40.12939 -0.16466,-3.34709 0.94762,-5.98557 5.46826,-9.17432 l 30.53467,-20.49609 c 2.71722,-1.79024 4.77948,-6.32585 3.37207,-9.84229 l -11.50635,-27.78076 c -1.4913,-3.48169 -6.15698,-5.23019 -9.34423,-4.57471 l -36.08496,7.09864 c -5.43306,0.93863 -8.08606,-0.13032 -10.33155,-2.59571 -6.73969,-11.79259 -14.2993,-23.09725 -22.62304,-33.83056 -1.45934,-3.0497 -1.45948,-5.92025 1.51464,-10.62451 l 20.36573,-30.6211 c 1.82528,-2.69381 1.99556,-7.67264 -0.65039,-10.38281 L 580.79004,485.2749 c -2.71017,-2.64597 -7.69048,-2.47568 -10.38428,-0.65039 l -30.62109,20.36572 c -4.70797,2.97646 -7.57799,2.97305 -10.63037,1.51026 -10.73434,-8.32285 -22.03999,-15.88149 -33.8335,-22.62012 -2.46094,-2.24429 -3.52621,-4.89868 -2.58838,-10.32715 l 7.09717,-36.08349 c 0.65547,-3.18725 -1.09302,-7.85294 -4.57471,-9.34424 l -27.77929,-11.50635 c -3.51644,-1.40741 -8.05205,0.65484 -9.84229,3.37207 l -20.49609,30.53467 c -3.19118,4.52409 -5.83239,5.635 -9.18311,5.46826 -13.16891,-3.60992 -26.57627,-6.28552 -40.12207,-8.00684 -3.05007,-1.14255 -5.00394,-3.20737 -6.19629,-8.49902 l -7.25097,-36.05273 c -0.61413,-3.19548 -4.01587,-6.8379 -7.80323,-6.8833 z"
       sodipodi:nodetypes="ccccccccccccccccccccccccccccccccccccccccccccccccccccccccccccccccccccccccccccccccccccccccccccccccccccccccccccccccccccccccccccccccc" /><circle
       style="fill:#ffffff;stroke:none;stroke-width:1.32489;stroke-linecap:square"
       id="path941"
       cx="351.55438"
       cy="735.78247"
       r="253.625" /><g
       id="g12671"
       style="fill:#0001fc;fill-opacity:1;stroke-width:1.76652"><path
         style="fill:#0001fc;fill-opacity:1;stroke:none;stroke-width:1.32489;stroke-linecap:square"
         d="m 301.31689,521.72016 a 220.01337,220.01337 0 0 0 -102.31787,56.03907 v 316.0459 a 220.01337,220.01337 0 0 0 102.31787,56.04052 z"
         id="path12667" /><path
         style="fill:#0001fc;fill-opacity:1;stroke:none;stroke-width:1.32489;stroke-linecap:square"
         d="M 401.79199,521.63086 V 949.8457 A 220.01337,220.01337 0 0 0 504.10986,893.80518 V 577.26123 A 220.01337,220.01337 0 0 0 401.79199,521.63086 Z"
         id="rect1207" /></g></g><g
     id="g15494"
     transform="matrix(0.56608285,0,0,0.56608285,-6.9771155,-8.5459716)"
     style="stroke-width:1.76652"><path
       id="path1931"
       style="color:#000000;fill:#ffffff;stroke-width:1.76652;stroke-linecap:square;-inkscape-stroke:none"
       d="m 158.729,639.84961 v 7.5 19.98779 h 13.08106 l -23.8374,151.52051 h -15.78077 v 26.68359 h 55.23047 l 5.08008,-33.99316 h 23.50342 l 5.08008,33.99316 h 54.37353 v -26.68359 h -13.42676 l -28.16162,-179.0083 z" /><path
       style="color:#000000;fill:#ffffff;stroke-width:1.76652;stroke-linecap:square"
       d="m 466.22852,639.84961 c 0,9.16276 0,18.32552 0,27.48828 h 15.50781 v 151.51953 h -15.50781 v 26.6836 h 76.23046 v -26.6836 H 526.94922 V 667.33789 h 15.50976 v -27.48828 z"
       id="path1911"
       sodipodi:nodetypes="ccccccccccccc" /><path
       id="rect1298"
       style="fill:#970200;fill-opacity:1;stroke:none;stroke-width:1.32489;stroke-linecap:square"
       d="m 473.729,647.34961 v 12.48779 h 15.5083 V 826.35791 H 473.729 v 11.68213 h 61.23047 V 826.35791 H 519.44971 V 659.8374 h 15.50976 v -12.48779 z" /><path
       id="rect1319"
       style="fill:#970200;fill-opacity:1;stroke-width:1.32489;stroke-linecap:square"
       d="m 166.229,647.34961 v 12.48779 h 14.35401 l -26.19727,166.52051 h -14.69531 v 11.68213 h 41.26904 l 5.08008,-33.99024 h 36.42774 l 5.08007,33.99024 h 40.41211 v -11.68213 h -12.33838 l -28.16162,-179.0083 z m 38.02442,34.83398 14.23974,95.2793 h -28.47949 z"
       sodipodi:nodetypes="ccccccccccccccccccc" /></g><g
     id="g15479"
     transform="matrix(0.56608285,0,0,0.56608285,-7.7520448,-8.5459716)"
     style="stroke-width:1.76652"><path
       id="path3599"
       style="color:#000000;fill:#fecd01;fill-opacity:1;stroke-width:1.76652;stroke-linecap:round;-inkscape-stroke:none"
       d="m 352.92334,351.92871 c -52.94341,0 -113.69951,7.61717 -162.62402,19.28027 -5.89573,1.46728 -9.48644,7.43597 -8.01856,13.33155 1.46728,5.8957 7.43746,9.48643 13.33301,8.01855 51.90129,-12.91764 105.7352,-18.5332 157.30957,-18.5332 51.57437,0 105.40828,5.61556 157.30957,18.5332 5.89555,1.46788 11.86573,-2.12285 13.33301,-8.01855 1.46788,-5.89558 -2.12283,-11.86427 -8.01856,-13.33155 -48.92451,-11.6631 -109.68061,-19.28027 -162.62402,-19.28027 z"
       sodipodi:nodetypes="scccscccs" /><path
       id="path3573"
       style="fill:#fd0002;fill-opacity:1;stroke:none;stroke-width:1.76652;stroke-linecap:round;stroke-dasharray:none"
       d="m 352.92334,197.3877 c -66.4674,0 -128.6442,13.85047 -180.51123,43.90722 l 29.80957,70.89844 150.70166,-17.32178 150.70166,17.32178 29.80957,-70.89844 C 481.56754,211.23817 419.39074,197.3877 352.92334,197.3877 Z"
       sodipodi:nodetypes="scccccs" /><path
       id="path2005"
       style="color:#000000;fill:#fecd01;fill-opacity:1;stroke-width:1.76652;stroke-linecap:round;-inkscape-stroke:none"
       d="m 287.78613,99.467285 c -21.20628,0.151225 -40.11756,7.975235 -51.36474,32.131345 -46.18175,-7.44905 -83.35351,16.65499 -91.30225,48.14209 -9.176,36.34862 7.07494,85.04525 33.17432,128.43897 -0.88904,0.2036 -1.79928,0.39717 -2.68213,0.60351 -5.63954,1.34721 -9.12008,7.01064 -7.77393,12.65039 1.34718,5.64049 7.01292,9.12131 12.65332,7.77393 54.17433,-13.15794 114.93367,-19.47735 172.43262,-19.9043 57.49895,0.42695 118.25829,6.74636 172.43262,19.9043 5.6404,1.34738 11.30614,-2.13344 12.65332,-7.77393 1.34615,-5.63975 -2.13439,-11.30318 -7.77393,-12.65039 -0.88285,-0.20634 -1.79309,-0.39991 -2.68213,-0.60351 26.09938,-43.39372 42.35032,-92.09035 33.17432,-128.43897 -7.94874,-31.4871 -45.1205,-55.59114 -91.30225,-48.14209 C 458.17811,107.44252 439.26683,99.61851 418.06055,99.467285 396.85426,99.31606 373.35247,106.83762 352.92334,113.36865 332.49421,106.83762 308.99242,99.31606 287.78613,99.467285 Z m 4.73877,35.881345 c 11.92705,-0.0212 26.31356,3.50586 41.42139,8.46241 v 144.91113 c -11.76285,0.44065 -23.46618,1.09547 -35.05371,1.95556 -17.59396,-38.51002 -35.26833,-80.63927 -37.45606,-115.84863 -1.83629,-29.55385 11.20998,-39.44518 31.08838,-39.48047 z m 120.79688,0 c 19.8784,0.0353 32.92467,9.92662 31.08838,39.48047 -2.18773,35.20936 -19.8621,77.33861 -37.45606,115.84863 -11.58753,-0.86009 -23.29086,-1.51491 -35.05371,-1.95556 V 143.81104 c 15.10783,-4.95655 29.49434,-8.48361 41.42139,-8.46241 z m -188.62061,30.18164 c 1.3342,-0.0107 2.70355,5.3e-4 4.10742,0.0337 0.68007,41.82036 13.02591,85.62821 34.36377,128.45069 -16.15206,1.82827 -31.92274,4.04386 -47.09179,6.63867 -28.10769,-46.71389 -36.82069,-63.79912 -38.83448,-87.95801 -2.14132,-25.68924 6.09492,-46.83334 47.45508,-47.16504 z m 256.44434,0 c 41.36016,0.3317 49.5964,21.4758 47.45508,47.16504 -2.01379,24.15889 -10.72679,41.24412 -38.83448,87.95801 -15.16905,-2.59481 -30.93973,-4.8104 -47.09179,-6.63867 21.33786,-42.82248 33.6837,-86.63033 34.36377,-128.45069 1.40387,-0.0332 2.77322,-0.0444 4.10742,-0.0337 z" /><g
       id="g3749"
       style="fill:#fecd01;fill-opacity:1;stroke-width:1.76652"><circle
         style="fill:#fecd01;fill-opacity:1;stroke:none;stroke-width:1.7665;stroke-linecap:round;stroke-dasharray:none"
         id="circle3661"
         cx="352.92334"
         cy="331.95895"
         r="10.5" /><circle
         style="fill:#fecd01;fill-opacity:1;stroke:none;stroke-width:1.7665;stroke-linecap:round;stroke-dasharray:none"
         id="path3657"
         cx="194.99651"
         cy="347.26654"
         r="10.5" /><circle
         style="fill:#fecd01;fill-opacity:1;stroke:none;stroke-width:1.7665;stroke-linecap:round;stroke-dasharray:none"
         id="circle3659"
         cx="269.11737"
         cy="335.58444"
         r="10.5" /><circle
         style="fill:#fecd01;fill-opacity:1;stroke:none;stroke-width:1.7665;stroke-linecap:round;stroke-dasharray:none"
         id="circle3676"
         cx="-510.85019"
         cy="347.26654"
         r="10.5"
         transform="scale(-1,1)" /><circle
         style="fill:#fecd01;fill-opacity:1;stroke:none;stroke-width:1.7665;stroke-linecap:round;stroke-dasharray:none"
         id="circle3678"
         cx="-436.72931"
         cy="335.58444"
         r="10.5"
         transform="scale(-1,1)" /></g><path
       id="rect3803"
       style="fill:#fecd01;fill-opacity:1;stroke:none;stroke-width:1.76652;stroke-linecap:round;stroke-dasharray:none"
       d="m 346.94239,15.09668 v 11.679199 h -12.53321 v 11.963379 h 12.53321 v 18.785156 a 22.5,22.5 0 0 0 -16.51905,21.65918 22.5,22.5 0 0 0 22.5,22.499996 22.5,22.5 0 0 0 22.5,-22.499996 22.5,22.5 0 0 0 -16.51758,-21.685547 V 38.739258 h 12.53321 V 26.775879 H 358.90576 V 15.09668 Z" /></g><g
     id="g12663"
     transform="matrix(0.56608285,0,0,0.56608285,-6.7307845,-8.1126681)"
     style="stroke-width:1.76652"><circle
       style="fill:#970200;fill-opacity:1;stroke:none;stroke-width:1.76652;stroke-linecap:round;stroke-dasharray:none"
       id="path6083"
       cx="351.11923"
       cy="735.01703"
       r="78" /><g
       id="g7606"
       style="fill:#f7d513;fill-opacity:1;stroke:none;stroke-width:1.76652"><path
         style="fill:#f7d513;fill-opacity:1;stroke:none;stroke-width:1.76652;stroke-linecap:round;stroke-dasharray:none"
         d="m 417.18457,759.0293 c -5.44925,8.79035 -11.55242,16.0384 -18.12744,21.12744 -13.44925,10.40968 -28.68933,14.75681 -43.79443,16.28906 -0.40392,2.92636 -0.53345,5.82278 -0.38819,8.69092 a 70.346214,70.346214 0 0 0 62.31006,-46.10742 z"
         id="path7595" /><path
         style="fill:#f7d513;fill-opacity:1;stroke:none;stroke-width:1.76652;stroke-linecap:round;stroke-dasharray:none"
         d="m 338.11523,742.58203 c -10.03403,24.26693 -14.09262,44.30293 -10.93212,58.5249 a 70.346214,70.346214 0 0 0 23.18994,4.21143 c -0.19126,-3.83848 0.0737,-7.69638 0.75879,-11.56934 a 2.25,2.25 0 0 1 0.009,-0.0527 c 1.59585,-8.97271 5.42725,-18.02587 10.9497,-27.104 -7.27265,-8.81903 -15.23968,-17.00019 -23.9751,-24.01026 z"
         id="path7593" /><path
         style="fill:#f7d513;fill-opacity:1;stroke:none;stroke-width:1.76652;stroke-linecap:round;stroke-dasharray:none"
         d="m 317.17969,729.04248 c -11.15129,13.75454 -20.22684,30.30238 -21.40576,49.18945 a 70.346214,70.346214 0 0 0 26.44043,20.77735 c -2.40914,-15.66847 2.32279,-35.68903 12.2124,-59.28516 -5.45325,-4.06583 -11.19899,-7.66316 -17.24707,-10.68164 z"
         id="path7591" /><path
         style="fill:#f7d513;fill-opacity:1;stroke:none;stroke-width:1.76652;stroke-linecap:round;stroke-dasharray:none"
         d="m 294.23145,720.94922 c -6.1206,8.54937 -9.41209,17.93038 -11.99854,27.70898 a 70.346214,70.346214 0 0 0 9.57568,23.97803 c 2.40351,-17.5021 10.99364,-32.80397 21.18311,-45.57129 -5.96037,-2.64407 -12.21052,-4.71552 -18.76025,-6.11572 z"
         id="path7589" /><path
         style="fill:#f7d513;fill-opacity:1;stroke:none;stroke-width:1.76652;stroke-linecap:round;stroke-dasharray:none"
         d="m 418.22607,713.94434 c -1.57894,15.97578 -6.92795,27.31869 -14.89013,35.59277 -9.82292,10.2077 -23.31474,15.68262 -37.96729,20.33643 -4.45409,7.48585 -7.61378,14.80886 -9.25635,21.96386 14.10149,-1.58642 27.93751,-5.75614 40.19092,-15.24023 9.11628,-7.05597 17.75417,-19.20469 24.72217,-34.3125 a 70.346214,70.346214 0 0 0 0.43945,-7.26709 70.346214,70.346214 0 0 0 -3.23877,-21.07324 z"
         id="path7587" /><path
         style="fill:#f7d513;fill-opacity:1;stroke:none;stroke-width:1.76652;stroke-linecap:round;stroke-dasharray:none"
         d="m 291.24023,698.33789 a 70.346214,70.346214 0 0 0 -10.46777,36.67969 70.346214,70.346214 0 0 0 0.15088,2.49756 c 2.34386,-6.68548 5.40251,-13.24559 9.88916,-19.44434 l -0.97852,-15.51269 z"
         id="path7585" /><path
         style="fill:#f7d513;fill-opacity:1;stroke:none;stroke-width:1.76652;stroke-linecap:round;stroke-dasharray:none"
         d="m 298.27881,691.45752 -3.89795,11.69092 0.84521,13.41357 c 29.38284,6.29802 52.69495,25.4836 71.21485,48.23877 10.9813,-3.60878 20.86108,-7.75639 28.71533,-13.94531 -12.25351,-15.89834 -29.18259,-29.76092 -45.63867,-40.08252 -15.25735,-9.56974 -33.91258,-17.04281 -51.23877,-19.31543 z"
         id="path7583" /><path
         style="fill:#f7d513;fill-opacity:1;stroke:none;stroke-width:1.76652;stroke-linecap:round;stroke-dasharray:none"
         d="m 325.85156,674.00098 c -3.42463,-0.0196 -6.90251,0.17037 -10.41943,0.53759 a 70.346214,70.346214 0 0 0 -15.71631,12.57862 c 17.92028,2.4981 36.68236,10.11601 52.19238,19.84424 16.74511,10.50287 33.97711,24.54864 46.66553,40.95117 0.51557,-0.48859 1.02451,-0.98469 1.51758,-1.49707 3.54865,-3.68767 6.54924,-8.02321 8.8623,-13.26123 -7.26561,-16.13788 -16.91173,-29.15698 -28.28613,-38.82276 -15.54009,-13.20572 -34.2894,-20.21329 -54.81592,-20.33056 z"
         id="path7581" /><path
         style="fill:#f7d513;fill-opacity:1;stroke:none;stroke-width:1.76652;stroke-linecap:round;stroke-dasharray:none"
         d="m 351.11865,664.67139 a 70.346214,70.346214 0 0 0 -25.55127,4.84424 c 21.65629,0.0769 41.62904,7.46208 58.01514,21.38671 10.95119,9.30615 20.29606,21.51723 27.5625,36.34424 1.97371,-6.45926 3.05235,-14.12737 3.06738,-23.31592 a 70.346214,70.346214 0 0 0 -63.09375,-39.25927 z"
         id="circle7537" /></g></g></svg>
