<?xml version="1.0" encoding="UTF-8" standalone="no"?>
<svg
   version="1.1"
   width="371.36819pt"
   height="600pt"
   id="svg47"
   viewBox="0 0 371.36819 600"
   sodipodi:docname="Logo SD Ponferradina.svg"
   inkscape:version="1.2 (dc2aeda, 2022-05-15)"
   xmlns:inkscape="http://www.inkscape.org/namespaces/inkscape"
   xmlns:sodipodi="http://sodipodi.sourceforge.net/DTD/sodipodi-0.dtd"
   xmlns="http://www.w3.org/2000/svg"
   xmlns:svg="http://www.w3.org/2000/svg">
  <defs
     id="defs51" />
  <sodipodi:namedview
     id="namedview49"
     pagecolor="#ffffff"
     bordercolor="#000000"
     borderopacity="0.25"
     inkscape:showpageshadow="2"
     inkscape:pageopacity="0.0"
     inkscape:pagecheckerboard="0"
     inkscape:deskcolor="#d1d1d1"
     showgrid="false"
     inkscape:zoom="0.67183934"
     inkscape:cx="178.61413"
     inkscape:cy="378.06658"
     inkscape:window-width="1440"
     inkscape:window-height="900"
     inkscape:window-x="0"
     inkscape:window-y="0"
     inkscape:window-maximized="0"
     inkscape:current-layer="svg47"
     inkscape:document-units="pt" />
  <g
     id="g444"
     transform="translate(0.6406441)">
    <path
       id="path378"
       style="fill:#e2be29;fill-rule:evenodd;stroke-width:1"
       d="m 185.02295,0 c -7.33859,0 -13.2876,5.9490859 -13.2876,13.287598 0,1.845693 0.37733,3.602839 1.05762,5.200195 -5.39396,3.029604 -10.20595,6.591869 -14.47559,10.579101 -5.46026,5.09871 -10.00823,10.891757 -13.7373,17.148926 -5.23724,-0.104381 -10.34526,0.212945 -15.28272,0.918457 -17.38261,2.483609 -32.449723,9.813362 -43.552732,20.53125 -8.655202,8.355203 -14.889382,18.718412 -17.953125,30.429199 -6.271141,0.746298 -11.134277,6.081654 -11.134277,12.553714 0,5.88156 4.01592,10.82446 9.455567,12.2373 0.08157,0.71949 0.174544,1.44237 0.27832,2.16797 l 0.07324,0.51709 c 2.517445,12.57454 4.292932,20.89554 6.216797,28.98926 1.856342,7.80724 3.918097,15.60823 7.026855,27.21826 l 1.875,7.00342 h 7.229004 96.454101 v -0.0366 l 96.4292,-0.004 h 7.23779 l 1.86475,-6.9668 c 2.8966,-10.81713 4.86105,-18.2244 7.01074,-27.21533 2.09713,-8.7703 3.89035,-17.07496 6.27539,-28.98779 l 0.0747,-0.51709 c 0.11723,-0.82024 0.21998,-1.63729 0.30908,-2.45361 5.18791,-1.57598 8.96192,-6.39698 8.96192,-12.09961 0,-6.27848 -4.57484,-11.487 -10.57325,-12.474612 C 299.90742,86.369363 293.85955,76.083386 285.3662,67.825615 274.62634,57.383103 260.0383,50.25553 242.97216,47.817314 c -5.21715,-0.745391 -10.69883,-1.046328 -16.40479,-0.862793 -3.90536,-6.502485 -8.21273,-12.255854 -13.35351,-17.29248 -4.58497,-4.491838 -9.75933,-8.346757 -15.79981,-11.569336 0.57832,-1.490179 0.89649,-3.110278 0.89649,-4.804687 C 198.31055,5.9490859 192.36145,0 185.02295,0 Z" />
    <g
       id="g432">
      <path
         id="path362"
         style="fill:#ba0c34;fill-rule:evenodd;stroke-width:1"
         d="m 185.25879,127.20117 c -1.67281,1.81518 -3.47001,3.33974 -5.36133,4.604 -5.04856,3.37485 -10.64195,4.81325 -16.27881,4.91309 -6.02914,0.1071 -12.19419,-1.78477 -17.24267,-5.14746 -1.40468,-0.93557 -2.73104,-1.98699 -3.95362,-3.14355 -0.69887,0.88564 -1.44524,1.70645 -2.23535,2.45947 -3.76443,3.58632 -8.42963,5.60473 -13.67871,5.83154 -5.2083,0.22492 -10.35761,-2.08449 -14.44189,-6.33984 -0.42002,-0.43739 -0.83003,-0.89581 -1.22754,-1.37549 -0.33059,0.38716 -0.67044,0.76142 -1.01953,1.12207 -3.90989,4.04078 -8.92809,6.41914 -14.330571,6.67383 -2.772504,0.13059 -5.352453,-0.29699 -7.702148,-1.14405 1.153548,5.46307 2.181577,10.06553 3.249023,14.55616 1.488593,6.262 3.01735,12.18933 5.01123,19.69922 h 89.219236 v 0.0366 l 89.18701,-0.003 c 2.18172,-8.18708 3.77116,-14.28071 5.07569,-19.73584 1.00989,-4.22341 2.0312,-8.81043 3.2417,-14.56934 -2.36065,0.8568 -4.95341,1.29135 -7.7417,1.16016 -5.40256,-0.25468 -10.42068,-2.63304 -14.33057,-6.67383 -0.3491,-0.36065 -0.68894,-0.73491 -1.01953,-1.12207 -0.39751,0.47968 -0.80752,0.93811 -1.22754,1.37549 -4.08429,4.25536 -9.23359,6.56477 -14.44189,6.33984 -5.24909,-0.22681 -9.9143,-2.24522 -13.67872,-5.83154 -0.7901,-0.75302 -1.53649,-1.57383 -2.23535,-2.45947 -1.22259,1.15656 -2.54893,2.20797 -3.95361,3.14355 -5.04848,3.36268 -11.21353,5.25456 -17.24268,5.14746 -5.63685,-0.0998 -11.23032,-1.53824 -16.2788,-4.91309 -1.89139,-1.26426 -3.6886,-2.78882 -5.36133,-4.604 z" />
      <path
         d="m 135.19205,114.90792 c -0.14275,-9.42017 0.2179,-18.913897 1.6463,-28.295996 1.09811,-7.215029 2.82817,-14.422128 5.44056,-21.564046 -3.5608,0.01095 -7.00959,0.26148 -10.3281,0.735649 -13.38512,1.912311 -24.85083,7.424698 -33.159133,15.444787 -8.064199,7.784743 -13.170845,18.017219 -14.119561,29.637606 -0.103474,1.26828 -0.159139,2.55031 -0.165559,3.84532 0.879607,0.7284 1.574471,1.70144 1.967749,2.86231 0.645242,1.88429 1.910499,3.7355 3.642674,5.00438 1.33006,0.97455 2.952945,1.57296 4.772733,1.48739 2.095846,-0.0986 4.125982,-1.10725 5.791767,-2.82908 1.85083,-1.91261 3.24426,-4.66986 3.8639,-8.07387 0.0539,-0.30136 0.12908,-0.5935 0.2219,-0.87598 -0.16435,-0.62394 -0.24192,-1.28232 -0.2176,-1.96042 0.13331,-3.71359 3.25212,-6.61601 6.96571,-6.4827 3.7136,0.1333 6.61631,3.25219 6.48301,6.96571 -0.0378,1.05188 -0.31534,2.03897 -0.77795,2.91004 0.80808,3.30574 2.26292,5.97689 4.03376,7.8213 1.55287,1.61805 3.23542,2.5077 4.70484,2.44441 2.07462,-0.0895 3.92998,-0.89849 5.43904,-2.33603 1.62198,-1.54524 2.92402,-3.81827 3.79396,-6.74078 z"
         style="fill:#ba0c34;fill-rule:evenodd;stroke-width:1"
         id="path10" />
      <path
         d="m 149.47196,88.509356 c -1.32432,8.697809 -1.66911,17.410954 -1.54864,26.018354 1.05038,2.56646 3.0355,4.76978 5.4932,6.40664 2.98829,1.99026 6.56669,3.11186 10.00272,3.05068 3.3142,-0.0588 6.54992,-0.86896 9.38784,-2.76609 1.98021,-1.32401 3.82711,-3.21351 5.45272,-5.78874 -3.76745,-2.34517 -6.27538,-6.52289 -6.27538,-11.28739 0,-7.338591 5.94879,-13.287457 13.28738,-13.287457 7.33852,0 13.28739,5.948866 13.28739,13.287457 0,4.77243 -2.51647,8.95627 -6.29396,11.29925 1.62379,2.56948 3.4679,4.45498 5.44509,5.77688 2.83792,1.89713 6.07364,2.70733 9.38784,2.76609 3.43603,0.0612 7.01443,-1.06042 10.00272,-3.05068 2.4577,-1.63686 4.44282,-3.84018 5.4932,-6.40664 0.12054,-8.6074 -0.22432,-17.320545 -1.54864,-26.018354 -1.34804,-8.857099 -3.71171,-17.596675 -7.64411,-26.025451 -0.21888,-0.468126 -0.3756,-0.94932 -0.47394,-1.434516 -3.8423,-7.102341 -7.94094,-13.104455 -12.90876,-17.971826 -4.05113,-3.968957 -8.7852,-7.274697 -14.57855,-9.929682 -5.49743,2.627266 -10.24003,5.916616 -14.29607,9.70438 -5.35921,5.004758 -9.56805,10.886932 -12.77424,17.274923 l -1.93543,3.856646 c -3.52703,7.964047 -5.6941,16.192596 -6.96238,24.525526 z"
         style="fill:#ba0c34;fill-rule:evenodd;stroke-width:1"
         id="path12" />
      <path
         d="m 233.67905,86.611924 c 1.4284,9.382099 1.78905,18.875826 1.6463,28.295996 0.86994,2.92251 2.17198,5.19554 3.79396,6.74078 1.50906,1.43754 3.36442,2.24653 5.43904,2.33603 1.46949,0.0633 3.15197,-0.82636 4.70484,-2.44441 1.75649,-1.82953 3.20256,-4.47266 4.01427,-7.74184 -0.50853,-0.99011 -0.77825,-2.11956 -0.73565,-3.31088 0.13339,-3.71359 3.25219,-6.61601 6.96579,-6.4827 3.71352,0.13331 6.61631,3.25211 6.48293,6.96571 -0.0176,0.49154 -0.0882,0.9682 -0.20484,1.42628 0.0767,0.24804 0.13943,0.5034 0.18633,0.76548 0.61964,3.40401 2.01307,6.16126 3.8639,8.07387 1.66578,1.72183 3.69592,2.73051 5.79177,2.82908 1.81978,0.0856 3.44267,-0.51284 4.7728,-1.48739 1.7321,-1.26888 2.99736,-3.12009 3.6426,-5.00438 0.40423,-1.19312 1.12742,-2.18844 2.042,-2.92311 0.005,-1.57364 -0.0621,-3.11367 -0.19872,-4.61881 -1.02515,-11.288287 -5.90106,-21.191156 -13.64139,-28.716911 -7.91873,-7.699546 -18.89781,-12.987008 -31.92681,-14.848488 -3.80544,-0.543882 -7.75914,-0.799849 -11.83557,-0.744486 2.47696,6.920996 4.1327,13.901887 5.19645,20.890179 z"
         style="fill:#ba0c34;fill-rule:evenodd;stroke-width:1"
         id="path14" />
    </g>
    <g
       id="g368">
      <path
         d="m 211.14778,150.78291 c -0.0381,-1.7617 -1.79426,-2.9429 -3.34743,-2.9429 h -1.84109 l 0.0201,5.92568 h 1.84109 c 2.154,0 3.36752,-1.11888 3.32734,-2.98278 z m -5.18852,14.10892 h -5.75468 v -22.20627 h 7.59577 c 5.19736,0 9.22659,2.93044 9.22659,8.45921 0,4.71858 -4.33059,7.35476 -9.2065,7.35476 h -1.84109 z"
         style="fill:#e2be29;fill-rule:evenodd;stroke-width:1"
         id="path2" />
      <path
         d="m 189.73291,153.8101 c 0,-4.22945 -2.59691,-5.80785 -6.52198,-5.80785 h -1.3812 v 11.57319 h 1.3812 c 3.89562,0 6.52198,-1.55529 6.52198,-5.76534 z m -6.68633,11.08173 h -7.13588 v -22.20627 h 7.13588 c 7.1861,0 12.679,3.32583 12.679,11.11941 0,7.77288 -5.52273,11.08686 -12.679,11.08686 z"
         style="fill:#e2be29;fill-rule:evenodd;stroke-width:1"
         id="path4" />
      <path
         d="m 163.59514,147.35391 c -0.97885,0 -2.20332,0.33573 -2.20332,1.52364 0,0.47546 0.29071,0.89668 0.87145,1.26405 0.58104,0.36767 1.66911,0.83059 3.2719,1.36171 3.45975,1.1466 6.24713,2.66503 6.24713,6.79071 0,4.48972 -4.71253,6.84645 -8.26352,6.91827 -4.29191,0.0867 -8.01729,-1.96654 -10.1296,-4.83761 l 4.00967,-3.25362 c 1.44086,1.71382 3.51729,3.50536 5.71691,3.50536 1.13044,0 3.16843,-0.65046 3.20861,-2.1534 0.0348,-1.2963 -3.54003,-2.07062 -4.48542,-2.38286 -3.57266,-1.18036 -6.60959,-3.19705 -6.60959,-6.89297 0,-4.32719 4.1537,-6.85589 8.30007,-6.8358 2.88052,0.014 5.94275,1.96133 8.03528,3.93761 l -3.50295,3.39456 c -1.25952,-1.13315 -2.7256,-2.33965 -4.46662,-2.33965 z"
         style="fill:#e2be29;fill-rule:evenodd;stroke-width:1"
         id="path6" />
    </g>
  </g>
  <g
     id="g3205">
    <path
       style="fill:#e2be29;fill-rule:evenodd;stroke-width:1"
       d="M 2.3089072,312.80601 C -0.92621327,283.1045 -0.69736133,251.28366 2.5919133,216.49945 l 0.9125376,-9.64834 9.6571741,0.0359 c 49.957774,0.18685 107.279595,0.28096 172.047485,0.28096 64.76782,0 122.08972,-0.0941 172.04742,-0.28096 l 9.41374,-0.035 1.15597,9.35619 c 4.28301,34.67001 4.65589,66.36457 1.25884,96.21917 -3.40612,29.93135 -10.61873,57.958 -21.49494,85.2225 -15.44652,38.72175 -35.71246,74.44886 -61.5145,107.36479 -25.80626,32.92085 -57.08013,62.9858 -94.53299,90.37477 L 185.23804,600 178.93396,595.34774 C 142.3641,568.35961 111.53911,538.06429 86.189412,505.86294 59.0123,471.3399 38.07703,434.55977 23.05966,397.25819 12.357849,370.67579 5.5768827,342.80925 2.3089072,312.80601 Z"
       id="path448" />
    <g
       id="g3176">
      <path
         style="fill:#003479;fill-opacity:1;fill-rule:evenodd;stroke:none;stroke-width:0.3;stroke-dasharray:none"
         d="M 25.225449,323.61494 C 20.682478,288.58461 20.183342,258.88498 23.097,228.432 h 162.165 l 45,172.76203 -45,172.76204 C 124.73613,527.01731 74.855685,467.07923 46.173051,397.74013 36.670642,374.40829 28.632807,349.88869 25.225449,323.61494 Z"
         id="path1019"
         sodipodi:nodetypes="scccccs" />
      <path
         style="fill:#ffffff;fill-rule:evenodd;stroke:none;stroke-width:0.3;stroke-dasharray:none"
         d="m 345.29855,323.61494 c 4.54297,-35.03033 5.04211,-64.72996 2.12845,-95.18294 H 185.262 v 345.52407 c 60.52587,-46.93876 110.40631,-106.87684 139.08895,-176.21594 9.50241,-23.33184 17.54024,-47.85144 20.9476,-74.12519 z"
         id="path1576"
         sodipodi:nodetypes="sccccs" />
    </g>
    <g
       id="g3186">
      <circle
         style="fill:#003479;fill-opacity:1;stroke-width:0.3"
         id="path789"
         cx="185.6841"
         cy="437.5285"
         r="67.875" />
      <g
         id="g521"
         style="fill:#e2be29;fill-opacity:1"
         transform="translate(0.22616307)">
        <path
           style="fill:#e2be29;fill-opacity:1;fill-rule:evenodd;stroke-width:1"
           d="m 221.84808,448.20781 c -5.31699,14.8077 -12.57613,26.28323 -22.38338,34.66608 -7.95982,6.80317 -17.52907,11.51994 -29.0259,14.27628 4.80415,1.21322 9.83436,1.85877 15.01533,1.85877 16.8247,0 32.01472,-6.85189 43.04312,-17.88029 3.4241,-3.42379 6.44675,-7.24909 8.99373,-11.39486 -3.6975,-9.45302 -9.14652,-16.6065 -15.6429,-21.52598 z"
           id="path513" />
        <path
           style="fill:#e2be29;fill-opacity:1;fill-rule:evenodd;stroke-width:1"
           d="m 136.9348,475.06868 c 1.63233,2.12696 3.40159,4.14366 5.29449,6.03656 4.6145,4.6145 9.96434,8.49418 15.85747,11.44932 15.45997,-1.8451 27.58406,-6.67659 37.03587,-14.75506 9.18965,-7.85476 15.96851,-18.86246 20.93792,-33.25287 -8.46382,-4.396 -18.20567,-5.62681 -27.98036,-3.80098 -4.01458,12.59562 -10.87561,21.7333 -20.22236,27.4438 -8.45959,5.16873 -18.85642,7.45212 -30.92303,6.87923 z"
           id="path511" />
        <path
           style="fill:#e2be29;fill-opacity:1;fill-rule:evenodd;stroke-width:1"
           d="m 159.24726,465.08734 c -9.95612,-11.23535 -16.90778,-23.67145 -19.49947,-37.38255 -1.96473,-10.39381 -1.41473,-21.45778 2.24011,-33.20906 -10.76511,10.91971 -17.41768,25.93776 -17.66783,42.40581 -0.004,0.24381 0.005,0.10468 0.005,0.97885 0,10.94222 2.87591,21.21276 7.91163,30.09781 10.42062,1.17394 19.48738,0.21699 27.01004,-2.89086 z"
           id="path509" />
        <path
           style="fill:#e2be29;fill-opacity:1;fill-rule:evenodd;stroke-width:1"
           d="m 175.54122,401.6989 c 15.21223,-2.74539 29.28972,-2.021 41.93466,2.48724 10.04433,3.58119 19.14637,9.52847 27.15581,17.99471 C 241.89181,411.7347 236.40896,402.3983 228.95684,394.94618 218.33419,384.32352 203.72067,377.5301 187.357,376.79807 l 0.0447,0.0375 c -6.65551,7.91654 -10.65158,16.41813 -11.86049,24.86337 z"
           id="path507" />
        <path
           style="fill:#e2be29;fill-opacity:1;fill-rule:evenodd;stroke-width:1"
           d="m 186.28895,434.29187 c 12.10068,-2.39199 24.24675,-0.66986 34.63935,5.32032 8.31163,4.79071 15.46268,12.28451 20.52031,22.55234 3.26586,-7.46397 5.0969,-15.68459 5.14713,-24.29728 0.006,-0.98248 -0.0128,-1.95944 -0.0536,-2.93044 -8.78459,-12.13776 -19.31722,-20.17885 -31.28942,-24.44728 -11.95763,-4.26321 -25.421,-4.80136 -40.07742,-1.93481 0.34056,9.04055 3.99177,17.89214 11.1136,25.73715 z"
           id="path505" />
        <path
           style="fill:#e2be29;fill-opacity:1;fill-rule:evenodd;stroke-width:1"
           d="m 178.84756,377.002 c -9.81646,0.90642 -18.8759,4.16858 -26.6753,9.2037 l 0.14675,0.0676 c -6.72069,14.56661 -8.32258,27.9469 -6.00604,40.20188 2.44162,12.91639 9.25423,24.70355 19.03013,35.40053 7.37546,-4.84222 12.88052,-12.4386 16.25408,-22.82017 -8.72522,-9.48557 -13.02628,-20.37333 -13.11729,-31.54418 -0.0837,-10.29796 3.43021,-20.76299 10.36767,-30.50936 z"
           id="path44" />
      </g>
    </g>
    <g
       id="g2417">
      <path
         style="fill:#e2be29;fill-opacity:1;fill-rule:evenodd;stroke-width:1"
         d="m 157.24072,313.73144 -8.57959,8.77735 7.31983,54.08203 a 67.875,67.875 0 0 1 29.70263,-6.9375 67.875,67.875 0 0 1 29.71289,6.87158 l 7.31104,-54.01611 -8.57813,-8.77735 -7.68896,8.77735 v 9.62402 h -12.36328 v -9.62402 l -8.39209,-8.69678 -8.39356,8.69678 v 9.62402 h -12.36181 v -9.62402 z"
         id="path2412" />
      <path
         style="fill:#e2be29;fill-opacity:1;fill-rule:evenodd;stroke-width:1"
         d="m 251.20898,253.42969 -6.16406,8.39648 v 10.10596 h -9.58447 v -10.10596 l -6.10547,-8.38037 -6.40283,8.38037 v 26.23096 l 10.32861,11.53418 -10.29053,81.24463 a 67.875,67.875 0 0 1 26.64112,34.00781 c 0.4937,-0.0609 0.99273,-0.10254 1.50146,-0.10254 h 0.3999 c 7.19766,0 13.10303,6.28185 13.10303,13.47949 v 22.61133 h 24.24463 l -19.1792,-151.23926 9.74414,-11.51953 v -26.24707 l -6.28711,-8.39648 -6.19922,8.39648 v 10.10596 h -9.58301 v -10.10596 z"
         id="path2410" />
      <path
         style="fill:#e2be29;fill-opacity:1;fill-rule:evenodd;stroke-width:1"
         d="m 98.210449,253.42969 -6.288575,8.39648 v 26.24707 l 9.745606,11.51953 -19.180664,151.23926 H 106.73291 V 428.2207 c 0,-7.19764 5.90537,-13.47949 13.10303,-13.47949 h 0.3999 c 0.54242,0 1.07437,0.0451 1.59961,0.11426 a 67.875,67.875 0 0 1 26.56494,-33.83936 l -10.3125,-81.4248 10.32861,-11.53418 v -26.23096 l -6.40283,-8.38037 -6.10693,8.38037 v 10.10596 h -9.58301 v -10.10596 l -6.16553,-8.39648 -6.16552,8.39648 v 10.10596 h -9.58301 v -10.10596 z"
         id="path38" />
    </g>
  </g>
</svg>
